<svg width="28" height="32" viewBox="0 0 28 32" fill="none" xmlns="http://www.w3.org/2000/svg">
<path d="M24.7471 20.9411C23.8624 19.6719 23.4203 18.2421 23.4203 16.6528C23.4203 15.2041 23.8375 13.8768 24.6702 12.6719C25.1189 12.0181 25.8499 11.2618 26.8627 10.4027C26.1961 9.58246 25.5295 8.94143 24.8624 8.47977C23.6573 7.64658 22.2918 7.22998 20.7664 7.22998C19.8563 7.22998 18.7471 7.44781 17.4397 7.88401C16.1832 8.31987 15.2665 8.53804 14.6898 8.53804C14.2537 8.53804 13.3692 8.34587 12.0359 7.96106C10.6898 7.57639 9.55514 7.38423 8.63209 7.38423C6.42699 7.38423 4.60649 8.30741 3.17066 10.1534C1.72196 12.0252 0.997482 14.4225 0.997482 17.3457C0.997482 20.4482 1.94 23.6723 3.82448 27.0185C5.73457 30.3389 7.66412 31.9994 9.6128 31.9994C10.2666 31.9994 11.1128 31.7813 12.1511 31.3455C13.1897 30.9228 14.0999 30.7109 14.8821 30.7109C15.7151 30.7109 16.6832 30.916 17.7857 31.3261C18.9523 31.7359 19.8499 31.9411 20.478 31.9411C22.1189 31.9411 23.7666 30.6847 25.4202 28.1719C26.4969 26.5695 27.2854 24.967 27.7854 23.3643C26.6444 23.0179 25.6318 22.2102 24.7471 20.9411Z" fill="white"/>
<path d="M18.2084 6.07631C19.0162 5.26864 19.6123 4.38392 19.9971 3.42255C20.3687 2.46104 20.5542 1.58912 20.5542 0.806976C20.5542 0.755853 20.5514 0.691663 20.5445 0.614675C20.5387 0.537754 20.5353 0.473833 20.5353 0.422508C20.5223 0.38398 20.5064 0.313458 20.4873 0.21101C20.4682 0.108561 20.4522 0.0380394 20.4391 -0.000488281C18.1827 0.525428 16.5802 1.47407 15.6315 2.84591C14.6702 4.23055 14.17 5.87781 14.1314 7.78803C14.9904 7.71104 15.6568 7.60226 16.1314 7.46115C16.8242 7.23032 17.5157 6.7686 18.2084 6.07631Z" fill="white"/>
</svg>
