<svg id="BUTTON" xmlns="http://www.w3.org/2000/svg" width="149" height="44" viewBox="0 0 149 44">
  <g id="Rectangle_15909" data-name="Rectangle 15909" fill="none" stroke="#4bc56b" stroke-linejoin="round" stroke-width="1">
    <rect width="149" height="44" rx="22" stroke="none"/>
    <rect x="0.5" y="0.5" width="148" height="43" rx="21.5" fill="none"/>
  </g>
  <text id="App_Store" data-name="App Store" transform="translate(79.873 33.572)" fill="#fff" font-size="16" font-family="Raleway-Bold, Raleway" font-weight="700"><tspan x="-37.792" y="0">App Store</tspan></text>
  <text id="AVAILABLE_ON_THE" data-name="AVAILABLE ON THE" transform="translate(41.873 16.572)" fill="#fff" font-size="10" font-family="Raleway-Regular, Raleway"><tspan x="0" y="0">AVAILABLE ON THE</tspan></text>
  <g id="Group_8" data-name="Group 8" transform="translate(14.581 10)">
    <path id="Path_31" data-name="Path 31" d="M37.812,32.706a5.492,5.492,0,0,1-1-3.216,5.14,5.14,0,0,1,.937-2.986A9.35,9.35,0,0,1,39.4,24.8a7.44,7.44,0,0,0-1.5-1.442,5.274,5.274,0,0,0-3.072-.937,8.14,8.14,0,0,0-2.495.491,7.223,7.223,0,0,1-2.062.49,9.278,9.278,0,0,1-1.991-.433,9.6,9.6,0,0,0-2.553-.433,4.979,4.979,0,0,0-4.1,2.077A8.558,8.558,0,0,0,20,30.01a14.787,14.787,0,0,0,2.12,7.255Q24.269,41,26.462,41a5.213,5.213,0,0,0,1.9-.49,5.56,5.56,0,0,1,2.048-.476,6.377,6.377,0,0,1,2.178.461,6.668,6.668,0,0,0,2.019.461q1.846,0,3.707-2.827a13.921,13.921,0,0,0,1.774-3.606A4.388,4.388,0,0,1,37.812,32.706Z" transform="translate(-20 -17)" fill="#fff"/>
    <path id="Path_32" data-name="Path 32" d="M32.908,21.558a5.92,5.92,0,0,0,1.341-1.99,5.5,5.5,0,0,0,.418-1.962c0-.038,0-.087-.007-.144s-.007-.106-.007-.144a1.368,1.368,0,0,1-.036-.159A1.34,1.34,0,0,0,34.581,17a5.748,5.748,0,0,0-3.606,2.135,6.578,6.578,0,0,0-1.125,3.707,8.058,8.058,0,0,0,1.5-.245A4.087,4.087,0,0,0,32.908,21.558Z" transform="translate(-20 -17)" fill="#fff"/>
  </g>
</svg>
