<svg xmlns="http://www.w3.org/2000/svg" width="18.353" height="18.257" viewBox="0 0 18.353 18.257">
  <path id="Union_16" data-name="Union 16" d="M-5611.508-576.885l-2.422-2.413a.482.482,0,0,1,0-.671.485.485,0,0,1,.685-.012l1.6,1.589v-7.04a.484.484,0,0,1,.485-.483.483.483,0,0,1,.484.483v7.04l1.6-1.589a.485.485,0,0,1,.673,0,.481.481,0,0,1,.012.683l-2.421,2.413h0a.482.482,0,0,1-.342.141A.484.484,0,0,1-5611.508-576.885Zm2.964-5.058a.655.655,0,0,1-.656-.653.655.655,0,0,1,.656-.653h1.966a2.624,2.624,0,0,0,2.179-1.168,2.607,2.607,0,0,0-.735-3.622.653.653,0,0,1-.271-.719,3.814,3.814,0,0,0,.082-.378,3.916,3.916,0,0,0-3.231-4.5,3.927,3.927,0,0,0-4.52,3.221.652.652,0,0,1-.181.354.657.657,0,0,1-.927.007,1.314,1.314,0,0,0-.916-.373,1.308,1.308,0,0,0-1.313,1.3.655.655,0,0,1-.656.653,2.617,2.617,0,0,0-2.622,2.613,2.618,2.618,0,0,0,2.622,2.613h3.278a.654.654,0,0,1,.655.653.654.654,0,0,1-.655.653h-3.278a3.928,3.928,0,0,1-3.891-3.339,3.921,3.921,0,0,1,3.308-4.456,2.613,2.613,0,0,1,.114-.357,2.625,2.625,0,0,1,3.406-1.461,5.243,5.243,0,0,1,4.924-3.445,5.235,5.235,0,0,1,5.25,5.219,5.042,5.042,0,0,1-.086.927,3.915,3.915,0,0,1,1.394,2.989,3.926,3.926,0,0,1-3.93,3.923Z" transform="translate(5621 595)" fill="#fff"/>
</svg>
