<svg xmlns="http://www.w3.org/2000/svg" xmlns:xlink="http://www.w3.org/1999/xlink" width="85" height="85" viewBox="0 0 85 85">
  <defs>
    <filter id="Ellipse_394" x="0" y="0" width="85" height="85" filterUnits="userSpaceOnUse">
      <feOffset input="SourceAlpha"/>
      <feGaussianBlur stdDeviation="3" result="blur"/>
      <feFlood flood-opacity="0.161"/>
      <feComposite operator="in" in2="blur"/>
      <feComposite in="SourceGraphic"/>
    </filter>
  </defs>
  <g id="eid_img2" transform="translate(-67.5 -156.5)">
    <g transform="matrix(1, 0, 0, 1, 67.5, 156.5)" filter="url(#Ellipse_394)">
      <g id="Ellipse_394-2" data-name="Ellipse 394" transform="translate(9 9)" fill="#fff" stroke="#ffe563" stroke-width="4">
        <circle cx="33.5" cy="33.5" r="33.5" stroke="none"/>
        <circle cx="33.5" cy="33.5" r="31.5" fill="none"/>
      </g>
    </g>
    <path id="Path_47782" data-name="Path 47782" d="M-989.079,222.84s6.7-40.619,40.619-47.319c.419,0-28.056-22.613-48.575,10.05,0,.419-8.794,19.262,5.025,35.175A20.939,20.939,0,0,0-989.079,222.84Z" transform="translate(1079.479 -0.471)" fill="rgba(235,235,235,0.42)"/>
    <g id="HT" transform="translate(84.129 176.688)">
      <path id="Path_19650" data-name="Path 19650" d="M57.143,510.259c-7.751,0-14.036-1.6-14.036-3.238V510.8c0,1.64,6.286,3.242,14.036,3.242s14.031-1.6,14.035-3.242v-3.775C71.178,508.66,64.894,510.259,57.143,510.259Z" transform="translate(-29.381 -465.39)" fill="#e4af18"/>
      <path id="Path_19651" data-name="Path 19651" d="M69.424,504.819c0,1.639-6.284,3.168-14.036,3.168s-14.036-1.529-14.036-3.168,6.284-2.769,14.036-2.769S69.424,503.18,69.424,504.819Z" transform="translate(-31.015 -469.836)" fill="#ffd949"/>
      <path id="Path_19652" data-name="Path 19652" d="M55.389,506.751c-7.751,0-14.036-1.6-14.036-3.24v3.777c0,1.639,6.286,3.242,14.036,3.242s14.031-1.6,14.036-3.242v-3.777C69.424,505.152,63.14,506.751,55.389,506.751Z" transform="translate(-31.015 -468.36)" fill="#f4bf1a"/>
      <path id="Path_19653" data-name="Path 19653" d="M42.522,504.411v3.775c.328.12.688.238,1.08.349v-3.777Q43.014,504.592,42.522,504.411Z" transform="translate(-30.229 -467.771)" fill="#d0aa47"/>
      <path id="Path_19654" data-name="Path 19654" d="M54.8,504.758v3.777c.392-.111.751-.229,1.08-.349v-3.775Q55.39,504.591,54.8,504.758Z" transform="translate(-19.362 -467.771)" fill="#d0aa47"/>
      <path id="Path_19655" data-name="Path 19655" d="M43.984,504.811v3.777q.518.108,1.08.2v-3.777Q44.5,504.919,43.984,504.811Z" transform="translate(-28.935 -467.26)" fill="#d0aa47"/>
      <path id="Path_19656" data-name="Path 19656" d="M53.341,505.016v3.777q.561-.1,1.08-.2v-3.777Q53.9,504.919,53.341,505.016Z" transform="translate(-20.656 -467.26)" fill="#d0aa47"/>
      <path id="Path_19657" data-name="Path 19657" d="M45.447,505.052v3.777c.352.046.711.089,1.08.126v-3.777C46.158,505.141,45.8,505.1,45.447,505.052Z" transform="translate(-27.641 -467.056)" fill="#d0aa47"/>
      <path id="Path_19658" data-name="Path 19658" d="M51.879,505.178v3.779c.369-.039.728-.081,1.08-.126v-3.779C52.607,505.1,52.248,505.141,51.879,505.178Z" transform="translate(-21.949 -467.056)" fill="#d0aa47"/>
      <path id="Path_19659" data-name="Path 19659" d="M46.909,505.2v3.777q.532.039,1.08.065v-3.777Q47.44,505.233,46.909,505.2Z" transform="translate(-26.347 -466.934)" fill="#d0aa47"/>
      <path id="Path_19660" data-name="Path 19660" d="M50.417,505.261v3.777q.548-.025,1.08-.065V505.2Q50.965,505.232,50.417,505.261Z" transform="translate(-23.243 -466.934)" fill="#d0aa47"/>
      <path id="Path_19661" data-name="Path 19661" d="M49.2,505.268c-.181,0-.361,0-.54,0v3.779c.179,0,.359,0,.54,0s.361,0,.54,0v-3.779C49.564,505.266,49.384,505.268,49.2,505.268Z" transform="translate(-24.795 -466.876)" fill="#d0aa47"/>
      <path id="Path_19662" data-name="Path 19662" d="M44.277,507.92V511.7q.492.183,1.08.349v-3.777Q44.769,508.1,44.277,507.92Z" transform="translate(-28.676 -464.629)" fill="#c49214"/>
      <path id="Path_19663" data-name="Path 19663" d="M56.558,508.267v3.777q.588-.166,1.08-.349V507.92Q57.145,508.1,56.558,508.267Z" transform="translate(-17.81 -464.629)" fill="#c49214"/>
      <path id="Path_19664" data-name="Path 19664" d="M45.739,508.32V512.1q.518.108,1.08.2v-3.777Q46.257,508.428,45.739,508.32Z" transform="translate(-27.383 -464.29)" fill="#c49214"/>
      <path id="Path_19665" data-name="Path 19665" d="M55.1,508.525V512.3q.561-.1,1.08-.2V508.32Q55.657,508.428,55.1,508.525Z" transform="translate(-19.103 -464.29)" fill="#c49214"/>
      <path id="Path_19666" data-name="Path 19666" d="M47.2,508.562v3.777c.352.046.711.087,1.08.126v-3.777C47.912,508.649,47.553,508.606,47.2,508.562Z" transform="translate(-26.089 -464.086)" fill="#c49214"/>
      <path id="Path_19667" data-name="Path 19667" d="M53.634,508.686v3.779c.369-.039.728-.081,1.08-.126v-3.777C54.361,508.606,54,508.649,53.634,508.686Z" transform="translate(-20.397 -464.086)" fill="#c49214"/>
      <path id="Path_19668" data-name="Path 19668" d="M48.663,508.705v3.777q.532.039,1.08.065V508.77C49.377,508.751,49.018,508.729,48.663,508.705Z" transform="translate(-24.795 -463.965)" fill="#c49214"/>
      <path id="Path_19669" data-name="Path 19669" d="M52.172,508.77v3.777q.548-.025,1.08-.065v-3.777Q52.72,508.741,52.172,508.77Z" transform="translate(-21.69 -463.965)" fill="#c49214"/>
      <path id="Path_19670" data-name="Path 19670" d="M50.957,508.777c-.181,0-.361,0-.54,0v3.779c.179,0,.359,0,.54,0s.361,0,.54,0v-3.779C51.318,508.775,51.138,508.777,50.957,508.777Z" transform="translate(-23.243 -463.907)" fill="#c49214"/>
      <path id="Path_19671" data-name="Path 19671" d="M67.4,506.012c-1.679,1.305-7.082,2.4-13.492,2.4a43.258,43.258,0,0,1-10.428-1.134.913.913,0,0,0-.368.665c0,1.639,6.284,3.168,14.036,3.168s14.035-1.529,14.035-3.168C71.178,507.16,69.741,506.494,67.4,506.012Z" transform="translate(-29.381 -466.244)" fill="#fcc62d"/>
      <path id="Path_19672" data-name="Path 19672" d="M63.4,489.194l.91,2.559a.4.4,0,0,0,.213.24l2.273,1.025a.454.454,0,0,1,0,.8l-2.273,1.025a.413.413,0,0,0-.213.24l-.91,2.559a.369.369,0,0,1-.712,0l-.91-2.559a.414.414,0,0,0-.213-.24l-2.273-1.025a.454.454,0,0,1,0-.8l2.273-1.025a.4.4,0,0,0,.213-.24l.91-2.559A.369.369,0,0,1,63.4,489.194Z" transform="translate(-15.461 -481.498)" fill="#d0aa47"/>
      <path id="Path_19673" data-name="Path 19673" d="M44.459,485.2l.675,1.9a.309.309,0,0,0,.158.179l1.686.759a.337.337,0,0,1,0,.595l-1.686.761a.3.3,0,0,0-.158.177l-.675,1.9a.273.273,0,0,1-.528,0l-.675-1.9a.3.3,0,0,0-.158-.177l-1.686-.761a.337.337,0,0,1,0-.595l1.686-.759a.309.309,0,0,0,.158-.179l.675-1.9A.274.274,0,0,1,44.459,485.2Z" transform="translate(-31.348 -485)" fill="#d0aa47"/>
      <path id="Path_19674" data-name="Path 19674" d="M59.136,487.87a1.337,1.337,0,1,1-1.337-1.339A1.337,1.337,0,0,1,59.136,487.87Z" transform="translate(-17.868 -483.705)" fill="#d0aa47"/>
      <path id="Path_19675" data-name="Path 19675" d="M39.95,492.2a1.975,1.975,0,1,1-1.975-1.975A1.975,1.975,0,0,1,39.95,492.2Z" transform="translate(-36 -480.368)" fill="#d0aa47"/>
      <g id="Group_85657" data-name="Group 85657" transform="translate(21.229 32.737)" style="mix-blend-mode: multiply;isolation: isolate">
        <ellipse id="Ellipse_21" data-name="Ellipse 21" cx="7.642" cy="1.145" rx="7.642" ry="1.145" transform="matrix(0.993, -0.119, 0.119, 0.993, 0, 1.825)" fill="#c4c4c4"/>
      </g>
      <g id="Group_162716" data-name="Group 162716" transform="translate(10.691 5.566)">
        <path id="Path_19676" data-name="Path 19676" d="M56.625,518.245c-7.3,0-13.226-6.768-13.226-15.115s5.921-15.115,13.226-15.115,13.226,6.766,13.226,15.115S63.929,518.245,56.625,518.245Z" transform="translate(-40.391 -488.015)" fill="#ffd949"/>
        <path id="Path_19677" data-name="Path 19677" d="M44.884,503.13c0-7.721,5.066-14.085,11.606-15a11.755,11.755,0,0,0-1.619-.116c-7.3,0-13.226,6.766-13.226,15.115s5.921,15.115,13.226,15.115a11.726,11.726,0,0,0,1.619-.116C49.95,517.215,44.884,510.851,44.884,503.13Z" transform="translate(-41.612 -488.015)" fill="#f4bf1a"/>
        <path id="Path_19678" data-name="Path 19678" d="M55.516,513.934H55.47a9.612,9.612,0,0,1-1.131-.066.54.54,0,0,1,.128-1.073,8.656,8.656,0,0,0,1,.059.56.56,0,0,1,.563.541A.52.52,0,0,1,55.516,513.934Zm3.139-.581a.54.54,0,0,1-.191-1.045,9.234,9.234,0,0,0,.921-.408.54.54,0,1,1,.493.96,10.37,10.37,0,0,1-1.033.458A.524.524,0,0,1,58.656,513.352Zm-7.307-.412a.551.551,0,0,1-.244-.059,10.241,10.241,0,0,1-.977-.567.54.54,0,0,1,.592-.9,9.031,9.031,0,0,0,.873.506.541.541,0,0,1-.245,1.023ZM62.2,511.019a.54.54,0,0,1-.383-.919,10.067,10.067,0,0,0,.678-.757.54.54,0,0,1,.838.681c-.238.294-.49.574-.75.836A.544.544,0,0,1,62.2,511.019Zm-14.153-.759a.542.542,0,0,1-.418-.2c-.234-.286-.46-.589-.668-.9a.54.54,0,1,1,.9-.6c.191.282.4.558.608.818a.541.541,0,0,1-.417.883Zm16.526-2.773a.525.525,0,0,1-.215-.046.54.54,0,0,1-.28-.711c.135-.31.259-.631.368-.954a.54.54,0,0,1,1.023.343c-.119.353-.254.7-.4,1.043A.542.542,0,0,1,64.578,507.487Zm-18.584-.954a.542.542,0,0,1-.511-.366c-.119-.351-.225-.711-.315-1.071a.54.54,0,0,1,1.047-.26c.083.331.18.661.289.982a.54.54,0,0,1-.336.685A.522.522,0,0,1,45.994,506.533Zm19.6-3.183-.042,0a.542.542,0,0,1-.5-.581c.025-.327.038-.661.038-.992a.556.556,0,0,1,.54-.557.526.526,0,0,1,.54.522v.035c0,.358-.014.72-.042,1.076A.54.54,0,0,1,65.6,503.35ZM45.3,502.321a.536.536,0,0,1-.54-.535v-.011c0-.367.015-.738.043-1.1a.54.54,0,0,1,1.076.087c-.026.332-.04.674-.04,1.014A.546.546,0,0,1,45.3,502.321Zm19.939-3.22a.539.539,0,0,1-.522-.408c-.084-.332-.181-.663-.292-.982a.54.54,0,1,1,1.021-.351c.12.349.226.709.317,1.069a.54.54,0,0,1-.391.655A.534.534,0,0,1,65.242,499.1Zm-19.256-.98a.573.573,0,0,1-.174-.03.54.54,0,0,1-.338-.685c.119-.351.255-.7.4-1.041a.54.54,0,0,1,.989.434c-.136.31-.261.633-.37.954A.541.541,0,0,1,45.987,498.121Zm17.528-2.911a.538.538,0,0,1-.448-.238c-.191-.281-.4-.556-.61-.816a.54.54,0,1,1,.834-.687c.235.286.46.587.67.9a.542.542,0,0,1-.144.751A.551.551,0,0,1,63.515,495.21Zm-15.479-.822a.539.539,0,0,1-.417-.881c.238-.292.491-.572.751-.834a.54.54,0,0,1,.766.761c-.235.236-.465.491-.681.757A.534.534,0,0,1,48.036,494.388Zm12.46-2.175a.538.538,0,0,1-.294-.089,9.665,9.665,0,0,0-.876-.5.54.54,0,0,1,.487-.964,10.306,10.306,0,0,1,.978.563.541.541,0,0,1-.3.993ZM51.33,491.7a.54.54,0,0,1-.246-1.021,9.928,9.928,0,0,1,1.034-.456.54.54,0,0,1,.378,1.012,8.791,8.791,0,0,0-.923.406A.526.526,0,0,1,51.33,491.7Zm5.186-.943a.365.365,0,0,1-.063-.006,8.731,8.731,0,0,0-.982-.055.55.55,0,0,1-.551-.541.53.53,0,0,1,.528-.539h.023a9.637,9.637,0,0,1,1.107.065.54.54,0,0,1-.061,1.076Z" transform="translate(-38.7 -486.304)" fill="#cf880c"/>
        <path id="Path_19679" data-name="Path 19679" d="M48.9,488.892H52.15a12.887,12.887,0,0,0-1.587,1.08H47.319A12.879,12.879,0,0,1,48.9,488.892Zm-.055,2.7H45.606q-.461.515-.876,1.08h3.242Q48.388,492.1,48.849,491.589Zm-5.442,3.24h3.239q-.267.526-.5,1.08H42.908C43.061,495.54,43.229,495.18,43.407,494.829Zm2.164,2.7H42.335c-.105.354-.2.714-.286,1.08h3.243C45.375,498.243,45.466,497.883,45.571,497.529Zm-3.8,2.7h3.237c-.045.356-.075.716-.1,1.08H41.67Q41.7,500.762,41.77,500.228Zm-.125,2.7h3.238q.017.546.067,1.08H41.709C41.676,503.651,41.656,503.291,41.645,502.927Zm3.535,2.7H41.94q.105.546.243,1.078h3.238Q45.284,506.172,45.18,505.626Zm-2.486,2.7h3.241q.207.551.45,1.08h-3.24C42.984,509.053,42.832,508.693,42.694,508.325Zm4.9,3.24H44.353q.376.559.795,1.078H48.39Q47.971,512.126,47.593,511.565Zm.452,3.777a13.187,13.187,0,0,1-1.362-1.08h3.238a13,13,0,0,0,1.371,1.08Z" transform="translate(-41.645 -486.942)" fill="#d0aa47" fill-rule="evenodd"/>
        <path id="Path_19680" data-name="Path 19680" d="M51.351,496.407a.473.473,0,0,1-.453-.491,1.264,1.264,0,1,0-2.52,0,.454.454,0,1,1-.905,0,2.172,2.172,0,1,1,4.331,0A.473.473,0,0,1,51.351,496.407Z" transform="translate(-36.509 -482.969)" fill="#cf880c"/>
        <path id="Path_19681" data-name="Path 19681" d="M55.479,496.407a.473.473,0,0,1-.453-.491,1.264,1.264,0,1,0-2.52,0,.454.454,0,1,1-.905,0,2.172,2.172,0,1,1,4.331,0A.473.473,0,0,1,55.479,496.407Z" transform="translate(-32.845 -482.969)" fill="#cf880c"/>
        <path id="Path_19682" data-name="Path 19682" d="M59.7,496.165H47.653a.471.471,0,0,0-.453.489,6.77,6.77,0,0,0,6.478,7.016,6.77,6.77,0,0,0,6.478-7.016A.471.471,0,0,0,59.7,496.165ZM50.239,501.4a4.223,4.223,0,0,1,6.878,0,5.228,5.228,0,0,1-6.878,0Zm7.55-.674a5.1,5.1,0,0,0-8.221,0,6.268,6.268,0,0,1-1.444-3.58H59.233A6.267,6.267,0,0,1,57.789,500.725Z" transform="translate(-36.644 -480.618)" fill="#cf880c"/>
      </g>
    </g>
  </g>
</svg>
