<?xml version="1.0" encoding="utf-8"?>
<!-- Generator: Adobe Illustrator 19.2.0, SVG Export Plug-In . SVG Version: 6.00 Build 0)  -->
<svg version="1.1" id="Layer_1" xmlns="http://www.w3.org/2000/svg" xmlns:xlink="http://www.w3.org/1999/xlink" x="0px" y="0px"
	 viewBox="0 0 1440 666" style="enable-background:new 0 0 1440 666;" xml:space="preserve">
<style type="text/css">
	.st0{opacity:0.2;fill:#0198B0;enable-background:new    ;}
	.st1{fill:#F2A16B;}
	.st2{fill:#FFB27D;}
	.st3{fill:#4F4F4F;}
	.st4{fill:#2358A5;}
	.st5{fill:#163560;}
	.st6{fill:#1C468A;}
	.st7{fill:#828282;}
	.st8{fill:#FCA56B;}
	.st9{fill:#0F1620;}
	.st10{fill:#322601;}
	.st11{fill:#4BC56B;}
	.st12{fill:#24823C;}
	.st13{fill:#E8945B;}
	.st14{fill:#EBF3FA;}
	.st15{fill:#F2CCAA;}
	.st16{fill:#FFFFFF;}
	.st17{fill:#233862;}
	.st18{fill:#F1FDFF;}
	.st19{opacity:0.4;fill:#4BC56B;enable-background:new    ;}
	.st20{opacity:0.8;}
	.st21{opacity:0.8;fill:#FFFFFF;enable-background:new    ;}
	.st22{fill:#EDCBAB;}
	.st23{fill:#F9DDBF;}
	.st24{fill:#2A3D4B;}
	.st25{fill:#1A2F3F;}
	.st26{fill:#3C0D0D;}
	.st27{fill:#0198B0;}
	.st28{fill:#057283;}
	.st29{fill:#00869B;}
	.st30{fill:#ED985F;}
	.st31{fill:#ED7D2B;}
	.st32{fill:#F99746;}
	.st33{fill:#FFF0E3;}
	.st34{fill:#9E782E;}
	.st35{fill:#165A28;}
	.st36{fill:#094B1B;}
	.st37{fill:#F2F2F2;}
	.st38{fill:#BDBDBD;}
	.st39{fill:#2E3552;}
</style>
<g>
	<path class="st0" d="M1216.1,661.4c-19.7,0-60.1,1.4-60.5,2h-101.8l-29.8-0.1H757.3l-77.9-0.1H474l-85.8-0.1H233.1
		c0,0-0.3-0.5-0.8-1.5l-0.1-0.1c0,0-0.1-0.1-0.1-0.2c-0.3-0.5-129.1-203.1,83.5-303c83.2-39.1,39.3-117.1,162.4-164.4
		c158.7-61,202,27.6,389.6,6.2c163-18.6,237.2,40.6,225.8,128.7c-5.4,41.4,31.5,73.1,67.9,78.8c100.4,15.7,96.8,107.6,88.6,175.2
		C1245,624.4,1216.8,661.4,1216.1,661.4z"/>
	<path class="st1" d="M609.7,502.1c0,0-1.3-1.6-3.2-2.1c-1.9-0.5-6.1-2.5-5.6-1.5s2.8,2.3,2.4,3.1c0,0-6.6-1.8-6.8-0.7
		c-0.2,1.2,2.4,5.6,5.2,6.6c1,0.3,7.5-1,7.5-1L609.7,502.1z"/>
	<path class="st2" d="M823.3,521.7c0,0-2.6-2.8-6.1-2.4c-1.8,0.2-4.3-2.6-4.2-0.7c0.1,1.8,2.7,6,3.6,6.7c1.7,1.4,5.5,1,5.5,1
		l4.6,2.9L823.3,521.7z"/>
	<path class="st3" d="M270.3,444.6c0,0-19.2,19.9-20.1,27.3c-0.9,7.5,9.2,19.2,9.2,19.2L270.3,444.6z"/>
	<path class="st4" d="M278.9,650.6c0,0,0.7,10.5,2.7,10.7c0.3,0,10.4,0,10.4,0l12.9-0.1c0,0-0.1-3.1-3.9-3.7
		c-3.7-0.7-10.1-3.3-12.3-8.2C286.3,644,278.9,650.6,278.9,650.6z"/>
	<path class="st4" d="M250.3,650.7c0,0,0.7,10.5,2.7,10.7c0.3,0,10.4,0,10.4,0l12.9-0.1c0,0-0.1-3.1-3.9-3.7
		c-3.7-0.7-10.1-3.3-12.3-8.2C257.6,644,250.3,650.7,250.3,650.7z"/>
	<path class="st5" d="M293,537.2c0,0-3.3,21.5-15.8,59.7c-12.5,38.2-14.1,54.8-14.1,54.8l-13.5-0.3c0,0-0.2-41.7,5.5-61
		c5.7-19.2,1.1-69.2,1.1-69.2L293,537.2z"/>
	<path class="st6" d="M299.5,522.3c0,0,0.6,32.4-5,72.2c-5.5,39.8-3.6,56.7-3.6,56.7l-13.4,0.5c0,0-8.1-39.8-5.9-59.7
		c2.3-19.9-11.2-68.4-11.2-68.4L299.5,522.3z"/>
	<path class="st2" d="M273.3,446.4l7.2,4.7l10.4-1.9c-0.1-0.8-0.8-4.3-1.5-7.4c0-0.2-0.1-0.4-0.1-0.6c-0.6-2.7-1-5-1-5l-9.7-4.3
		l-3.6-1.6c0,0.1,0.3,3,0.3,3.4C276,441.3,273.3,446.4,273.3,446.4z"/>
	<path class="st3" d="M288.2,444.1c-0.2-0.1-12.5-3.7-13.8-3.2c-1.3,0.4-2.1,3-2.1,3l20,4.5C292.3,448.3,290.7,445.1,288.2,444.1z"
		/>
	<path class="st7" d="M255.3,526.4c2.1,9.5,36.7,10.5,45.6,1.9c1-1,1.1-5.5,0.7-11.7c-0.8-12-3.2-30.1-3.3-39.3
		c-0.1-4.5-0.7-9-1.5-13.2c-1.8-8.8-4.4-15.7-4.4-15.7s-16.9-5.4-20-4.5C257,448.4,253.2,516.9,255.3,526.4z"/>
	<path class="st3" d="M301.6,516.6c-0.8-12-3.2-30.1-3.3-39.3c-0.1-4.5-0.7-9-1.5-13.2l-10.2-1.8
		C286.5,462.3,276.7,502.9,301.6,516.6z"/>
	<path class="st2" d="M296,499.8c0,0-0.7,1.7,0.8,2.8c1.5,1.1,2.4,2.9,2.1,4.2c-0.3,1.3-3.5,3.5-4.6,3.1c-1.1-0.3-3.4-2.1-3.1-2.8
		c0.3-0.7-1.5-6.1,1.2-8.2C295,496.9,296,499.8,296,499.8z"/>
	<path class="st7" d="M284.5,445.9c0,0,9.9,1.8,17.8,13.4c7.9,11.6,13.1,20.3,11.7,24.4c-1.4,4.2-14.7,18.8-17,18.8
		c-2.3,0-6-1.7-6.2-5.4c0,0,8.7-14.5,6.9-16.6c-0.8-0.9-11.6-9.5-13.2-5.4C281.9,482.1,284.5,445.9,284.5,445.9z"/>
	<path class="st8" d="M276,433.9c2.1,3.6,10.1,6.7,13.3,7.8c0-0.2-0.1-0.4-0.1-0.6c-0.6-2.7-1-5-1-5l-9.7-4.3
		C276.4,432,275.1,432.5,276,433.9z"/>
	<path class="st2" d="M291.9,435.7c0,0-15.6,4.9-18.5-4.8c-2.9-9.7-6.9-15.7,3-19.2c9.8-3.5,12.9-0.4,14.6,2.6
		C292.7,417.3,295.8,434.1,291.9,435.7z"/>
	<path class="st9" d="M290.4,413.3c0,0-1,11.3-3.3,10.9c-2.3-0.5-4.5-0.8-4.1,2.6c0.4,3.4,3.6,7.3-3.6,8c-7.2,0.6-17.7-18-15.7-21.5
		C269.4,403,298.6,400.9,290.4,413.3z"/>
	<path class="st2" d="M1103.9,484.4c0,0-1.3-2.2-2.1-3.4s-2.4-2.7-2.8-2.3c-0.4,0.4,1.3,2,1.2,2.5c-0.1,0.6-2.9-1.2-3.2-1.7
		c-0.6-0.8-2.2-1.7-2.4-0.7c-0.2,1,1,4.2,1.5,5.1c0.5,0.9,2.8,2.4,4,2.8c1.2,0.4,3.3,1.5,3.3,1.5L1103.9,484.4z"/>
	<path class="st10" d="M1160.1,412.5c-4.7-2.5-8.5-0.9-8.5-0.9c-14.5-1.7-18.7,15.2-18.5,21c0.2,5.8,0.8,12-5.6,19.6
		c-18.7,21.8,20.5,22.8,20.5,22.8c0.3-17.4,21.2-11,20.3-9.3C1195,472,1170.9,418.1,1160.1,412.5z"/>
	<path class="st11" d="M1141.1,486.4c0,0-1.4,2.8-3.9,5.9c-3,3.8-7.7,8.2-13.6,9c-2.8,0.4-5.5-0.2-8-1.3
		c-7.1-3.2-12.5-10.4-12.5-10.4c-1.2-3.4,0.8-5.7,0.8-5.7s14.4,3.2,15.8,2.5c1.4-0.7,9.4-23.7,11.2-26.6c1.9-2.9,8.4-4.4,8.4-4.4
		L1141.1,486.4z"/>
	<path class="st12" d="M1137.2,492.3c-3,3.8-7.7,8.2-13.6,9c-2.8,0.4-5.5-0.2-8-1.3c0.3,0,7.4,0.9,10.2-4.1
		c2.9-5.2,6-13.4,10.3-10.6C1138,486.4,1137.9,489.3,1137.2,492.3z"/>
	<path class="st4" d="M1194.7,641.4c0,0,4.4,4,3.5,6.8c-0.8,2.8-4.8,4.7-5.4,8.2c-0.5,3.5-2.7,5.4-4.6,5.4c-1.9,0-9.2,0-9.2,0
		s-1.4-2.5,2-3.2c3.4-0.7,4.7-4.8,4.5-8.6c-0.2-3.8,0.3-8.8,0.3-8.8l7.3-1.7L1194.7,641.4z"/>
	<path class="st4" d="M1157.6,643.1c0,0,1.6,17-0.3,17.9l-24.6,0c0,0,0-2.8,4-3.5c4-0.7,10.9-2.9,12.1-8.1
		C1149.9,644.2,1157.6,643.1,1157.6,643.1z"/>
	<path class="st2" d="M1175.2,521.6c-5.1-11.4-8.2-14.6-7.6-18.2c0.4-2.6-1.4-49-1.4-49c-0.6-0.2-1.8-0.4-2.5-0.5
		c-2.1-0.5-3.8-1.9-4.5-3.9c-0.8-2.4-1.5-6-1.5-10.5l-0.7,0.1l-10.9,2.2c0,0,0.3,3.5,0.3,6.7c0,0,0,0,0,0.1c0,2.8-1.8,5.3-4.5,6.1
		c-1.4,0.4-2.6,0.7-2.6,0.7s-4,11.5-4.8,23.2c-0.8,11.7,7.3,16.8-0.1,40.3C1126.9,543,1178,527.8,1175.2,521.6z"/>
	<path class="st13" d="M1146.1,441.8c0,0,0.3,3.5,0.3,6.7c6.1-0.2,9.3-5.7,10.7-8.8L1146.1,441.8z"/>
	<path class="st2" d="M1144.1,444.9c0,0,14.5,0.2,14.5-8.8s1.9-15.1-7.3-15.6c-9.2-0.6-11,2.9-11.7,5.9
		C1138.7,429.5,1140.4,444.6,1144.1,444.9z"/>
	<path class="st10" d="M1144.6,420.3c0,0,4,10.6,10,12.1c6.1,1.6,8.7-0.1,8.7-0.1s-4.7-3.7-5.6-10.2
		C1157.8,422.3,1147.6,415.3,1144.6,420.3z"/>
	<path class="st10" d="M1145.6,421.2c0,0-2.9,1.1-4.2,3.2c-1.2,2.1-2.2,4.9-1.9,8.3c0,0-3-7.2,0.4-11.2
		C1143.4,417.2,1145.6,421.2,1145.6,421.2z"/>
	<path class="st14" d="M1147.3,439.3c0,0-1,1.3-3,1.2c-1.6-0.1-2.2-1.5-2.2-1.5S1145,438.4,1147.3,439.3z"/>
	<path class="st11" d="M1176.6,474.9c0,0,0.4,5.2,0,11.4c-0.3,4.1-4.4,9.6-5,11c-1.5,3.4-3.2,4-3.2,4l-12.9,3.2l-4.6,1.1l-14.4-4.3
		c0,0-6.5-18.2-3.9-28.5c2.6-10.3,6.6-17.4,6.6-17.4s11.7,11.5,27-1L1176.6,474.9z"/>
	<path class="st15" d="M1172.8,488c-0.3,4.1-0.6,8-1.2,9.3c-1.5,3.4-3.2,4-3.2,4l-12.9,3.2l-5.6-1.7c0,0,18.8-2.8,16.7-19
		L1172.8,488z"/>
	<path class="st5" d="M1137.5,504c0,0-7.1,22.1-7.6,29.6c-0.5,7.5,13.6,106.9,14.1,110.3c0.5,3.3,4.6,5.4,4.6,5.4s1.9,1.1,4.5,0.4
		c3.7-1,4.9-2.3,4.9-2.3s5.5-70.9,2.1-96.2c-3.4-25.3-3.5-47.2-3.5-47.2L1137.5,504L1137.5,504z"/>
	<path class="st6" d="M1167.6,503.4c0,0,10.8,14.5,11.9,24.4c1,9.8,1.6,44.3,3.8,53.9c2.2,9.6,10.1,28,10.1,57.9
		c0,0-0.8,1.7-3.3,2.6c-0.8,0.3-1.9,0.6-2.9,0.8c-2.1,0.5-4.2-0.6-5.2-2.5c-5.4-10.8-22.4-45.4-23.2-52.7c-0.6-5.1-6-38.8-17.7-58.6
		c-2.8-4.7,1.7-23.6,1.7-23.6L1167.6,503.4z"/>
	<path class="st16" d="M1146.9,439.5c0,0-0.3,1.1-2.9,0.9c0,0-2.2-0.1-2.2-1.3C1141.9,439.1,1144,438.3,1146.9,439.5z"/>
	<path class="st17" d="M1136.3,500.6c0,0,2.9,2.2,8.5,2.4c6.8,0.1,23.5-1.7,23.5-1.7s0.7,2.1,0.7,4.3c0,0-20.5,5.2-32.3,0.8
		C1136.7,506.3,1135.2,503.4,1136.3,500.6z"/>
	<path class="st16" d="M1143.2,508.8c-1.7,0-3.1-1.6-3.1-3.5s1.4-3.5,3.1-3.5s3.1,1.6,3.1,3.5
		C1146.3,507.3,1144.9,508.8,1143.2,508.8z M1143.2,502.9c-1.1,0-2.1,1.1-2.1,2.5c0,1.4,0.9,2.5,2.1,2.5c1.1,0,2.1-1.1,2.1-2.5
		C1145.3,504,1144.4,502.9,1143.2,502.9z"/>
	<path class="st18" d="M1165.5,475.9l-21,18.3l25,28.7l21-18.3L1165.5,475.9z"/>
	<path class="st2" d="M1163.7,504.7c0,0-8.1,1.2-8.1,3.1c0,1.8,1.7,5.1,3.3,5.4c2.1,0.3,6.2-5.1,6.2-5.1L1163.7,504.7z"/>
	<path class="st2" d="M1163.5,505.1c0,0-2.7-1-4.7-0.6c-2,0.4-3.9,0.1-3.4,0.8c0.4,0.7,3.2,0.4,3.6,0.7c0.4,0.3,0.4,0.1,0.4,0.1
		L1163.5,505.1z"/>
	<path class="st11" d="M1166.2,454.4c0,0,10.2,0.7,14.2,10.3c3.9,9.5,11.4,25.6,11.4,28.3c0,2.7-4.2,11-26.6,15.8
		c0,0-2.3-2.4-2.2-4.4c0,0,14-12,14-13.4c-0.1-2.6-2.3-6.2-14.6-18.4C1159.1,469.3,1166.2,454.4,1166.2,454.4z"/>
	<path class="st11" d="M512,661.7c-5.4,0-10.8-0.5-16.1-1.4c-4.8-0.9-9.6-2.1-14.2-3.8c-7.2,0.7-14.4,0.7-21.5,0
		c-22-2.1-42.3-8.7-59-18.9c-4,0.9-8.1,1.2-12.3,1c-10.3-0.6-20-4.4-29-11.5c-8.5-6.8-15.8-16.1-21.8-27.7
		c-10.5-20.4-15.6-46-14.6-72.1c1.2-28.9,9.8-56.8,25.1-80.5c12-18.6,25.2-33.1,39.4-43.1c12.2-8.6,25.5-14,39.4-16
		c3.9-0.6,7.7-0.9,11.5-1c12.1-7.2,26.1-12.6,40.7-15.6c17.1-3.5,43.2-4.3,70,11.7c27.9,16.7,50.2,47.7,66.3,92.2
		c0.9,2.5,1.8,5.1,2.6,7.6c3.7,1.9,7.7,4.1,12.2,6.5l0.3,0.1c13.9,7.5,35.7,13.5,58.1,16.1c18.7,2.1,46.6,2.9,72.7-5.7
		c24.5-8,41.8-22.3,51.4-42.4l2.1,1c-9.9,20.8-27.6,35.5-52.7,43.6c-26.6,8.7-54.7,7.9-73.7,5.8c-22.8-2.6-44.8-8.7-59-16.3
		l-0.3-0.1c-3.7-2-7-3.8-10.1-5.4c6.5,22.4,7.7,44.2,3.7,65.1c-4,21.1-13.4,40.3-27.2,55.5c-4,4.4-8.3,8.4-12.8,11.9
		c-0.3,0.7-0.6,1.4-1,2.1c1.6,3,2.6,6,2.4,8.6c-0.3,4.2-5,7.9-14.1,10.9c-0.7,0.3-1.5,0.5-2.3,0.7c-7.4,7.5-16.3,13-26.8,16.4
		C531.8,660.1,521.9,661.7,512,661.7z M487.2,655.8c3,0.9,6,1.6,9,2.1c14.7,2.6,30,1.5,44.3-3.2c8.6-2.9,16.3-7.2,22.8-12.9
		c-12.3,3-28.8,5.1-46.6,5.8c-0.7,0.3-1.4,0.6-2.1,0.9C505.8,652,496.6,654.5,487.2,655.8z M404.3,636.8
		c16.1,9.4,35.3,15.5,56.1,17.4c5.4,0.5,10.8,0.6,16.3,0.3c-5.9-2.5-11.5-5.7-16.7-9.4c-8.4-1.2-16.1-2.7-22.9-4.5
		c-8.9-2.4-16.2-5.2-21.8-8.6C411.7,634.1,408.1,635.6,404.3,636.8z M465,645.7c5.3,3.4,11,6.2,17,8.4c9.5-1,18.9-3.1,27.9-6.4
		c-8.7,0.2-17.6,0-26.4-0.5C477.1,646.9,470.9,646.4,465,645.7z M460.9,642.8c7.1,1,14.7,1.7,22.8,2.1c10.9,0.6,21.9,0.7,32.5,0.3
		c6.5-2.8,12.6-6.2,18.3-10.1c-3.1-0.2-6.2-0.7-9.1-1.4c-7-1.8-12.7-5.9-17.4-12.8c-7.3,0.2-14.7-0.2-22.3-1.2
		c-18.1-2.5-32.9-8-44.3-16.4c-1.9,3.3-3.7,6.2-5.6,8.8c5.1,10.9,12.4,20.3,21.7,27.9C458.5,641,459.7,642,460.9,642.8z
		 M538.3,635.3c-5,3.6-10.3,6.9-16,9.7c17.5-1,33.4-3.2,44.5-6.5c2.2-2.3,4.3-4.7,6.1-7.3c2.2-3,4.2-6.4,6.1-9.9
		c-5.5,3.9-11.4,7-17.4,9.4C553.9,633.7,545.9,635.2,538.3,635.3z M417.5,630.6c9.1,5.1,22.3,9,38.7,11.6c-0.1-0.1-0.2-0.2-0.3-0.3
		c-9.2-7.6-16.5-16.9-21.7-27.6c-2.5,3.3-4.8,6-7,8.2C424.1,625.7,420.8,628.3,417.5,630.6z M580.8,622.9c-2.8,5.2-5.9,9.9-9.4,14.1
		c6.8-2.5,10.6-5.4,10.8-8.3C582.3,627.1,581.8,625.1,580.8,622.9z M434.9,389.2c-2.5,0.2-5,0.5-7.2,0.8c-13.6,2-26.5,7.3-38.4,15.6
		c-13.9,9.7-26.9,24-38.7,42.4c-15,23.3-23.5,50.8-24.7,79.3c-1,25.7,4,50.9,14.3,71c5.8,11.3,12.9,20.4,21.2,26.9
		c8.5,6.8,17.8,10.5,27.6,11c3.2,0.1,6.3,0,9.3-0.5c-10.6-6.9-19.6-15.3-26.8-25c-3.6-4.9-6.7-10.1-9.3-15.5
		c-7.9-4.3-14.4-10.4-19.4-18.5c-6.9-11.1-10.6-25.3-10.6-41c0-6.6,0.7-13.3,2-19.8c-0.7-18.9,7.1-40.9,22.1-61.9
		c14.4-20.2,33.2-36.3,51.5-44.3c2.1-0.9,4.1-1.7,6.1-2.3c2.6-3,5.5-5.9,8.5-8.6C426.1,395.4,430.4,392.2,434.9,389.2z M365.6,597
		c2.2,4.3,4.8,8.4,7.7,12.4c7.5,10.1,17,18.7,28.2,25.7c3.9-1,7.7-2.5,11.4-4.5c-2.7-1.8-4.9-3.7-6.7-5.7
		c-6.3-7.2-11.9-14.8-16.5-22.4c-3.9-0.2-7.7-0.7-11.5-1.4C373.8,600.1,369.6,598.8,365.6,597z M510.7,620.9
		c4.2,5.7,9.2,9.1,15.2,10.6c3.7,1,7.7,1.4,11.7,1.5c6.7-5,12.7-10.7,17.8-17c2.7-3.3,5.1-6.8,7.2-10.4
		C547.2,614.7,529.5,619.9,510.7,620.9z M566.2,603.9c-2.5,4.7-5.5,9.2-9,13.5c-4.6,5.7-9.8,10.8-15.6,15.5
		c6.3-0.4,12.8-1.9,19.3-4.4c6.1-2.4,12-5.7,17.7-9.7c-2.2-3.5-5.4-7.5-9.4-11.8C568.2,605.9,567.2,605,566.2,603.9z M392.6,602.5
		c4.3,7,9.5,13.9,15.5,20.8c1.8,2.1,4.2,4.1,7.2,5.9c3.6-2.2,7-5,10.2-8.4c2.3-2.3,4.8-5.3,7.5-9c-0.7-1.6-1.4-3.2-2-4.8
		c-0.7-1.7-1.2-3.4-1.8-5.2c-0.8-0.2-1.7-0.4-2.5-0.6c-2.1-0.6-4.1-1.3-6.1-2.2C411.6,601.4,402.1,602.7,392.6,602.5z M444.4,602.6
		c10.8,7.5,24.7,12.4,41.5,14.8c6.9,1,13.8,1.4,20.5,1.3c-3-5-5.5-11.2-7.7-18.7c-0.3-1-0.6-1.9-0.8-2.9c-3.1-0.4-6.2-1-9.3-1.6
		c-4-0.8-7.8-1.9-11.4-3.2c-7.2,3.5-14.5,6.5-21.8,8.4C451.6,601.6,447.9,602.3,444.4,602.6z M500.4,597.4c0.2,0.7,0.4,1.3,0.6,1.9
		c2.3,7.9,5,14.3,8.2,19.3c20.2-0.8,38.9-6.5,55-16.7c-3.2-3.1-6.6-6.2-10.3-9.3c-3.4,1-6.8,1.9-10.2,2.7
		C529.4,598.3,514.9,599.1,500.4,597.4z M567.8,602.2c1,1,2,2.1,3,3.1c3.3,3.5,6.9,7.8,9.6,12c0.3-0.2,0.5-0.4,0.8-0.6
		c3.2-7.1,5.6-15.1,7.4-23.9c0.7-3.6,1.3-7.3,1.8-11.2c-3.5,4.3-7.5,8.4-11.7,12.1C575.3,596.8,571.6,599.7,567.8,602.2z
		 M593.2,578.2c-0.6,5.3-1.3,10.4-2.3,15.2c-1.5,7.3-3.4,14.1-5.9,20.3c3.2-2.7,6.2-5.7,9.1-8.9c13.2-14.6,22.4-33.1,26.4-53.4
		c-3.8,3.9-11.3,11.1-21.9,18.7C597,572.9,595.2,575.6,593.2,578.2z M431.8,602.4c0.4,1.3,0.9,2.6,1.4,3.9c0.4,1.1,0.9,2.3,1.4,3.4
		c1.4-2.1,2.8-4.3,4.3-6.8C436.4,602.9,434.1,602.7,431.8,602.4z M431.1,599.9c2.2,0.4,4.4,0.6,6.7,0.7c-1.9-1.6-3.7-3.3-5.4-5.1
		c-0.8,0.3-1.5,0.6-2.3,0.8C430.4,597.5,430.7,598.7,431.1,599.9z M448.4,588.9c-1.8,4.2-3.6,8.1-5.5,11.5c3.8-0.3,7.8-1,11.9-2.1
		c6.4-1.7,13-4.2,19.4-7.2c-5.4-2.1-10.4-4.8-14.8-7.9C455.9,585.1,452.3,587,448.4,588.9z M391.2,600.1c8.9,0.4,17.8-0.7,26.4-2.7
		c-5.8-3.3-11.1-8.2-15.6-14.6c-2.5-3.5-4.7-7.1-6.6-10.8c-5.3-1-10.5-2.3-15.9-4c-0.4-0.1-0.7-0.2-1.1-0.4
		C380,577.7,384.4,588.8,391.2,600.1z M556.5,591.7c3.3,2.8,6.3,5.6,9.1,8.3c2.2-4.5,4.1-9.2,5.4-14
		C566.2,588.3,561.4,590.1,556.5,591.7z M364,593.6c4.5,2.3,9.4,4,14.8,5.1c3.2,0.6,6.4,1.1,9.6,1.3c-2.3-4-4.4-8-6.1-12
		c-3.3-7.4-5.4-14.5-6.4-21.1c-6.8-2.4-14-5.8-20.3-10.5C355.8,569.6,358.7,582.1,364,593.6z M434.8,594.6c1.8,1.8,3.7,3.6,5.7,5.2
		c1.5-2.9,3.1-6,4.6-9.4C441.9,591.9,438.4,593.3,434.8,594.6z M424.3,598.1c1.4,0.5,2.7,0.9,4.1,1.3c-0.2-0.8-0.4-1.5-0.6-2.3
		C426.7,597.4,425.5,597.7,424.3,598.1z M573.8,584.8c-1.2,4.8-2.9,9.4-5,13.9c2.9-2.1,5.7-4.3,8.4-6.7c5.1-4.5,9.7-9.4,13.7-14.8
		c0.1-0.7,0.1-1.4,0.2-2.1c-1.6,1-3.3,2-5,3C582.1,580.7,578,582.8,573.8,584.8z M398.3,572.5c1.7,3.1,3.5,6.1,5.6,9
		c4.9,6.9,10.6,12,17,15.1c2.2-0.6,4.3-1.2,6.4-1.9c-0.6-2.4-1-4.8-1.3-7.3c-0.1-0.2-0.3-0.4-0.4-0.6c-2.6-4-4.8-8.3-6.6-13
		C412.2,574.1,405.3,573.6,398.3,572.5z M499.8,594.9c14.5,1.8,29,1.2,43.3-2c2.9-0.6,5.7-1.4,8.6-2.2c-9.8-8.1-21-16.2-32.5-23.3
		c-2.5,1.6-5.2,3.3-8,5.1c-4.4,2.8-9.2,5.8-14.2,8.8C497.8,586.1,498.7,590.6,499.8,594.9z M480.2,590.8c2.9,0.9,5.8,1.7,9,2.3
		c2.7,0.6,5.5,1.1,8.2,1.5c-0.9-3.8-1.8-7.8-2.5-11.9C490.1,585.5,485.2,588.3,480.2,590.8z M429.1,591.6c0.1,0.8,0.3,1.6,0.5,2.4
		c0.4-0.1,0.8-0.3,1.2-0.4C430.1,593,429.6,592.3,429.1,591.6z M428.2,586.6c1.5,2.2,3.1,4.2,4.8,6.2c4.7-1.7,9.2-3.6,13.5-5.6
		c1.5-3.5,2.9-7.3,4.3-11.4c-0.5-0.5-1-1-1.4-1.5c-1.4-1.5-2.6-3.1-3.8-4.7c-1.1,0.3-2.2,0.7-3.3,1c-4.9,1.3-10,2.3-15,2.8
		C427.4,577.8,427.7,582.3,428.2,586.6z M335.2,524.8c-0.4,3.7-0.7,7.4-0.7,11.1c0,15.3,3.5,29,10.2,39.8c4.2,6.7,9.5,12.1,15.8,16
		c-4.9-11.5-7.3-24-7.4-37.2C344.6,547.5,337.7,537.9,335.2,524.8z M521.4,566.1c11.8,7.3,23.1,15.5,33,23.8
		c5.9-1.8,11.7-4.1,17.4-6.8c2.1-8.6,2.9-17.6,2.2-26.8c-3.6,2.9-7.3,5.2-11.2,6.9c-10.4,4.5-19.9,4.7-28.2,0.5
		c-1.5-0.8-3-1.7-4.4-2.7C527.5,562.5,524.6,564.2,521.4,566.1z M461.7,581.9c4.6,3.1,9.7,5.7,15.4,7.8c5.9-2.9,11.8-6.2,17.3-9.5
		c-1-6-1.9-12.4-2.7-18.9c-4.3,3.4-8.6,6.8-13.1,9.9C474,574.5,468.2,578.2,461.7,581.9z M452.7,577.6c-1,2.8-2,5.5-3,8
		c2.6-1.3,5.2-2.6,7.7-4C455.7,580.4,454.2,579,452.7,577.6z M421.4,573.8c1.1,2.9,2.5,5.7,3.9,8.3c-0.3-2.8-0.4-5.6-0.4-8.5
		C423.8,573.6,422.6,573.7,421.4,573.8z M576.2,554.5c0.9,9.4,0.3,18.5-1.6,27.3c3.5-1.7,7-3.6,10.4-5.6c2.2-1.3,4.3-2.6,6.4-4
		c0.9-11.5,0.8-24.1-0.1-37.7C587.1,542.6,581.9,549.3,576.2,554.5z M453.5,575.2c1.9,1.9,3.9,3.6,6.1,5.2
		c6.8-3.9,12.8-7.8,17.7-11.2c5-3.5,9.7-7,14.1-10.7c-0.2-2-0.5-4.1-0.7-6.1c-2.6-1.1-5.1-2.2-7.6-3.1c-8.5,6.8-17.4,12.2-26.7,16.3
		C455.5,568.9,454.5,572.1,453.5,575.2z M493.9,559.5c0.8,6.7,1.7,13.2,2.7,19.4c4.7-2.8,9.1-5.7,13.4-8.3c2.4-1.5,4.8-3,7.1-4.4
		c-0.6-0.4-1.2-0.7-1.9-1.1c-5.8-3.5-11.5-6.5-16.9-9.2C496.8,557.1,495.3,558.3,493.9,559.5z M448,568.8c1,1.4,2.1,2.7,3.2,3.9
		c0.2,0.2,0.3,0.4,0.5,0.6c0.7-2.1,1.4-4.3,2-6.6C451.8,567.4,449.9,568.1,448,568.8z M397,569.9c7.2,1.2,14.2,1.8,21.2,1.6
		c-4.2-12.2-5.8-26.7-4.6-43.3c-1.2-1.1-2.3-2.2-3.3-3.3c-0.7-0.7-1.3-1.4-1.9-2.2c-5.3,2.5-10,4.8-13.8,6.9
		c-2.4,1.3-4.4,2.8-6.3,4.4c0,0.3,0,0.5,0,0.8C388.7,547.2,391.6,559.1,397,569.9z M415.7,530.2c-0.9,15.9,0.7,29.7,4.8,41.3
		c1.5-0.1,2.9-0.2,4.4-0.3c0.1-4.4,0.4-9,1-13.6c0-0.9,0.4-8.6,3.6-19.1C424.5,536.3,419.9,533.6,415.7,530.2z M431.7,539.3
		c-3.1,10.6-3.4,18.3-3.4,18.4v0.1c-0.6,4.5-0.9,8.8-1,13.1c4.9-0.6,9.7-1.5,14.4-2.7c0.8-0.2,1.7-0.5,2.5-0.7
		c-5.2-7.9-8.5-17.2-9.7-27.2C433.6,539.9,432.6,539.7,431.7,539.3z M593.3,530.5c1.1,14.6,1.3,28,0.5,40.2c1.1-0.7,2.1-1.5,3.2-2.2
		c10.4-17,15.9-36.9,15.6-57.6c-0.1-9.4-2.9-15.7-8.5-19.3c-0.6-0.4-1.2-0.7-1.9-1.1C602.3,503.7,599.1,518,593.3,530.5z M378,565.1
		c0.7,0.3,1.5,0.5,2.2,0.7c4.7,1.5,9.3,2.7,13.9,3.6c-4.8-10.3-7.6-21.5-8.2-33.1c-4.1,4.4-6.7,9.7-7.8,15.9
		C377.5,556.2,377.4,560.5,378,565.1z M436.9,541c1.3,9.6,4.6,18.4,9.6,25.8c2.6-0.8,5.3-1.8,7.9-2.9c1.9-7,3.4-13.9,4.4-20.3
		c-0.8,0-1.7-0.1-2.5-0.1C449.5,543.5,443,542.6,436.9,541z M602.1,487.9c1.1,0.5,2.2,1.1,3.2,1.7c6.2,4,9.4,11.2,9.5,21.3
		c0.3,19.2-4.3,37.8-13.2,54.1c11.5-8.8,18.5-16.4,19.7-17.9c3.3-20.2,1.7-41.3-4.9-62.8c-5.7-2.9-10.7-5.2-15.6-7
		c0.6,3.1,1,6.4,1.2,9.7C602.1,487.3,602.1,487.6,602.1,487.9z M500.1,554.2c5.2,2.6,10.6,5.5,16.2,8.8c1,0.6,1.9,1.1,2.9,1.7
		c3.2-2,6.2-3.7,9-5.2c-5.2-4.3-9.6-10.4-13.4-17.6c-0.8,0.2-1.7,0.4-2.5,0.6C508.5,546.4,504.4,550.4,500.1,554.2z M532.5,559.9
		c1,0.7,2.1,1.3,3.1,1.8c7.7,3.9,16.3,3.7,26.2-0.6c4.1-1.8,8.1-4.3,11.9-7.6c-0.7-6.3-2-12.7-4-19.1c-0.8-2.6-1.8-5-2.8-7.3
		c-10.7,16.2-22.4,28-31.4,31.5C534.5,559,533.6,559.4,532.5,559.9z M355.5,553.4c5.5,4.3,12.2,8,20,10.9c-0.4-4.4-0.4-8.6,0.3-12.4
		c1.3-7.5,4.6-13.7,10-18.7c-0.2-14,2.6-28,8.3-40.8c-1.5-7-2.2-14.5-2.2-22.6c-2.5-0.1-4.9-0.1-7.3-0.1
		c-13,18.7-22.2,39.8-26.6,60.9C356.4,538.3,355.5,546,355.5,553.4z M461.3,543.7c-1,6-2.4,12.4-4.1,18.9
		c8.1-3.7,15.9-8.4,23.4-14.3C473.4,545.9,466.9,544.3,461.3,543.7z M517,541.2c4.1,7.6,8.5,13.3,13.4,17.1c1.5-0.7,2.9-1.4,4.2-1.9
		c8.4-3.3,20.1-15.1,30.4-30.8c0.2-0.3,0.4-0.6,0.6-0.9c-3.2-5.9-7.2-10.9-12.3-15c-2.9,6.4-7.5,12.6-13.4,18
		C533.1,534,525.1,538.7,517,541.2z M493.2,553.5c0.1,1.1,0.3,2.2,0.4,3.3c0.8-0.7,1.6-1.3,2.3-2C495,554.3,494.1,553.9,493.2,553.5
		z M492.9,550.8c1.6,0.7,3.3,1.5,4.9,2.3c3.7-3.3,7.2-6.6,10.5-9.8c-3.1,0.4-6.1,0.5-9,0.2c-2.4-0.2-4.6-1.1-6.6-2.6
		c-0.3,0.3-0.5,0.5-0.7,0.7C492.2,544.7,492.5,547.8,492.9,550.8z M568.3,524.9c1.4,2.8,2.6,5.8,3.6,8.9c1.9,6,3.2,11.9,4,17.8
		c5.5-5.3,10.4-12,14.3-20c0.3-0.5,0.5-1.1,0.8-1.6c-0.7-9.3-1.9-18.9-3.5-29.1c-0.6-3.7-1.3-7.3-2.2-10.9
		C581.3,501.8,575.4,513.7,568.3,524.9z M336.5,516.2c0,0.2,0,0.4,0,0.7c0.6,11.1,4.3,20.8,10.9,28.8c1.7,2.1,3.6,4,5.7,5.8
		c0.1-7,1-14.2,2.5-21.5c4.4-21,13.3-41.8,26-60.3c-4.4,0.2-8.6,0.7-12.7,1.5c-9.4,1.8-18.1,9.7-24.6,22.2
		C340.9,500.2,338.2,508,336.5,516.2z M485.2,547.6c1.7,0.7,3.5,1.4,5.2,2.1c-0.2-2-0.4-4.1-0.7-6.1
		C488.3,545,486.7,546.3,485.2,547.6z M461.6,541.5c6.2,0.7,13.3,2.4,21,5.2c2.2-1.8,4.3-3.7,6.4-5.7c0.1-0.1,0.3-0.2,0.4-0.3
		c-0.1-1-0.2-1.9-0.3-2.9c-3.1-3.4-5.9-8.1-8.5-13.5c-6,1.7-10.8,2.4-14.1,1.6c-1-0.2-2-0.5-3.1-0.8
		C463.2,529.9,462.6,535.4,461.6,541.5z M494.3,539.2c1.6,1.1,3.3,1.8,5.2,1.9c3.7,0.3,7.6,0.1,11.5-0.7c0.7-0.7,1.3-1.4,1.9-2
		c-2.1-4.3-4-8.9-5.8-13.8C503.1,529.9,498.8,534.7,494.3,539.2z M436.6,538.5c6.1,1.8,12.7,2.7,19.8,2.7c1,0,1.9,0,2.9,0.1
		c1-6.2,1.6-12,1.9-17c-5.4-1.8-12.1-4.7-18.8-8.6c-1,1.6-2,3.2-2.9,4.8c-1.2,2.1-2.2,4.2-3.1,6.2
		C436.2,530.7,436.2,534.6,436.6,538.5z M515.7,538.8c0.1,0.1,0.1,0.3,0.2,0.4c7.9-2.5,15.7-7,22.4-13.1
		c5.8-5.3,10.3-11.4,13.1-17.7c-3.5-2.5-7.3-4.6-11.6-6.3c-0.5-0.2-1-0.4-1.5-0.6c-1.2,0.5-2.5,1-3.7,1.5c-0.4,3.9-1.1,7.5-1.8,10.4
		C531.2,519.3,525,528.6,515.7,538.8z M491.4,536.8c0.4,0.4,0.7,0.7,1.1,1c4.8-4.8,9.4-10.1,13.8-15.8c-0.7-2.1-1.4-4.2-2.1-6.4
		c-5.1,2.1-9.9,4-14.4,5.6c0.6,5,1,9.9,1.5,14.8C491.4,536.3,491.4,536.5,491.4,536.8z M432.4,537c0.6,0.2,1.2,0.4,1.8,0.6
		c-0.1-1.7-0.2-3.3-0.3-5.1C433.4,534.1,432.9,535.6,432.4,537z M508.9,522.4c0.9,2.6,1.9,5.1,2.9,7.5c1,2.3,1.9,4.5,2.9,6.6
		c8.8-9.8,14.5-18.4,15.9-23.8c0.7-2.5,1.2-5.5,1.7-8.8c-5,2.1-10,4.1-14.8,6.2C514.6,514.3,511.8,518.5,508.9,522.4z M415.9,527.3
		c4.2,3.7,9,6.6,14.3,8.9c1-3.2,2.3-6.5,3.9-10c0.3-4.8,1-9.7,2.1-14.5c-0.1,0-0.1-0.1-0.2-0.1c-6.8,2.4-13.3,5-19.2,7.5
		C416.4,521.8,416.1,524.6,415.9,527.3z M483,523.5c1.8,3.8,3.7,7.3,5.8,10c-0.4-3.9-0.8-7.7-1.2-11.6
		C486,522.6,484.4,523.1,483,523.5z M395,496.1c-4.4,11-6.8,23.1-6.9,35c1.6-1.2,3.3-2.4,5.2-3.4c3.7-2.1,8.3-4.4,13.4-6.8
		C401.4,514,397.5,505.6,395,496.1z M587.2,488.1c1.1,4.1,2,8.3,2.6,12.5c1.3,8.7,2.4,17,3.1,25c4.7-11.5,7.2-24.3,6.9-36.1
		C596.2,488.3,591.9,487.9,587.2,488.1z M410.4,521.8c0.5,0.6,1,1.1,1.4,1.6c0.6,0.7,1.2,1.3,1.9,1.9c0.1-1.7,0.3-3.5,0.6-5.2
		C413,520.6,411.7,521.2,410.4,521.8z M463.6,522.6c1.3,0.4,2.5,0.7,3.6,1c2.8,0.7,7.1,0,12.5-1.5c-2.5-5.4-4.8-11.4-7.2-17.5
		c-0.4-1.1-0.9-2.2-1.3-3.3c-3.4,0.7-6.7,1.5-9.8,2.3c1.2,3,2,6.1,2.2,9.3C463.8,515.6,463.8,518.8,463.6,522.6z M554.3,507.6
		c5.2,4.1,9.4,9.1,12.8,14.9c6.9-11,12.5-22.7,16.3-34.2c-7.9,0.8-16.9,3.2-26.3,6.2C557,498.9,556,503.3,554.3,507.6z M443.7,513.7
		c6.3,3.7,12.5,6.4,17.7,8.1c0.1-3.4,0.1-6.4-0.1-8.8c-0.2-3-1-5.9-2.2-8.8c-3.6,1-7.1,2-10.6,3.1
		C446.8,509.4,445.2,511.5,443.7,513.7z M473.5,500.8c0.4,1,0.8,2,1.2,3c2.4,6.2,4.8,12.3,7.3,17.7c1.7-0.5,3.5-1.1,5.3-1.8
		c-0.8-7-1.6-14-2.6-20.9C480.9,499.3,477.1,500,473.5,500.8z M438.3,513.1c-0.5,2.4-1,4.8-1.3,7.2c0.1-0.3,0.3-0.6,0.5-0.9
		c0.9-1.7,1.9-3.3,2.9-5C439.7,514,439,513.6,438.3,513.1z M396.5,492.5c2.3,10.6,6.5,19.9,12.4,27.3c1.8-0.8,3.7-1.7,5.7-2.5
		c0.9-7.1,2.3-14.5,4.1-22.2c-2.3-3-4.3-6.3-5.9-9.8c-1.9-3.9-3.3-8-4.1-12.1c-4.3,4.9-8.2,10.9-11.4,17.7
		C397,491.5,396.8,492,396.5,492.5z M506.3,514.7c0.6,1.7,1.1,3.4,1.7,5c1.9-2.6,3.8-5.3,5.6-8C511.1,512.7,508.7,513.7,506.3,514.7
		z M487,498.4c1,6.8,1.8,13.6,2.5,20.4c4.3-1.6,9-3.5,13.9-5.5c-1.6-5.2-3.1-10.7-4.5-16.2C494.9,497.4,491,497.9,487,498.4z
		 M420.6,497.5c-1.5,6.5-2.6,12.8-3.5,18.8c5.2-2.2,10.8-4.4,16.6-6.5C429,506.3,424.5,502.2,420.6,497.5z M438.8,510.7
		c1,0.6,1.9,1.2,2.9,1.8c0.9-1.3,1.8-2.6,2.8-3.9c-1.9,0.6-3.7,1.2-5.6,1.9C438.9,510.5,438.9,510.6,438.8,510.7z M501.3,497
		c1.3,5.1,2.8,10.4,4.3,15.5c3.1-1.3,6.2-2.6,9.4-3.9c0.3-0.1,0.5-0.2,0.7-0.3c2.1-3.5,4.2-7,6.1-10.6
		C515.2,496.8,508.3,496.7,501.3,497z M421.2,494.6c4.4,5.6,9.6,10.4,15.1,14.3c0.2-0.1,0.4-0.1,0.6-0.2c1.7-6.2,4-12.2,6.9-18
		c0.5-1,1-2,1.6-2.9c-5.4-4.1-11.9-7.7-19.2-10.6c-0.8,2.2-1.5,4.5-2.2,6.9C423,487.6,422,491.1,421.2,494.6z M447.3,489.2
		c-0.4,0.8-0.9,1.7-1.3,2.5c-2.6,5.2-4.7,10.6-6.3,16c2.5-0.8,5-1.7,7.5-2.5c2.4-2.9,5.1-5.5,7.9-8
		C452.9,494.5,450.3,491.7,447.3,489.2z M524.3,498c-1.6,3-3.2,5.9-4.9,8.7c4.3-1.8,8.6-3.6,13-5.4c0-0.5,0.1-1.1,0.1-1.6
		C529.9,498.9,527.2,498.4,524.3,498z M541.5,500.2c4,1.6,7.6,3.6,10.8,5.9c1.4-3.6,2.2-7.2,2.4-10.8
		C550.4,496.9,546,498.5,541.5,500.2z M410.8,411c-0.7,0.3-1.4,0.6-2.2,0.9c-17.7,7.7-36.6,24-50.5,43.6
		c-11.9,16.7-19.2,33.9-21.1,49.6c1.4-4.5,3.2-8.8,5.2-12.7c6.8-13.1,16.1-21.5,26.3-23.5c4.8-0.9,9.8-1.5,14.8-1.6
		c3-4.2,6.1-8.3,9.3-12.1c1.3-10.9,4.4-21.1,9.3-30.5C404.4,419.9,407.4,415.3,410.8,411z M456.4,499.2c-1.7,1.5-3.3,3.1-4.9,4.8
		c2.2-0.7,4.4-1.3,6.6-1.9C457.5,501.1,457,500.2,456.4,499.2z M458.1,497.6c0.8,1.2,1.6,2.5,2.2,3.9c3.4-0.9,6.7-1.7,10-2.4
		c-1.1-2.7-2.1-5.4-3.2-8c-1.1,0.7-2.2,1.4-3.3,2.2C461.8,494.6,459.9,496.1,458.1,497.6z M535.1,497.9c1.1,0.3,2.2,0.7,3.2,1
		c5.6-2.2,11.2-4.3,16.6-6.1c0-6.6-1.9-13.2-5.3-19.1c-4.6,0.3-9.5,0.8-14.9,1.2c-0.1,0.4-0.3,0.9-0.5,1.3
		C535.3,484,535.5,491.4,535.1,497.9z M469.1,489.9c1.2,2.9,2.4,5.8,3.5,8.7c4-0.8,7.9-1.5,11.8-2.1c-0.6-4.3-1.3-8.6-2.1-12.8
		C477.7,485.4,473.3,487.5,469.1,489.9z M525.5,495.8c2.5,0.4,4.9,0.9,7.3,1.5c0.3-5.1,0.2-10.6-0.3-16.5
		C530.3,485.9,528,490.9,525.5,495.8z M484.6,482.8c0.8,4.4,1.5,8.8,2.1,13.3c4-0.6,7.9-1,11.6-1.2c-1.1-4.4-2.2-8.8-3.2-13.3
		c-0.1-0.6-0.3-1.1-0.4-1.7C491.2,480.7,487.8,481.7,484.6,482.8z M448.4,487.2c3.3,2.7,6.1,5.6,8.4,8.6c1.8-1.5,3.7-3,5.7-4.3
		c1.2-0.8,2.5-1.7,3.7-2.4c-2.4-5.5-5-10.8-7.8-15.4C454.7,477.6,451.3,482.1,448.4,487.2z M508.4,494.5c5.1,0,10,0.3,14.7,1
		c3.3-6.2,6.2-12.7,8.8-19.4c0-0.3-0.1-0.5-0.1-0.7c-6.6,0.6-13.8,1.3-21.9,2.1c-4.4,0.4-8.7,1.1-12.8,2c0.1,0.6,0.2,1.1,0.4,1.7
		c1,4.4,2.1,9,3.3,13.7c0.3,0,0.7,0,1,0C504,494.5,506.2,494.5,508.4,494.5z M410.8,472.3c0.8,4.1,2.1,8.1,4,12
		c1.3,2.8,2.9,5.4,4.6,7.8c0.7-2.9,1.5-5.8,2.3-8.8c0.7-2.5,1.4-4.8,2.3-7.1C419.8,474.7,415.4,473.4,410.8,472.3z M552.2,473.6
		c3.1,5.8,4.8,12.1,5,18.5c2.9-0.9,5.7-1.8,8.4-2.5c6.9-1.9,13.1-3.1,18.5-3.6c-1.3-4.4-2.9-8.7-4.8-12.9
		C572,472.5,563.4,472.8,552.2,473.6z M394.2,469.8c0,6.7,0.5,13,1.6,18.9c3.2-6.5,7.1-12.3,11.3-17.1
		C402.8,470.7,398.5,470.1,394.2,469.8z M460,471.8c3,4.7,5.7,10.2,8.2,15.9c4.3-2.5,8.9-4.6,13.7-6.4c-0.8-4.2-1.7-8.3-2.6-12.4
		c-0.8-3.3-1.6-6.5-2.5-9.5C470.8,462.3,465.1,466.6,460,471.8z M589.4,485.7c3.9,0,7.3,0.4,10.3,1.4c-0.2-3.7-0.7-7.2-1.4-10.6
		c-2.8-0.9-5.7-1.6-8.6-2.2c-0.8,3.8-1.8,7.6-3,11.5C587.6,485.7,588.5,485.7,589.4,485.7z M427,474.9c7.2,2.9,13.9,6.5,19.6,10.8
		c3.1-5.2,6.6-10,10.5-14.2c-6.2-9.2-12.9-13.7-20.5-13.7C432.7,462.9,429.5,468.5,427,474.9z M581.9,473.2c1.3,2.9,2.4,5.9,3.5,8.9
		c0.8-2.8,1.5-5.5,2.1-8.3C585.7,473.6,583.8,473.4,581.9,473.2z M600.3,474.6c4.9,1.7,9.7,3.8,15.2,6.6c-0.6-1.8-1.2-3.6-1.8-5.3
		c-15.9-44-37.9-74.6-65.3-91c-26.2-15.6-51.6-14.9-68.3-11.5c-13,2.6-25.4,7.2-36.5,13.4c9.4,0.3,18.4,1.8,27.2,4.1
		c11.3-3.1,23-4.3,33.7-3.2c14.8,1.5,26.2,6.9,33,15.5c12.9-3,26.2,1,38.2,11.8c10.8,9.8,16.3,23.6,16.2,40.7c0.3,0.5,0.7,1,1,1.5
		C596.2,462.1,598.8,468.1,600.3,474.6z M479,458.4c0.9,3.2,1.8,6.5,2.6,10c0.9,4,1.8,8,2.5,12.1c3.3-1.1,6.7-2.1,10.2-2.9
		c-1.2-7.9-1-16.3,0.9-24.6C489.9,454.1,484.5,456,479,458.4z M497.7,452.4c-2,8.4-2.3,16.8-1.1,24.7c4.2-0.9,8.5-1.5,13-2
		c8-0.8,15.2-1.5,21.7-2.1c-0.7-3.7-1.5-7.4-2.6-11.1c-0.8-2.5-1.7-5.1-2.8-7.9C517.4,451.1,507.8,450.6,497.7,452.4z M411.6,470.1
		c4.6,1.1,9,2.4,13.3,4c2.3-5.9,5.2-11.2,8.6-16C425.9,459,418.3,463.3,411.6,470.1z M590.2,472c2.6,0.5,5.1,1.1,7.5,1.8
		c-1.4-5.2-3.4-10.1-6-14.3c-0.2,3.9-0.7,7.9-1.5,12C590.2,471.7,590.2,471.8,590.2,472z M539.2,461.5c-1.1,3.7-2.3,7.4-3.6,11.1
		c4.6-0.4,8.8-0.8,12.7-1.1C545.8,467.8,542.8,464.4,539.2,461.5z M528.9,455.2c0.8,2.1,1.5,4.1,2.1,6c1.1,3.5,1.9,7,2.5,10.4
		c1.4-3.9,2.7-7.8,3.8-11.7c-0.7-0.5-1.3-1-2-1.4C533.1,457.3,531.1,456.2,528.9,455.2z M580.8,470.8c1.5,0.1,3,0.3,4.5,0.4
		c0.9,0.1,1.7,0.2,2.6,0.4c0-0.1,0.1-0.3,0.1-0.5c0.8-4.6,1.5-9.6,1.5-14.8c-5.7-7.6-13.5-13-23.3-16c-2.7-0.8-5.7-1.7-8.8-2.5
		C567.4,447.8,575.2,458.8,580.8,470.8z M539.9,459.1c4.4,3.5,8.2,7.6,11,12.3c11.3-0.8,20-1.1,27.2-0.7
		c-6-12.4-14.5-23.8-25.4-34.1c-2.6-0.7-5.4-1.3-8.3-1.9C543.8,442,542.3,450.4,539.9,459.1z M438.3,455.6
		c7.6,0.6,14.3,5.3,20.4,14.2c5.3-5.4,11.2-9.7,17.5-12.7c-2.4-8.1-5.3-15.3-8.4-21.6c-3.8,1.4-7.4,3-10.9,4.9
		C449.6,444.4,443.4,449.4,438.3,455.6z M394.2,467.5c4.6,0.3,9.3,1,13.8,1.8c-1.2-9.9,0.5-20.4,5.1-31.3
		c-6.4,5.3-12.5,11.4-18.2,18.1c-0.1,1-0.2,2-0.3,3C394.4,462,394.3,464.8,394.2,467.5z M417.1,434.8c-0.2,0.4-0.4,0.8-0.6,1.2
		c-5.3,11.2-7.3,22-6.3,32.1c7.6-7.5,16.3-12,24.8-12.6c0.1,0,0.2,0,0.3,0c5.5-7,12.3-12.8,20.3-17.1c3.5-1.9,7.2-3.6,11-4.9
		c-3.6-6.6-7.6-12.3-12.2-16.9c-0.1-0.1-0.3-0.3-0.4-0.4c-7.8,1.9-15.9,5.2-24,9.9C425.7,428.6,421.4,431.5,417.1,434.8z
		 M386.6,467.2c1.8,0,3.5,0,5.3,0.1c0-2.6,0.2-5.3,0.4-8c-2.1,2.6-4.1,5.2-6,7.9C386.3,467.2,386.5,467.2,386.6,467.2z M527.6,452.2
		c3.1,1.2,6.1,2.6,8.8,4.4c0.5,0.3,1,0.6,1.4,1c2.2-8.4,3.7-16.4,4.3-23.5c-9.2-1.9-19.2-3.4-29.5-3.9
		C519.6,437,524.4,444.8,527.6,452.2z M470,434.8c3.2,6.3,5.9,13.4,8.4,21.4c5.9-2.6,11.8-4.6,17.5-5.7c1-3.7,2.2-7.4,3.7-11
		c1.4-3.3,3-6.5,4.8-9.5c-0.1,0-0.2,0-0.4,0C492.4,429.9,480.7,431.3,470,434.8z M553.9,434.4c4.7,1.2,9.1,2.4,12.9,3.6
		c9.2,2.8,16.8,7.7,22.6,14.5c-0.4-12.6-4.2-25.9-15.3-35.9c-11.1-10-23.2-13.9-35.1-11.5c2.1,3.1,3.6,6.6,4.6,10.4
		c0.8,3.2,1.2,6.9,1.2,11c2.2,1.8,4.4,3.6,6.6,5.5C552.2,432.8,553.1,433.6,553.9,434.4z M415.1,409.4c-4.4,5.1-8.1,10.5-11.1,16.3
		c-4.2,8.1-7.1,16.9-8.6,26.2c6.2-7,12.9-13.3,19.8-18.6c3.9-7.8,10.6-17.4,21.9-26.1c-1.1-0.2-2.3-0.4-3.5-0.4
		C427.9,406.4,421.7,407.2,415.1,409.4z M509.2,449c5.4,0,10.5,0.7,15.3,2.2c-3.4-7.3-8.4-14.8-15.5-21.2c-0.7,0-1.4,0-2,0
		c-2,3.3-3.8,6.7-5.4,10.4c-1.4,3.2-2.5,6.4-3.3,9.7C502,449.3,505.7,449,509.2,449z M544.6,432.2c1.5,0.3,3.1,0.7,4.6,1
		c-1.5-1.3-2.9-2.5-4.4-3.8C544.7,430.4,544.7,431.3,544.6,432.2z M456.8,415.5c4.5,4.8,8.5,10.4,12.1,17.1
		c11.7-3.9,24.4-5.2,36.9-5.1c0-0.1,0.1-0.1,0.1-0.3c-5.5-4.3-12.1-8-20.1-10.5C476.8,413.9,467,413.5,456.8,415.5z M510.1,427.7
		c11.2,0.4,22.3,2,32.3,4c0.1-1.4,0.1-2.8,0.1-4.1c-7-5.4-14.1-10.1-21.1-14c-4.5,3.6-8.7,8.1-12.3,13.3
		C509.4,427.1,509.7,427.4,510.1,427.7z M440.2,407.9c-7.4,5.4-14.8,12.6-20.4,22c3-2.2,6.1-4.1,9.2-5.9c7.8-4.5,15.5-7.8,23.1-9.8
		C448.5,411.2,444.5,409.2,440.2,407.9z M469.3,411.9c6,0,11.8,0.9,17.3,2.7c8.2,2.6,15.1,6.4,20.7,10.8c3.5-5,7.5-9.4,11.9-13
		c-9.7-5.3-18.8-9.2-26.3-12c-8.3-3.1-15.7-5.4-22.2-7.2c-5.5,1.6-10.9,3.6-16.1,6.1c-3.7,1.8-7.7,4-11.9,6.9
		c4.5,1.5,8.6,4,12.2,7.3C459.7,412.5,464.5,411.9,469.3,411.9z M523.4,412.1c6.3,3.6,12.7,7.7,19,12.6c-0.1-3.2-0.5-6.1-1.1-8.7
		c-0.9-3.8-2.5-7.2-4.7-10.3c-3.3,0.9-6.6,2.3-9.8,4.2C525.6,410.6,524.5,411.3,523.4,412.1z M475.2,392c6.3,1.8,12.4,4,18.4,6.2
		c7.8,2.9,17.4,7,27.5,12.6c1.4-1.1,2.9-2.1,4.4-2.9c3.1-1.8,6.2-3.2,9.4-4.2c-6.5-7.6-17.1-12.4-30.8-13.8
		C495,389,485,389.8,475.2,392z M439.6,389c-5.7,3.4-11,7.3-15.8,11.6c-2,1.8-3.9,3.6-5.7,5.5c5.5-1.4,10.8-2,15.8-1.6
		c2,0.1,4,0.4,5.8,0.9c4-2.9,8.6-5.6,13.8-8.1c4.1-2,8.4-3.7,12.7-5.1C455.3,389.6,446.8,388.9,439.6,389z"/>
	<path class="st19" d="M423.3,297c6.5-25.3,17.6-47.4,47.4-47.4c26.2,0,49.9,23.1,48.2,51.5c-1.6,26.1-24.3,48.2-52,45.1
		C440.8,343.3,415.8,326,423.3,297z"/>
	<g class="st20">
		<path class="st21" d="M463.5,313.9c0-2.1,0.1-3.9,0.4-5.4c0.3-1.5,0.7-2.9,1.2-4.2c0.6-1.3,1.3-2.5,2.2-3.6c0.9-1.1,2-2.3,3.3-3.6
			c1-1,1.9-1.9,2.8-2.8c0.8-0.8,1.6-1.8,2.3-2.6c0.7-0.9,1.2-1.9,1.5-2.9c0.4-1,0.6-2.2,0.6-3.4c0-2.8-0.7-4.8-2-6.3
			c-1.4-1.4-3.3-2.2-6-2.2c-1.1,0-2.1,0.1-3,0.4c-1,0.3-1.9,0.8-2.7,1.4c-0.8,0.7-1.4,1.5-1.9,2.5c-0.5,1-0.7,2.2-0.7,3.6h-10.6
			c0-2.8,0.5-5.2,1.5-7.2c1-2.1,2.3-3.9,4-5.2c1.7-1.4,3.7-2.5,6-3.2c2.3-0.7,4.8-1.1,7.5-1.1c2.9,0,5.6,0.4,7.9,1.1
			c2.3,0.8,4.3,1.9,5.9,3.3c1.6,1.5,2.8,3.2,3.7,5.4c0.8,2.1,1.2,4.5,1.2,7.1c0,1.9-0.3,3.7-0.9,5.4c-0.6,1.7-1.4,3.2-2.5,4.7
			c-1,1.5-2.2,2.9-3.5,4.2c-1.3,1.4-2.7,2.7-4.1,4c-1.6,1.5-2.7,3-3.2,4.8c-0.6,1.7-0.8,3.7-0.8,5.9h-10V313.9z M462.8,327.5
			c0-0.8,0.1-1.6,0.4-2.3c0.3-0.7,0.7-1.3,1.2-1.8c0.5-0.5,1.1-0.9,1.9-1.2s1.6-0.4,2.6-0.4c1,0,1.8,0.1,2.6,0.4s1.4,0.7,1.9,1.2
			c0.5,0.5,0.9,1.1,1.2,1.8c0.3,0.7,0.4,1.5,0.4,2.3c0,1.6-0.5,2.9-1.6,4c-1.1,1.1-2.5,1.6-4.5,1.6c-1.9,0-3.4-0.6-4.4-1.6
			C463.3,330.5,462.8,329.1,462.8,327.5z"/>
	</g>
	<path class="st22" d="M973.9,412.8l44.3,6.3l-29.4-20l-1.5,6.4l-10.8,1.9L973.9,412.8z"/>
	<path class="st23" d="M1018.3,419.1l-36.9-19l-36.1-1.8L1018.3,419.1z"/>
	<path class="st23" d="M988.8,399.1l29.4,20l-22.8-31.3L988.8,399.1z"/>
	<path class="st11" d="M950.5,633.1c-41.6,0-82.8-18.4-110.3-49.1c-23.5-26.3-34.4-59-30.7-91.9l0.6,0.1l-0.6-0.1
		c5.1-45,20.3-80,45.3-103.7c23.6-22.6,55.8-35.1,95.6-37.1c46.6-2.4,82.4,10.9,106.6,39.4c10.5,12.5,18.8,28,24.7,46
		c5.3,16.4,8.6,35.1,9.8,55.4c1.2,21.5-0.7,41-5.7,58.1c-5.1,17.4-13.5,32.3-24.9,44.5C1036.8,620.2,999.7,633.1,950.5,633.1z
		 M960.9,352.2c-3.4,0-6.9,0.1-10.4,0.3c-39.5,2-71.5,14.4-94.9,36.8c-24.7,23.6-39.8,58.3-44.9,103.1c-3.7,32.6,7.1,64.9,30.4,91
		c27.2,30.5,68.2,48.7,109.5,48.7c48.9,0,85.7-12.8,109.5-38c11.3-12,19.6-26.8,24.6-44c5-16.9,6.9-36.3,5.6-57.7
		c-1.2-20.3-4.4-38.8-9.7-55.1c-5.8-17.9-14-33.3-24.5-45.6C1034.1,365.4,1002.1,352.2,960.9,352.2z"/>
	<path class="st11" d="M950.5,633.9c-41.8,0-83.3-18.4-110.9-49.3c-23.5-26.3-34.4-58.8-30.9-91.7l0.2-1.5
		c5.2-44.9,20.5-79.7,45.4-103.4c23.8-22.7,56.1-35.2,96.1-37.3c46.9-2.4,82.9,11,107.2,39.7c10.6,12.6,18.9,28.1,24.8,46.3
		c5.3,16.5,8.6,35.2,9.8,55.6c1.2,21.6-0.7,41.2-5.7,58.3c-5.1,17.5-13.6,32.6-25.1,44.7C1037.2,620.9,999.9,633.9,950.5,633.9z
		 M960.9,353c-3.4,0-6.8,0.1-10.3,0.3c-39.4,2-71.1,14.3-94.4,36.6c-24.6,23.5-39.6,58-44.7,102.6c-3.7,32.4,7.1,64.5,30.2,90.4
		c27.1,30.3,67.8,48.5,108.9,48.5c48.7,0,85.3-12.7,109-37.8c11.2-11.9,19.5-26.6,24.5-43.7c4.9-16.8,6.8-36.2,5.6-57.4
		c-1.2-20.2-4.4-38.7-9.7-55c-5.7-17.8-13.9-33.1-24.3-45.4C1033.7,366.1,1001.8,353,960.9,353z"/>
	<path class="st11" d="M955.5,639.4c-23.4,0-49.1-6.6-76.9-19.9c-37.6-17.9-66.9-52.2-78.5-91.7c-9.9-33.8-5.7-68,11.9-96.1
		c24-38.5,52.8-63.4,85.5-74.2c31.1-10.2,65.5-7.6,102.3,7.6c43.1,17.9,69.7,45.3,79.2,81.4c4.1,15.8,5,33.3,2.5,52.1
		c-2.3,17.1-7.3,35.3-15.1,54.2c-8.1,19.9-18.2,36.8-30.1,50c-12.1,13.5-26.1,23.4-41.6,29.4C982.5,637,969.5,639.4,955.5,639.4z
		 M812.5,432l0.5,0.3c-17.4,27.9-21.6,61.7-11.7,95.2c11.5,39.2,40.6,73.3,77.8,91c44.1,21,82.9,25.3,115.3,12.7
		c15.3-5.9,29.2-15.7,41.2-29.1c11.7-13.1,21.8-29.8,29.9-49.7c7.7-18.8,12.7-37,15-54c2.5-18.6,1.7-36-2.5-51.7
		c-9.4-35.8-35.8-62.9-78.6-80.6c-36.6-15.2-70.7-17.7-101.5-7.6c-32.5,10.7-61,35.5-84.9,73.7L812.5,432z"/>
	<path class="st11" d="M955.5,640.1c-23.4,0-49.4-6.7-77.2-20c-37.7-18-67.2-52.5-78.9-92.2c-10-34.1-5.7-68.4,11.9-96.8
		c24.1-38.6,53-63.7,85.9-74.5c31.2-10.3,65.8-7.7,102.8,7.7c43.3,18,70.1,45.6,79.7,81.9c4.2,15.9,5,33.6,2.5,52.4
		c-2.3,17.2-7.4,35.5-15.1,54.4c-8.1,20-18.3,36.9-30.2,50.2c-12.2,13.6-26.3,23.6-41.9,29.6C982.8,637.7,969.5,640.1,955.5,640.1z
		 M813.6,432.6c-17.3,27.7-21.4,61.3-11.6,94.6c11.4,39,40.4,72.9,77.4,90.5c43.9,20.9,82.5,25.2,114.6,12.7
		c15.2-5.9,29-15.6,40.9-28.9c11.7-13.1,21.7-29.7,29.7-49.4c7.6-18.7,12.7-36.8,14.9-53.8c2.5-18.5,1.7-35.8-2.4-51.4
		c-9.3-35.5-35.6-62.5-78.1-80.1c-36.4-15.1-70.4-17.7-101-7.6C865.8,369.9,837.4,394.6,813.6,432.6z"/>
	<path class="st11" d="M963.4,648c-33.9,0-68.7-16.3-103.7-48.5c-31.7-29.2-50.1-72.1-49.4-114.7c0.6-36.5,15.2-69,41.2-91.4
		l0.4,0.4l-0.4-0.4c35.5-30.7,71.6-46.5,107.3-47.2c33.8-0.6,67.1,12.5,98.8,38.9c37.1,30.9,55.1,66.1,53.4,104.8
		c-0.7,16.9-5.3,34.5-13.6,52.3c-7.5,16.2-18.1,32.7-31.5,49c-14.2,17.2-29.3,30.8-45.1,40.2c-16.1,9.7-33,15.2-50.2,16.3
		C968.2,647.9,965.8,648,963.4,648z M961,347.3c-0.7,0-1.4,0-2.1,0c-35.4,0.6-71.2,16.4-106.6,46.9c-25.7,22.2-40.2,54.4-40.8,90.6
		c-0.7,42.3,17.6,84.9,49.1,113.9c37.2,34.3,74.2,50.4,110.1,47.9c17-1.2,33.7-6.6,49.6-16.2c15.6-9.4,30.7-22.8,44.8-39.9
		c13.3-16.2,23.9-32.6,31.4-48.7c8.2-17.7,12.7-35.1,13.4-51.9c1.7-38.2-16.1-73.2-53-103.8C1026,360.3,993.8,347.3,961,347.3z"/>
	<path class="st11" d="M963.4,648.8c-34.1,0-69.1-16.4-104.2-48.7c-31.8-29.4-50.4-72.5-49.7-115.3c0.6-36.5,15.1-68.9,40.9-91.5
		l1.2-1c35.5-30.5,71.5-46.2,107.2-46.8c34-0.6,67.4,12.6,99.3,39.1c37.3,31.1,55.4,66.5,53.6,105.4c-0.7,17-5.3,34.7-13.6,52.6
		c-7.5,16.3-18.2,32.8-31.6,49.2c-14.2,17.3-29.4,30.9-45.3,40.4c-16.2,9.7-33.2,15.2-50.5,16.4
		C968.3,648.7,965.8,648.8,963.4,648.8z M961,348.1c-0.7,0-1.4,0-2.1,0c-35.2,0.6-70.9,16.3-106.1,46.7c-25.6,22.1-40,54-40.5,90
		c-0.7,42.1,17.6,84.4,48.8,113.3c34.6,31.9,69,48,102.3,48c2.4,0,4.7-0.1,7.1-0.3c16.9-1.2,33.4-6.6,49.3-16.1
		c15.6-9.3,30.6-22.7,44.6-39.8c13.3-16.2,23.8-32.5,31.2-48.6c8.2-17.6,12.6-34.9,13.4-51.6c1.7-38-16-72.7-52.7-103.2
		C1025.7,361.1,993.6,348.1,961,348.1z"/>
	<path class="st11" d="M921.5,645.5c-13.3,0-26-2.2-37.9-6.6c-34-12.6-61.3-42.8-81.2-89.6c-16.8-39.6-16-86.3,2.2-124.9
		c15.6-33,42.3-56.6,75.2-66.3c45-13.3,84.5-12.9,117.2,1.2c31.1,13.4,56,39,74,76.1c21.1,43.4,22.9,83,5.5,117.5
		c-7.6,15.1-19.1,29.3-33.9,42.1c-13.5,11.7-30,22.4-48.9,31.7c-20,9.9-39.4,16-57.7,18.1C931.2,645.2,926.3,645.5,921.5,645.5z
		 M880.1,358.6l0.2,0.6c-32.6,9.7-59,33-74.5,65.7c-18.1,38.3-18.9,84.6-2.2,124c19.8,46.5,46.9,76.5,80.5,89
		c16,5.9,33.5,7.9,51.9,5.7c18.1-2.1,37.4-8.1,57.3-18c18.8-9.3,35.2-19.9,48.7-31.5c14.7-12.7,26-26.8,33.6-41.7
		c17.3-34.2,15.5-73.3-5.5-116.4c-17.9-36.9-42.6-62.3-73.4-75.6c-32.5-14-71.7-14.4-116.4-1.1L880.1,358.6z"/>
	<path class="st11" d="M921.5,646.3c-13.4,0-26.2-2.2-38.2-6.7c-34.2-12.7-61.7-43-81.6-90.1c-16.9-39.9-16.1-86.8,2.2-125.5
		c15.7-33.2,42.6-56.9,75.7-66.7c45.2-13.4,84.8-13,117.7,1.2c31.2,13.5,56.3,39.2,74.4,76.5c21.2,43.6,23,83.4,5.5,118.1
		c-7.7,15.2-19.2,29.4-34.1,42.3c-13.6,11.7-30.1,22.4-49.1,31.8c-20.1,9.9-39.5,16-57.9,18.2C931.3,646,926.3,646.3,921.5,646.3z
		 M880.4,359.9c-32.4,9.6-58.7,32.8-74,65.3c-18,38.1-18.8,84.2-2.2,123.3c19.6,46.4,46.6,76.2,80.1,88.6
		c15.9,5.9,33.2,7.8,51.6,5.7c18-2.1,37.2-8.1,57-17.9c18.8-9.3,35.1-19.9,48.5-31.4c14.7-12.7,25.9-26.6,33.4-41.5
		c17.2-34,15.3-72.9-5.5-115.7c-17.8-36.7-42.4-62-73-75.2C964,347,925,346.7,880.4,359.9z"/>
	<path class="st11" d="M958.6,633.1c-41.6,0-76.8-21.8-104.3-52.6c-23.5-26.3-40.4-55.4-36.6-88.4c5.1-45,20.3-80,45.3-103.7
		c23.6-22.6,55.8-35.1,95.6-37.1c46.6-2.4,82.4,10.9,106.6,39.4c10.5,12.5,18.8,28,24.7,46c5.3,16.4,8.6,35.1,9.8,55.4
		c1.3,21.5-0.7,41-5.6,58.1c-5.1,17.4-13.5,32.3-24.9,44.5C1045,620.2,1007.8,633.1,958.6,633.1z M818.2,492.2l0.6,0.1
		c-3.7,32.6,14.1,61.7,37.4,87.8c27.2,30.5,61.1,51.9,102.4,51.9c48.9,0,85.7-12.8,109.5-38c11.3-12,19.6-26.8,24.6-44
		c5-16.9,6.9-36.3,5.6-57.7c-1.2-20.3-4.4-38.8-9.7-55.1c-5.8-17.9-14-33.3-24.5-45.6c-23.9-28.3-59.4-41.4-105.6-39
		c-39.5,2-71.5,14.4-94.9,36.8c-24.7,23.6-39.8,58.3-44.9,103.1L818.2,492.2z"/>
	<path class="st11" d="M958.6,633.9c-19.9,0-39.3-5-57.8-14.9c-16.6-8.9-32.5-21.7-47-38c-13.1-14.7-22.5-28.4-28.7-41.9
		c-7.3-16-10-31.4-8.2-47.1c5.1-45.2,20.5-80.3,45.5-104.2c23.8-22.7,56.1-35.2,96.1-37.3c46.9-2.4,82.9,11,107.2,39.7
		c10.6,12.6,18.9,28.1,24.8,46.3c5.3,16.5,8.6,35.2,9.8,55.6c1.3,21.6-0.7,41.2-5.7,58.4c-5.1,17.5-13.6,32.6-25.1,44.7
		C1045.4,620.9,1008,633.9,958.6,633.9z M819.6,492.4c-3.1,27.6,8.7,55.2,37.2,87.2c30.6,34.3,64.9,51.6,101.8,51.6
		c48.7,0,85.3-12.7,109-37.8c11.2-11.9,19.5-26.6,24.5-43.7c4.9-16.8,6.8-36.2,5.6-57.4c-1.2-20.2-4.4-38.7-9.7-55
		c-5.7-17.8-13.9-33.1-24.3-45.4c-23.7-28-59-41.1-105-38.8c-39.4,2-71.1,14.3-94.4,36.6C839.7,413.3,824.6,447.8,819.6,492.4z
		 M827.2,540.1c6.1,12.8,15.1,25.9,27.7,39.9c5.3,6,10.8,11.5,16.5,16.5c-5.4-4.8-10.6-10.1-15.8-15.9
		C843,566.4,833.6,553,827.2,540.1z"/>
	<path class="st24" d="M931,555c-0.1,0.1-0.1,0.3-0.2,0.4c-1.7,2.9-5.5,10.1-9.8,18c-2,3.7-4.1,7.6-6.1,11.3
		c-3.5,6.3-6.6,11.9-8.4,14.9c-1.9,3-3.2,5.1-3.8,6c-0.2,0.3-0.2,0.6-0.2,0.9c0.2,2.7,0.1,5.3-0.1,7.9
		c-2.6,25.6-19.8,39.3-19.8,39.3l-5.1,0.8c0,0,7.3-26.9,9.4-42.1c0.4-2.6,0.5-4.7,0.4-6c-0.4-4,0.3-9.8,1.7-16.4
		c2.4-11.9,6.7-26.4,10.5-38.1c0.3-0.7,7.5-26.8,7.5-26.8c6.1,5.3,28.2,7.5,28.2,7.5S938.7,541.4,931,555z"/>
	<path class="st4" d="M866.6,660.9H888c0,0,0.5-3.3-0.6-5.7c-1.1-2.4-2.6-2.5-0.2-6.2c-1.4,1.4-5.7,2-8.8,1.6
		c-0.4,0.6-2.5,4.7-3.7,5.7C873.3,657.2,867,656.8,866.6,660.9z"/>
	<path class="st25" d="M931,555c-0.1,0.1-0.1,0.3-0.2,0.4c-1.7,2.9-10.8,19.8-15.1,27.7c5-20.3,1.5-40.7,1.5-40.7L931,555z"/>
	<path class="st26" d="M848.4,454.6c0,0-0.8-9.3,9.5-9.3c0,0-3.1,0.8-4.7,2.5c0,0,6.6-3.9,13.8,2.1c7.2,5.9,2.7,20.9,4.9,23.7
		c2.2,2.8,10.7,3.4,9.6,12.6c-1,9.1-27,20.6-25.3,28.2c0,0-10.1-14.9-2.9-21.7c0,0-3.5,3.3-3.9,7.3c0,0-1-7.7,4-10.2
		c4.4-2.2,7.9-10.2,7.6-11.6C860.4,476.6,848.4,454.6,848.4,454.6z"/>
	<path class="st2" d="M862.9,493.4c0,0-14.7,37.1-17.8,35.7c-3.2-1.4-21.8-7.3-21.8-7.3s0.7,5.3,1,5.5c2.7,2.2,16.5,12.8,24.7,13.3
		c9.1,0.6,21.5-26.3,21.5-26.3L862.9,493.4z"/>
	<path class="st26" d="M851.3,453.2c-0.1-0.6,12.2,5.6,12.9,6.3c5.8,6.4,4.1,14.8,0.8,14.9c-2.1,0-1.7,3.6-1.7,3.6l-23.7-10
		C839.5,468,842.4,451.4,851.3,453.2z"/>
	<path class="st27" d="M859.3,494.1c0,0-3.2,3.3-3.2,13.1c0,0,4.4,6.9,15.6,8.6C871.7,515.8,862,494.1,859.3,494.1z"/>
	<path class="st24" d="M914.3,533.9l-0.1-4c8,1,27.5-9.5,27.5-9.5s8.3,5.5,9.5,21.4c0.5,7.7,4.1,40.5,4.5,50.3
		c0.1,3.6,0.2,6.1,0.2,7.1c0,0.3,0.1,0.6,0.3,0.8c1.7,2.1,3.1,4.3,4.3,6.6c12.2,22.6,5.8,53.4,5.8,53.4l-2.8-0.7
		c0,0-10.3-31.9-17-45.7c-1.1-2.3-2.2-4.1-3-5.2c-2.5-3.1-5.2-8.3-7.8-14.6C930.8,581.9,914.3,533.9,914.3,533.9z"/>
	<path class="st4" d="M949.4,660.9h21.4c0,0,0.5-3.3-0.6-5.7c-1.1-2.4-2.8-3.5-2.3-6.3c-1.4,1.4-3.6,3-6.7,2.6
		c-0.4,0.6-2.5,3.9-3.7,4.8C956.1,657.2,949.8,656.8,949.4,660.9z"/>
	<path class="st27" d="M873.2,520.4c2.9,0.5-0.5,2.8,3.5,3.2c5.6,0.6,11.5,1,14.5,2.2c1.1,0.4,1.9,1,2.1,1.7
		c1.3,4,7.1,10.1,7.1,10.1c37.3-1.7,41.4-17.3,41.4-17.3c-24.2-23.5-46.5-37.4-63.5-39.2c-2.9-0.3-6.6,1.5-9.2,2.7
		c-5.9,2.6-9.9,10.3-9.9,10.3S862.3,518.5,873.2,520.4z"/>
	<path class="st28" d="M876.7,523.6c5.6,0.6,11.5,1,14.5,2.2c1.2-18.6-7.5-32.6-7.5-32.6S877.9,516.6,876.7,523.6z"/>
	<path class="st2" d="M871.8,490.1c0,0,14.2-0.8,16.7,8.1c2.5,8.9-4.7,44.4-6.3,48.1c-2.8,6.7-16.7,25.7-16.7,25.7l-3.8-1.9
		c0,0,7.9-28.7,10-31.5C875,534,867.6,494,871.8,490.1z"/>
	<path class="st2" d="M862.7,567.4c0,0-1.2,4.2-3.5,6.5c-1.1,1.1-2,4.3-2.1,5.9c0,0-0.2,1.4,0.4,1.2c0.6-0.1,1.2-3.1,2.3-2.9
		c0,0-0.6,3.3-1.1,4.2c-0.6,0.9-0.9,3.8-0.1,4.1c1.9,0.8,4.8-2.8,6.5-5.1c1.7-2.3,0-11.6,0-11.6L862.7,567.4z"/>
	<path class="st29" d="M891.3,510.1c0,0.2-13.4,2.5-21.8-1.8c0,0-7-21.9,3-20.8c10,1.1,15.9,4.2,16.2,9
		C888.9,501.3,891.3,510.1,891.3,510.1z"/>
	<path class="st2" d="M869.1,483.9c0,0-3.9,14.7-9.9,10.3c0.2-0.7-0.9-2.8-2.1-4.9c-1.5-2.7-3.4-5.4-3.4-5.4l8-7l0.5-0.4
		C864.7,480.7,867.1,482.4,869.1,483.9z"/>
	<path class="st30" d="M853.8,483.9c0,0,1.8,2.7,3.4,5.4c5-3.1,5-9.3,4.6-12.4L853.8,483.9z"/>
	<path class="st2" d="M853.5,487.4c0,0,12.1-6.7,7.8-14.2c-4.3-7.5-5.7-13.4-13.6-9.4c-7.9,4-7.7,7.7-6.9,10.5
		C841.7,477.2,850.3,488.9,853.5,487.4z"/>
	<path class="st26" d="M838.8,469.9c0.6-3.3,2.2-3.6,3.4-3.4c4.5-7.4,11.8-4.5,11.8-4.5c3.9,4.9,9.5,5.7,9.5,5.7s-1.4,2.6-7.2,4.2
		c-1.8,0.5-3.8,0.2-5.7-0.4c4,2.2,8.2,3.1,8.2,3.1c-7.6,0.7-14.9-6.3-15.6-7c-0.4,1.1-1,3.3-0.6,5c0.5,2.2,2.5,6.3,1.3,6.8
		C843.9,479.5,838,474.9,838.8,469.9z"/>
	<path class="st2" d="M825.9,523.4c0,0-2.2,1-4.4-1.3c-1.1-1.1-3.1-1.8-2.1-2.4c1-0.6,3.8,0.7,4.5,0.9
		C824.6,520.9,825.9,523.4,825.9,523.4z"/>
	<path class="st19" d="M906.9,277.8c6.5-25.3,17.5-47.2,47.2-47.2c26.1,0,49.8,23,48,51.3c-1.6,26-24.2,48.1-51.9,45
		C924.4,323.9,899.4,306.7,906.9,277.8z"/>
	<g class="st20">
		<path class="st21" d="M947.1,309.9c0-0.9,0.1-1.8,0.5-2.6c0.3-0.8,0.8-1.5,1.3-2.1c0.6-0.6,1.3-1.1,2.1-1.4
			c0.8-0.3,1.8-0.5,2.9-0.5c1.1,0,2.1,0.1,2.9,0.5c0.8,0.3,1.5,0.8,2.1,1.4c0.6,0.6,1,1.3,1.3,2.1c0.3,0.8,0.5,1.7,0.5,2.6
			c0,1.8-0.6,3.3-1.8,4.5c-1.2,1.2-2.9,1.8-5,1.8s-3.8-0.6-5-1.8C947.7,313.2,947.1,311.7,947.1,309.9z M958.8,294.5h-10.3
			l-1.1-50.5H960L958.8,294.5z"/>
	</g>
	<path class="st19" d="M644.4,346.1c10.6-41.1,28.4-76.9,76.8-76.9c42.4,0,80.9,37.4,78.1,83.5c-2.6,42.4-39.3,78.3-84.3,73.2
		C672.8,421.2,632.3,393.2,644.4,346.1z"/>
	<path class="st23" d="M751.8,341.2c0.1,7.5-2.6,14.3-7,19.6c-3.8,4.6-5.9,10.3-5.9,16.3v8.6c0,2.4-0.9,4.6-2.4,6.4
		c-1.8,2.1-4.5,3.5-7.5,3.5h-15.8c-5.5,0-9.9-4.4-9.9-9.9v-8.6c0-5.9-2.1-11.7-5.9-16.3c-4.4-5.3-7-12.1-7-19.5
		c0-14.6,10.3-26.9,24-30c0.4-0.1,0.8-0.2,1.2-0.2c0.2-0.1,0.4-0.1,0.6-0.1c1.6-0.3,3.2-0.4,4.9-0.4
		C738,310.7,751.7,324.3,751.8,341.2z"/>
	<path class="st31" d="M729,395.6l0,0.3l-0.4,3.3l-0.1,0.9l-0.1,0.9l-0.4,3.3l-0.1,0.9l-0.1,0.9l-0.1,0.5c-0.2,1.7-2.2,3-4.5,3h-5.2
		c-0.6,0-1.1-0.1-1.6-0.2c-0.5-0.1-0.9-0.3-1.2-0.5l0,0c-0.3-0.2-0.6-0.4-0.8-0.6c-0.5-0.5-0.8-1-0.9-1.6l-0.2-1.3l-0.1-0.8v0
		l-0.1-0.8l-0.5-3.1l-0.1-0.8v0l-0.1-0.8l-0.5-3.3L729,395.6L729,395.6z"/>
	<path class="st32" d="M726.9,395.6L726.9,395.6H724c-4.8,1.4-9.5,2.7-11.7,3.3l0.1,0.8v0l0.1,0.8c1.8-0.5,6-1.7,16.4-4.7l0-0.3
		H726.9z"/>
	<path class="st32" d="M713.1,404.5l0.1,0.8c2-0.6,6.3-1.8,15.1-4.3l0.1-0.9l0.1-0.9c-5.6,1.6-12.3,3.5-15.5,4.5L713.1,404.5z"/>
	<path class="st32" d="M715.1,408.9L715.1,408.9c0.4,0.2,0.8,0.4,1.2,0.5c2.4-0.7,6-1.7,11.3-3.3l0.1-0.9l0.1-0.9
		c-4.8,1.4-10.2,2.9-13.6,3.9C714.5,408.5,714.8,408.7,715.1,408.9z"/>
	<path class="st31" d="M709.7,356.3l-1.4,0.2l6.6,39.2l1.4-0.2L709.7,356.3z"/>
	<path class="st31" d="M732.4,356.9l-7.1,38.6l1.4,0.2l7.1-38.6L732.4,356.9z"/>
	<path class="st31" d="M724.8,363.5c-0.2,0-0.4,0-0.6-0.1c-0.4-0.1-0.6-0.4-0.7-0.8c-0.2-0.9,0.5-2.5,1.5-3.8
		c-0.5-0.9-1.2-1.6-1.9-1.8c-1-0.3-2.6,0.6-3.7,1.9c0.2,0.3,0.4,0.6,0.6,0.9c0.6,1.1,1,2.4,0.4,3.1c-0.2,0.2-0.6,0.5-1.5,0.1
		c-1-0.4-1.4-1.3-1-2.4c0.2-0.6,0.6-1.1,1-1.7c-0.9-1.1-2-2-3.1-1.8c-0.6,0.1-1.1,0.3-1.5,0.6c0.7,1.3,0.9,3,0.4,3.9
		c-0.3,0.6-0.9,0.8-1.7,0.6c-0.5-0.2-0.8-0.9-0.7-1.9c0.1-1,0.6-2,1.4-2.7c-0.2-0.4-0.5-0.7-0.8-0.9c-1.9-1.5-3.5,0.1-3.6,0.2
		l-0.3-0.3c0,0,1.9-2,4.2-0.2c0.3,0.3,0.6,0.6,0.9,1c0.5-0.3,1-0.6,1.7-0.6c1.3-0.2,2.5,0.7,3.4,1.9c1.2-1.3,2.9-2.3,4.1-1.9
		c0.8,0.2,1.5,1,2,1.9c0.5-0.7,1.1-1.2,1.6-1.6c0.9-0.6,1.5-0.5,1.8-0.2c0.3,0.2,0.6,0.5,0.9,0.9c0.3-0.2,0.6-0.4,0.8-0.5
		c1-0.5,2-0.5,2.6,0.1l-0.3,0.3c-0.7-0.6-1.7-0.3-2.2-0.1c-0.3,0.1-0.5,0.3-0.8,0.5c0.7,1.2,0.8,2.8,0.4,3.6
		c-0.3,0.5-0.7,0.7-1.2,0.5c-0.9-0.3-1.1-1-1.2-1.4c-0.1-0.9,0.6-1.9,1.4-2.7c-0.2-0.3-0.5-0.6-0.8-0.8c-0.4-0.3-0.9,0-1.3,0.2
		c-0.6,0.4-1.1,1-1.6,1.6c0.6,1.2,1,2.6,0.7,3.5C726.1,362.9,725.7,363.5,724.8,363.5z M725.2,359.3c-0.8,1.2-1.4,2.6-1.3,3.3
		c0.1,0.2,0.2,0.4,0.4,0.4c0.8,0.2,1.3-0.1,1.5-0.7C726,361.5,725.7,360.3,725.2,359.3z M719.1,359.3c-0.4,0.5-0.7,1-0.9,1.5
		c-0.3,0.9-0.1,1.6,0.8,1.9c0.3,0.1,0.8,0.2,1,0c0.3-0.4,0.1-1.4-0.5-2.6C719.4,359.8,719.3,359.5,719.1,359.3z M713.9,357.9
		c-0.7,0.7-1.2,1.6-1.2,2.4c-0.1,0.7,0.1,1.3,0.4,1.4c0.5,0.2,0.9,0.1,1.2-0.4C714.7,360.6,714.5,359.1,713.9,357.9z M729.4,358.2
		c-0.7,0.7-1.2,1.6-1.2,2.3c0,0.5,0.3,0.9,0.9,1.1c0.3,0.1,0.5,0,0.7-0.3C730.1,360.6,729.9,359.3,729.4,358.2z"/>
	<path class="st33" d="M737,322.5c2.5,2.4,2.2,6.8-1,7.7c-2.4,0.7-6.1-0.3-7.9-3.4c-1.8-3.1-1-5.7,1.2-7
		C731.5,318.7,734.3,320.1,737,322.5z"/>
	<path class="st33" d="M720.4,305h-0.3c-0.5,0-1-0.4-1-1v-12.1c0-0.5,0.4-1,1-1h0.3c0.5,0,1,0.4,1,1V304
		C721.4,304.5,721,305,720.4,305z"/>
	<path class="st33" d="M757,319l-0.2-0.3c-0.3-0.5-0.1-1.1,0.4-1.3l5.9-3.4c0.5-0.3,1.1-0.1,1.3,0.4l0.2,0.3
		c0.3,0.5,0.1,1.1-0.4,1.3l-5.9,3.4C757.9,319.6,757.3,319.5,757,319z"/>
	<path class="st33" d="M761.1,335.9c0-0.6,0.5-1.1,1.1-1.1h15c0.6,0,1.1,0.5,1.1,1.1c0,0.6-0.5,1.1-1.1,1.1h-15
		C761.6,337,761.1,336.5,761.1,335.9z"/>
	<path class="st33" d="M740.1,310c-0.6-0.3-0.8-0.9-0.6-1.5l8-18.6c0.3-0.6,0.9-0.8,1.5-0.6c0.6,0.3,0.8,0.9,0.6,1.5l-8,18.6
		C741.4,310,740.7,310.3,740.1,310z"/>
	<path class="st33" d="M685.1,319l0.2-0.3c0.3-0.5,0.1-1.1-0.4-1.3L679,314c-0.5-0.3-1.1-0.1-1.3,0.4l-0.2,0.3
		c-0.3,0.5-0.1,1.1,0.4,1.3l5.9,3.4C684.2,319.6,684.8,319.5,685.1,319z"/>
	<path class="st33" d="M681,335.9c0-0.6-0.5-1.1-1.1-1.1h-15c-0.6,0-1.1,0.5-1.1,1.1c0,0.6,0.5,1.1,1.1,1.1h15
		C680.5,337,681,336.5,681,335.9z"/>
	<path class="st33" d="M702,310c0.6-0.3,0.8-0.9,0.6-1.5l-8-18.6c-0.3-0.6-0.9-0.8-1.5-0.6c-0.6,0.3-0.8,0.9-0.6,1.5l8,18.6
		C700.7,310,701.4,310.3,702,310z"/>
	<path class="st34" d="M660.2,407.6c0-0.6,0.5-7.3,10.7-7.6c0,0-5,0.6-5.9,2.8c0,0,3.4-2.7,6.2-1.8c2.8,0.9,4.4,5.7,4.4,7.3
		c0,1.6-1.5,6.8-3.3,7.2c-0.7,0.2-1.4,0.1-2.1,0c0.5,0.7,0.9,1.5,1.4,2.4c4.1,8.3-0.1,16.5-3.6,15.6c-2.2-0.6-2.8,3.2-2.8,3.2
		l-21.4-17.3C643.8,419.3,651.7,403,660.2,407.6z"/>
	<path class="st35" d="M652.8,653.2l4.6,1.7c0,0,19.8-27.4,22.2-51.5c0.4-4.3,0.3-8.5-0.7-12.3c0,0,0.2-1.1,0.5-3
		c0.1-0.9,0.4-2,0.6-3.3c0.7-3.7,1.5-8.7,2.5-14.5c2.3-13.2,5.3-30.1,7.7-42.5l-1.2-0.4l-13.3-4.3l-2.8-8.7l-9.9-2.6
		c0,0-2.2,4.3-4.2,24.7c-0.4,2.7-0.7,5.6-1,8.8c-0.8,9.8-0.8,21.9,1,35.7c0.4,3.6,1,7.2,1.7,11c0.5,2.8,0.6,6.5,0.4,10.8
		C660,622.6,652.8,653.2,652.8,653.2z"/>
	<path class="st36" d="M658,545.3l21.4,42.7c0.1-0.9,0.4-2,0.6-3.3c0.7-3.7,1.5-8.7,2.5-14.5c2.3-13.2,5.3-30.1,7.7-42.5l-1.2-0.4
		l-13.3-4.3l-2.8-8.7l-12.8-7.1c0,0,0,2-1.1,23.7C658.7,533.7,658.2,542.1,658,545.3z"/>
	<path class="st35" d="M667.4,517.3l0.5-4.3c8.3,2.2,31.5-8.1,31.5-8.1s7.1,9,6,26c-0.5,8.3-1.5,43.5-2.5,53.9
		c-0.4,3.8-0.7,6.5-0.8,7.5c0,0.3,0.1,0.6,0.3,0.9c1.5,2.5,2.6,5,3.6,7.6c9.7,25.8-1.5,57.5-1.5,57.5l-2.9-1.2
		c0,0-6.4-35.3-11.5-50.9c-0.9-2.6-1.7-4.7-2.5-6c-2.2-3.6-4.3-9.5-6.2-16.6c-3.6-13.3-6.5-30.6-8.4-44
		C671.5,528.6,667.4,517.3,667.4,517.3z"/>
	<path class="st1" d="M608.4,501.9l-0.7,4.9c0,0,2.9-0.4,3.4-0.4c1.5-0.1,6-0.4,10.2-0.8c6.3-0.6,10.8-0.8,13.8-2.6
		c4.5-2.8,11.9-11.2,16.7-19.6c0.1-0.2,0.3-0.4,0.3-0.6c2.5-4.5,4.3-8.9,4.4-12.5c0.1-2.2-0.1-4-0.6-5.7c-0.6-2.1-1.5-3.8-2.5-5.1
		c-0.1-0.2-0.3-0.4-0.5-0.6c-1.7-1.9-3.3-2.8-3.3-2.8c-0.8-0.3-3.6,3-4.5,4l-0.8,2.3c-0.8,0.8-9.1,27.5-12.9,31.7
		c-1.6,1.8-9.1,4.6-16,6.5C611.1,501.9,608.4,501.9,608.4,501.9z"/>
	<path class="st2" d="M651.5,465.6c2.6,1.2,5.8,2,9.6,2.2c14.3,0.8,17.6-11.7,18.1-20.1c-2.1-0.7-3.9-0.7-4.9-0.6
		c-0.8,0-1.7,0.1-2.5,0.2c-0.4,0-0.7-0.1-1-0.3c-1.8-1.4-4.6-5.7-6.2-12.4L664,435l-10.3,4.8c0,0,1.1,3.3,1.9,6.6
		c0.4,1.4,0.7,2.8,0.8,3.8c0.1,1-0.4,1.9-1.4,2.3C654.9,452.8,652.7,458.5,651.5,465.6z"/>
	<path class="st37" d="M702.4,509.6c-0.1,5.3-37.4,10-43.8,6.4c0,0-1.7-8-3.8-17c-0.6-2.7-1.3-5.5-2-8.2c-1.6-6.4-3.3-12.1-4.6-14.9
		c-0.1-0.3-0.3-0.6-0.4-0.8c-2.9-7.6,2.5-15.7-1.2-18.1c0,0,2.2-2,8.3-4.4c-0.1,0.4-0.6,5.4,0.4,7.3c2.1,3.9,10.2,1.8,13.8-2.9
		c2.2-2.8,3.9-5.7,4.6-8.3c0.2-0.6,0.4-1.5,0.4-1.5s6.8-0.9,10.6,0.6c0,0-1.5,3.3-2.1,6.9c0,0.3-0.1,0.7-0.1,1
		c-0.1,0.7-0.1,1.5,0,2.2c0,1,0.6,1.8,1.3,2.6c0.7,0.7,1.7,1.5,2.8,2.3c0.7,0.5,1.5,1.1,2.2,1.7c0.1,4.3-0.2,11.3,0.6,18.8
		c0.2,1.9,0.8,3.7,1.8,5.3c0.4,0.7,0.8,1.2,1.4,1.8C696.8,494.9,702.5,508.9,702.4,509.6z"/>
	<path class="st30" d="M653.7,439.8c0,0,1.1,3.3,1.9,6.6c6-1.7,7.9-8,8.4-11.4L653.7,439.8z"/>
	<path class="st2" d="M652.5,443.4c0,0,14.4-3.3,12.2-12.3c-2.2-9-1.8-15.4-11.2-13.7s-10.2,5.6-10.2,8.8
		C643.3,429.3,648.7,444,652.5,443.4z"/>
	<path class="st34" d="M642.5,421.1c1.5-3.2,3.4-3.1,4.5-2.5c6.8-6.3,13.4-1.1,13.4-1.1c2.6,6.2,8.1,8.7,8.1,8.7s-2.2,2.3-8.6,2.2
		c-1.9,0-3.9-0.9-5.7-2.2c3.5,3.5,7.5,5.6,7.5,5.6c-8-1.5-13.4-10.9-14-11.9c-0.7,1-2,3.2-2.1,5c-0.1,2.5,0.7,7.2-0.7,7.4
		C644.9,432.4,640.2,426,642.5,421.1z"/>
	<path class="st37" d="M646.7,457c0,0-1.3,0.7-3.6,7.9c0,0,2.7,3.3,5.9,3C649.1,467.9,649.5,457.8,646.7,457z"/>
	<path class="st4" d="M687.8,660.9h22.9c0,0,0.6-3.5-0.7-6.1c-1.1-2.5-2.9-3.7-2.5-6.8c-1.5,1.5-3.8,3.2-7.2,2.7
		c-0.4,0.7-2.6,4.2-4,5.1C694.9,656.9,688.2,656.5,687.8,660.9z"/>
	<path class="st4" d="M638.5,660.9h22.9c0,0,0.8-3.7-0.7-6.1c-1.3-2.2-0.8-3.5,0.1-5.3c-1,0.4-2.4,0.8-3.9,0.7
		c-1.1-0.1-2.3-0.6-3.4-1.2c-1,1.1-5.2,5.9-6.5,6.9C645.7,656.9,639,656.5,638.5,660.9z"/>
	<path class="st2" d="M617.8,485.8c0,0-2-2.7-3.3-3.3c-1.2-0.6-2.5-4.1-3.2-3c-0.4,0.7,0.7,3.1,0.4,3.6c-0.3,0.6-3-0.6-3.5-1.4
		c-0.3-0.5-3.2-4-3.2-2.4c-0.1,1.6,2.4,7.7,3.7,8.5c1.2,0.8,5.9,1.8,5.9,1.8L617.8,485.8z"/>
	<path class="st38" d="M680.3,471c-5.2,12.7-25.2,28.4-25.2,28.4l-0.3-0.4c-0.6-2.7-1.3-5.5-2-8.2l21.3-19.8L680.3,471L680.3,471z"
		/>
	<path class="st2" d="M615.2,486.1l-0.7,3.6c0,0,11.4,2.6,13.9,3.2h0c4.3,0.8,9.3,1.8,13.5,2.2c3,0.3,5.7,0.4,7.7,0.1
		c0.2,0,0.4-0.1,0.6-0.1c4.9-1,12.9-6.8,20.1-13.6c1-1,2-1.9,2.9-2.8c3.5-3.5,6.6-7,9-10.2c1.4-1.9,2.6-3.7,3.5-5.3
		c0.3-0.6,0.6-1.1,0.8-1.6c4.1-9.1,0.2-12.4,0.2-12.4c-0.1-0.1-0.1-0.1-0.3-0.2c-0.7-0.5-1.8-0.3-3.1,0.3c-1.7,0.8-3.7,2.4-6.1,4.4
		c-3.6,3.2-25.5,29.8-30.6,30.8C642.3,485.2,615.2,486.1,615.2,486.1z"/>
	<path class="st37" d="M684.5,447.6c0,0,4.4,1.2,4.8,5.9c0.4,4.7-0.2,19.1-0.2,19.1s-14.5-4.2-20.5-13.1
		C668.6,459.6,679.3,447.7,684.5,447.6z"/>
	<path class="st39" d="M1248.6,665.2H188.5c-0.8,0-1.5-0.7-1.5-1.5v-1.4c0-0.8,0.7-1.5,1.5-1.5h1060.1c0.8,0,1.5,0.7,1.5,1.5v1.4
		C1250,664.6,1249.4,665.2,1248.6,665.2z"/>
</g>
</svg>
