<svg id="trippal_blue" xmlns="http://www.w3.org/2000/svg" width="200.997" height="75" viewBox="0 0 200.997 75">
  <g id="Group_1" data-name="Group 1">
    <path id="Path_1" data-name="Path 1" d="M163.7,836c.249.374.518.747.786,1.112C164.208,836.757,163.949,836.383,163.7,836Z" transform="translate(-157.271 -778.074)" fill="#4bc56b"/>
    <path id="Path_2" data-name="Path 2" d="M141.733,785.757a38.414,38.414,0,0,1-10.523-11.664,7.979,7.979,0,0,1-.479-.728q-.144-.244-.316-.546c-.105-.2-.211-.412-.326-.623-.211-.431-.46-.872-.652-1.294s-.383-.805-.537-1.1a35.525,35.525,0,0,0,2.837,5.559c.489.776,1.006,1.543,1.553,2.291-.077-.105-.153-.2-.23-.307.585.8,1.2,1.581,1.85,2.348a.009.009,0,0,0,.01.01c.738.863,1.524,1.706,2.358,2.511a36.637,36.637,0,0,0,9.661,6.776c1.313.613,2.521,1.246,3.939,1.8.355.134.719.278,1.093.412s.776.24,1.2.364.853.22,1.313.316a12.793,12.793,0,0,0,1.457.249,37.242,37.242,0,0,1-7.418-2.406A38.178,38.178,0,0,1,141.733,785.757Z" transform="translate(-125.806 -718.453)" fill="#4bc56b"/>
    <path id="Path_3" data-name="Path 3" d="M100.392,652.962c-.067-.518-.125-1.035-.192-1.562.105.949.22,2.013.441,3.077-.048-.249-.086-.508-.134-.757S100.42,653.221,100.392,652.962Z" transform="translate(-99.857 -610.925)" fill="#4bc56b"/>
    <path id="Path_4" data-name="Path 4" d="M456.9,978.544a32.127,32.127,0,0,0,8.233-.249,37.144,37.144,0,0,0,7.945-2.195,36.343,36.343,0,0,1-14.28,2.482C458.156,978.582,457.523,978.592,456.9,978.544Z" transform="translate(-422.289 -904.982)" fill="#4bc56b"/>
    <path id="Path_5" data-name="Path 5" d="M279.9,936.8c.335.23.671.451,1.016.671C280.571,937.251,280.226,937.03,279.9,936.8Z" transform="translate(-262.301 -869.448)" fill="#4bc56b"/>
    <path id="Path_6" data-name="Path 6" d="M269.773,929.567c-.364-.249-.719-.5-1.073-.767C269.055,929.068,269.409,929.318,269.773,929.567Z" transform="translate(-252.177 -862.215)" fill="#4bc56b"/>
    <path id="Path_7" data-name="Path 7" d="M295.382,946.637a33.759,33.759,0,0,0,6.891,2.338A34.887,34.887,0,0,1,291.5,944.5,34.519,34.519,0,0,0,295.382,946.637Z" transform="translate(-272.782 -876.41)" fill="#4bc56b"/>
    <path id="Path_8" data-name="Path 8" d="M836.355,553.112c.038-.633.115-1.3.144-1.62a43.88,43.88,0,0,0,.3-5.53c-.048-.316-.172-.9-.22-1.572s-.153-1.332-.23-1.984c-.115-.642-.22-1.284-.345-1.907a36.3,36.3,0,0,1,.057,13.791C836.153,553.879,836.249,553.486,836.355,553.112Z" transform="translate(-764.998 -510.573)" fill="#4bc56b"/>
    <path id="Path_9" data-name="Path 9" d="M171.127,254.115a39.532,39.532,0,0,0-1.335-5.857c-.163-.472-.317-.935-.461-1.379-.163-.435-.336-.85-.49-1.247-.077-.2-.154-.378-.221-.557s-.154-.34-.23-.5c-.154-.321-.278-.6-.394-.841a38.493,38.493,0,0,0-11.1-13.273c-.3-.227-.6-.453-.9-.671s-.624-.425-.941-.642l-.471-.321-.49-.3c-.326-.2-.653-.4-.97-.6A38.974,38.974,0,0,0,149,225.84a36.579,36.579,0,0,0-4.417-1.606c-.768-.208-1.527-.435-2.3-.6-.394-.085-.778-.179-1.171-.255s-.787-.142-1.191-.208a36.974,36.974,0,0,0-17.485,1.341l-1.066.359c-.355.113-.7.274-1.047.406s-.7.265-1.037.425l-1.018.463c-.346.151-.672.321-1.008.491l-1,.51-.97.557c-.326.189-.643.368-.96.576l-.941.6c-.317.2-.6.425-.912.642s-.6.425-.893.652l-.874.69c-.3.227-.567.463-.845.708l-.835.727-.8.765c-.269.255-.528.5-.778.775a37.71,37.71,0,0,0-5.262,6.821,39.131,39.131,0,0,0-5.521,22.531,48.347,48.347,0,0,1,.307-7.435,32.108,32.108,0,0,1,1.757-7.18l-.278,1.3c.173-.378.451-1.266.835-2.2.086-.236.182-.472.278-.718s.2-.463.307-.69c.2-.444.374-.869.547-1.2-.125.3-.24.633-.384.964s-.3.671-.442,1.011c.307-.671.307-.671.615-1.351a43.68,43.68,0,0,0-1.584,4.638,37.9,37.9,0,0,0-1.008,5.167c-.058.406-.077.8-.115,1.181s-.077.737-.077,1.077c-.019.68-.038,1.275-.029,1.757.038.954.1,1.436.182,1.162.163-.529.163-3.25.739-6.651a39.621,39.621,0,0,1,1.354-5.375,35.061,35.061,0,0,1,2.189-5.149c-.077.17-.163.34-.24.51s-.144.35-.221.529c-.144.35-.3.709-.451,1.067-.134.368-.278.737-.413,1.105-.067.189-.144.368-.211.557s-.125.378-.182.567a39.482,39.482,0,0,0-1.277,4.7l-.221,1.209c-.086.406-.115.812-.182,1.219-.125.812-.173,1.625-.25,2.428a33.853,33.853,0,0,0,.048,4.742c-.01-.359-.01-.68-.01-.992.019-.312.029-.614.048-.935s.019-.661.048-1.049.058-.831.077-1.351a34.628,34.628,0,0,1,1.373-7.727,25.825,25.825,0,0,1,2.775-6.754c.106-.208.211-.406.326-.6.221-.406.4-.8.634-1.219.259-.444.518-.784.72-1.086s.384-.567.6-.831c.394-.529.8-1.086,1.488-2.012.029,0-.01.076-.077.189.2-.283.48-.642.787-.992s.6-.718.855-1.02a.347.347,0,0,0,.25-.1,35,35,0,0,1,12.617-8.493c.355-.142.72-.274,1.075-.416.365-.123.73-.236,1.085-.359l.538-.179.547-.151c.365-.1.73-.2,1.095-.3.624-.151,1.258-.3,1.9-.435l.979-.17c.326-.057.663-.123,1-.151.672-.076,1.267-.246,1.584-.293a41.418,41.418,0,0,1,5.579.085c.163,0,.413.019.7.028s.624.028.941.057c.374.085.778.17,1.2.246a34.475,34.475,0,0,1,7.413,2.022v-.009c.3.113.6.236.9.359.3.142.615.274.922.416.634.274,1.258.614,1.892.945.317.161.624.359.941.538s.634.359.931.557c.6.4,1.219.775,1.8,1.2.97.68,1.863,1.389,2.66,2.059.019.019.038.028.058.047l.019.019.586.529.566.548.566.548c.182.189.355.387.538.576-.086-.142-.086-.2-.077-.246-.278-.265-.6-.567-.931-.879.538.482,1.018.926,1.4,1.285.154.189.317.368.471.576s.317.406.48.623.336.425.509.642.336.463.509.7a35.013,35.013,0,0,1,2.439,3.561c.346.633.73,1.238,1.047,1.889l.49.964.442.992c.125.208.077.009.1-.028a33.742,33.742,0,0,1,1.248,3.628,34.483,34.483,0,0,1,1.373,6.83c.086.548.125,1.1.211,1.644-.01.312-.029.7-.048,1.162,0,.435.019.879,0,1.313s-.038.879-.048,1.323c-.01.293-.048.623-.077.973s-.048.737-.106,1.134-.106.822-.163,1.266-.154.9-.23,1.379a35.114,35.114,0,0,1-1.738,6.14,6.893,6.893,0,0,1-.24.737c-.25.6-.518,1.171-.787,1.738-.288.557-.557,1.105-.855,1.625A33.32,33.32,0,0,1,161,281.388c-.134.17-.259.35-.394.51l-.4.482c-.269.312-.5.614-.759.888-.509.538-.931,1.03-1.325,1.408-.451.463-.413.491-.1.264.154-.113.384-.283.653-.5.25-.227.547-.491.855-.756s.615-.567.9-.86.567-.548.787-.784c.442-.472.739-.765.672-.633a20.49,20.49,0,0,1-3.927,4.771,36.864,36.864,0,0,1-3.361,2.768c-.634.482-1.335.926-2.045,1.408-.739.444-1.5.935-2.324,1.37-1.805.973,1.354-.586,1.44-.6a8.091,8.091,0,0,1-.96.652c-.6.312-1.191.633-1.805.9-.365.161-.711.34-1.075.491l-1.1.444c.192-.076.384-.151.586-.227a27.989,27.989,0,0,0,3.3-1.559c-.374.227-.787.482-1.239.718-.48.246-.989.52-1.488.756s-1.008.463-1.46.671a35.843,35.843,0,0,0,18.82-15.6,36.824,36.824,0,0,0,3.341-7.539,34.767,34.767,0,0,1-5.636,10.618,36.447,36.447,0,0,0,7.259-20.084c0,.4-.038.8-.067,1.2s-.048.8-.1,1.2c-.106.794-.182,1.6-.336,2.381a35.792,35.792,0,0,1-1.123,4.686,36.311,36.311,0,0,0,1.671-8.672,37.935,37.935,0,0,0-.422-8.8,34.8,34.8,0,0,1,.25,12.413,35.723,35.723,0,0,0,.413-8.417c-.038-1.077-.173-2.144-.278-3.136-.154-.983-.269-1.889-.413-2.626a42.86,42.86,0,0,1,.922,7.189,37.429,37.429,0,0,0-3.073-14.085,38.1,38.1,0,0,1,2.487,7.813,33.607,33.607,0,0,1,.634,8.162c-.01-.312.01-.623-.01-.935s-.029-.633-.038-.945a37.247,37.247,0,0,1-4.388,18.393,38.541,38.541,0,0,1-3.447,5.281,30.6,30.6,0,0,0,4.292-6.745,45.8,45.8,0,0,0,2.794-8.011,36.109,36.109,0,0,1-5.473,12.876,37.011,37.011,0,0,1-23.62,15.568,38.017,38.017,0,0,1-14.115.113l1.21.227c.4.076.816.113,1.219.18.816.132,1.632.179,2.458.255a37.4,37.4,0,0,0,4.935,0,39.288,39.288,0,0,0,4.916-.623c.807-.18,1.623-.331,2.429-.557.4-.113.807-.208,1.2-.331l.826-.265c-.49.161-1.008.35-1.546.491-.278.085-.567.161-.845.246a36.264,36.264,0,0,0,5.2-1.785q1.152-.5,2.276-1.077a37.869,37.869,0,0,1-13.049,4.072c-.451.066-.855.094-1.219.132s-.691.066-.979.094c-.576.047-1,.066-1.3.094-.6.057-.682.113-.442.161a11.761,11.761,0,0,0,1.479.1c.682,0,1.5-.038,2.237-.1a38.1,38.1,0,0,0,19.684-7.9,36.928,36.928,0,0,0,11.973-16.447c.144-.378.259-.765.384-1.143s.25-.765.355-1.152c.2-.784.432-1.549.586-2.343l.25-1.181.192-1.19.1-.6.067-.6.134-1.2A44.293,44.293,0,0,0,171.127,254.115Zm-35.46-30.976c-.6-.009-1.181-.028-1.757-.038.586,0,1.171.019,1.767.028.6.028,1.181.085,1.776.132C136.849,223.224,136.253,223.167,135.668,223.139Zm23.726,10.713-.931-.831c.23.2.778.661,1.143,1a37.773,37.773,0,0,0-10.226-7.3,36.592,36.592,0,0,0-11.887-3.4c.653.076.97.085,1.277.094-.442-.047-.874-.123-1.315-.161.49.038.97.113,1.45.161.144.009.3.019.49.038s.413.076.711.142a29.115,29.115,0,0,1,5.646,1.464,40.505,40.505,0,0,1,7.6,3.76,33.106,33.106,0,0,1,6.145,4.95c.807.86.576.68.125.255.221.236.442.463.672.7C159.98,234.437,159.692,234.135,159.394,233.851Zm8,10.354c-.115-.274-.24-.548-.374-.8C167.152,243.657,167.277,243.931,167.392,244.205Zm2.794,16.4a36.933,36.933,0,0,0-.269-5.045,34.714,34.714,0,0,0-1.143-5.687,37.041,37.041,0,0,0-4.839-10.486c.192.264.4.557.615.86s.432.623.643.973l-.259-.444-.278-.425-.557-.86c-.374-.567-.787-1.105-1.181-1.663-.432-.529-.835-1.077-1.277-1.587-.336-.378-.663-.765-1-1.143a30.671,30.671,0,0,1,3.341,4.062,36.3,36.3,0,0,1,3.13,5.7c.1.217.192.435.288.661A36.8,36.8,0,0,1,170.186,260.6Zm-16.323,31.042a39.081,39.081,0,0,0,3.533-2.532A34.092,34.092,0,0,1,153.863,291.647Zm16.208-21.529c-.125.359-.221.709-.355,1.049s-.259.671-.384,1l-.192.491-.211.491c-.134.331-.269.652-.4.992a37.98,37.98,0,0,1-2.66,5.29,35.749,35.749,0,0,1-3.457,4.771c-.624.756-1.3,1.455-1.968,2.154-.346.331-.691.671-1.037,1s-.711.633-1.066.954c-.3.255-.6.5-.893.746a36.682,36.682,0,0,0,3.178-2.9,36.311,36.311,0,0,1-4.714,4.043c-.413.283-.826.6-1.258.86s-.864.548-1.306.822c-.451.255-.912.51-1.383.775s-.97.482-1.469.737c.288-.17.672-.378,1.085-.6s.845-.491,1.267-.737.807-.5,1.133-.718a6.391,6.391,0,0,0,.7-.52c-.182.123-.374.246-.566.368.2-.132.4-.265.6-.406-.01.009-.029.019-.038.038a38.369,38.369,0,0,0,10.975-11.289,37.39,37.39,0,0,0,5.425-14.52A19.964,19.964,0,0,1,170.071,270.118Z" transform="translate(-96.619 -222.684)" fill="#4bc56b"/>
    <path id="Path_10" data-name="Path 10" d="M579.5,997.544c.125-.029.249-.058.364-.1.058-.019.115-.029.173-.048C579.864,997.448,579.682,997.5,579.5,997.544Z" transform="translate(-533.134 -924.24)" fill="#4bc56b"/>
    <path id="Path_11" data-name="Path 11" d="M702.469,767.745a34.521,34.521,0,0,0,4.169-7.245h-.01A34.853,34.853,0,0,1,695.3,774.886c.958-.661,1.821-1.3,2.578-1.888A56.252,56.252,0,0,0,702.469,767.745Z" transform="translate(-637.783 -710.044)" fill="#4bc56b"/>
    <path id="Path_12" data-name="Path 12" d="M245,906.2a34.172,34.172,0,0,0,10.236,6.335,35.331,35.331,0,0,0,4.629,1.418c.786.2,1.581.326,2.377.479.393.067.8.105,1.2.163s.8.115,1.2.134a36.112,36.112,0,0,1-5.377-.978,37.031,37.031,0,0,1-5.137-1.792A36.107,36.107,0,0,1,245,906.2Z" transform="translate(-230.743 -841.781)" fill="#4bc56b"/>
    <path id="Path_13" data-name="Path 13" d="M582.151,954.2l-.891.355-.91.307c-.6.22-1.227.383-1.85.556.623-.153,1.255-.307,1.859-.508.307-.1.613-.192.92-.278.3-.105.6-.22.9-.326C582.142,954.277,581.941,954.315,582.151,954.2Z" transform="translate(-532.226 -885.18)" fill="#4bc56b"/>
    <path id="Path_14" data-name="Path 14" d="M480.118,978.1c-.47.038-.939.038-1.409.038a13.8,13.8,0,0,1-1.409-.019q.345.029.633.057c.192.01.364.029.518.048C479.006,978.177,479.562,978.167,480.118,978.1Z" transform="translate(-440.745 -906.79)" fill="#4bc56b"/>
    <path id="Path_15" data-name="Path 15" d="M297.772,923.768c.537.316,1.112.594,1.677.9.144.077.4.163.728.288-.69-.3-1.351-.661-2.032-1.006-.335-.182-.652-.374-.987-.565s-.652-.374-.958-.585c.125.086.249.172.374.249s.259.153.393.24C297.235,923.452,297.5,923.615,297.772,923.768Z" transform="translate(-277.035 -856.79)" fill="#4bc56b"/>
  </g>
  <g id="Group_2" data-name="Group 2" transform="translate(25 14)">
    <path id="Path_16" data-name="Path 16" d="M466.405,563.011a.506.506,0,1,0-.357-.148A.509.509,0,0,0,466.405,563.011Z" transform="translate(-455.744 -542.865)" fill="#fff"/>
    <path id="Path_17" data-name="Path 17" d="M443.329,473.119v-2.85a1.568,1.568,0,0,0-1.569-1.569h-6.092a1.568,1.568,0,0,0-1.569,1.569v2.85c.471-.1.959-.183,1.482-.244v-1.412a1.062,1.062,0,0,1,1.063-1.063h4.14a1.069,1.069,0,0,1,1.072,1.063v1.412C442.379,472.936,442.867,473.023,443.329,473.119Z" transform="translate(-426.719 -457.643)" fill="#fff"/>
    <path id="Path_18" data-name="Path 18" d="M373.1,429.678c0-12.319-.026-18.655-5.661-20.877V396.5h-1.3v11.886c-.148-.035-.287-.086-.435-.121-.47-.1-.957-.182-1.478-.242a26.455,26.455,0,0,0-3.13-.173,24.728,24.728,0,0,0-3.13.173c-.522.061-1.009.147-1.478.242-.157.035-.287.086-.435.121V396.5h-1.3v12.3c-5.643,2.222-5.661,8.558-5.661,20.877,0,3.752,1.017,6.025,2.722,7.391-.017.19-.026.406-.026.657,0,1.063.583,1.919,1.287,1.919a2.261,2.261,0,0,0,1.7-1.158,33.413,33.413,0,0,0,12.661,0,2.261,2.261,0,0,0,1.7,1.158c.713,0,1.287-.864,1.287-1.919,0-.251-.009-.467-.026-.657C372.083,435.7,373.1,433.43,373.1,429.678ZM358.265,411l1.183-1.176a.55.55,0,0,1,.583-.1l1.052.493a2.507,2.507,0,0,1,.583.406l2.235,2.222a.364.364,0,0,1,0,.51l-2.087,2.075a.369.369,0,0,1-.513,0l-2.235-2.222a2.258,2.258,0,0,1-.409-.579l-.5-1.046A.574.574,0,0,1,358.265,411ZM369.691,431.5H352.5a.713.713,0,1,1,0-1.426h17.191a.714.714,0,0,1,.713.709A.705.705,0,0,1,369.691,431.5Zm-15.435-2.723v-4.608h4.635v4.608Zm9.861,0v-9.4h3.817v9.4Zm5.574-10.927H352.5a.713.713,0,1,1,0-1.426h17.191a.714.714,0,0,1,.713.709A.705.705,0,0,1,369.691,417.852Z" transform="translate(-349.1 -391.646)" fill="#fff"/>
    <path id="Path_19" data-name="Path 19" d="M414.44,343.876a1.184,1.184,0,0,1,1.18-1.185,20.24,20.24,0,0,0,3.593.488,21.329,21.329,0,0,0,3.654-.488,1.184,1.184,0,0,1,1.18,1.185v1.081h1.64v-2.414a1.739,1.739,0,0,0-1.736-1.743h-9.417a1.745,1.745,0,0,0-1.736,1.743v2.414h1.64Z" transform="translate(-407.249 -340.8)" fill="#fff"/>
  </g>
  <path id="Path_20" data-name="Path 20" d="M918.6,156.123c2.036-.142,4.033-.291,6.005-.457s4.009-.339,6.14-.527a1,1,0,0,1,.927.74c.143.449-.048.716-.57.811q-2.626.283-6.037.779a64.763,64.763,0,0,0-6.465,1.268c.1,1.456.143,2.952.143,4.48s.032,3.039.1,4.519a41.3,41.3,0,0,0,.428,4.306,17.376,17.376,0,0,0,1.03,3.85A3.723,3.723,0,0,0,922.3,177.3a3.463,3.463,0,0,0,1.886-.1,4.887,4.887,0,0,0,1.632-.992,17.085,17.085,0,0,0,1.315-1.307c.333-.331.6-.331.816,0s.008.827-.6,1.48a11.112,11.112,0,0,1-1.062,1.055,5.777,5.777,0,0,1-1.529.953,6.433,6.433,0,0,1-4.365.252,3.673,3.673,0,0,1-2.416-2.614,25.1,25.1,0,0,1-1.173-5.117q-.392-2.929-.531-6.109t-.357-5.716q-3.125.283-4.579.5c-.967.142-1.672.236-2.092.283a1.441,1.441,0,0,1-.856-.071,9.6,9.6,0,0,1-.784-.638,2.144,2.144,0,0,0,.032-.669,1.942,1.942,0,0,1,0-.527.751.751,0,0,1,.285-.425,2.237,2.237,0,0,1,.959-.354,13.793,13.793,0,0,1,3.09-.315,30.771,30.771,0,0,0,3.945-.315c-.047-1.5-.1-2.685-.143-3.527s-.1-1.59-.143-2.22-.079-1.26-.1-1.874-.032-1.409-.032-2.4a.56.56,0,0,1,.388-.527,2.575,2.575,0,0,1,.887-.213,2.018,2.018,0,0,1,.927.142.97.97,0,0,1,.57.527,7.609,7.609,0,0,1,.285,1.874c.047.827.079,1.693.1,2.614s.032,1.85.032,2.787-.032,1.732-.079,2.393Zm10.513-1.275c-.047-.425.174-.527.673-.315s1.006.433,1.529.669c.19,1.079.333,1.945.428,2.574s.166,1.236.214,1.8.1,1.173.143,1.834.119,1.527.214,2.614a16.307,16.307,0,0,1,1.561-3,8.671,8.671,0,0,1,2.377-2.362,10.134,10.134,0,0,1,3.478-1.449,18.135,18.135,0,0,1,4.865-.315,1.284,1.284,0,0,1-.388.953,3.56,3.56,0,0,1-1.814.6,9.151,9.151,0,0,0-3.589,1.378,12.4,12.4,0,0,0-2.63,2.362,12.61,12.61,0,0,0-1.775,2.858c-.452,1.016-.816,1.945-1.1,2.787-.048.425-.1,1.023-.174,1.8s-.119,1.6-.143,2.472-.048,1.716-.071,2.543a9.06,9.06,0,0,0,.1,1.945.447.447,0,0,1-.317.527,3.248,3.248,0,0,1-.887.244,2.013,2.013,0,0,1-.927-.071q-.428-.142-.428-.5a105.591,105.591,0,0,0-.388-12.525q-.523-5.267-.951-9.431ZM946.1,146.1q.713-.142.856.85a1.794,1.794,0,0,1-.285,1.48,3.563,3.563,0,0,0-1,1.094,1.245,1.245,0,0,1-1,.6,2.73,2.73,0,0,0-.745-.031c-.214.024-.388-.362-.531-1.165a5.755,5.755,0,0,1,.887-1.551A4.155,4.155,0,0,1,946.1,146.1Zm.206,9.172q.357,3.389.5,7.448t.5,8.5c.19,1.5.38,2.685.57,3.527s.333,1.645.428,2.4a3.436,3.436,0,0,1-1.775-.031,6.857,6.857,0,0,1-1.2-.6c-.1-.756-.2-2-.317-3.74s-.238-3.637-.357-5.684-.238-4.039-.357-5.968-.222-3.456-.317-4.59a1.132,1.132,0,0,0,.46-.425,2.772,2.772,0,0,1,.388-.5,1.676,1.676,0,0,1,.57-.354,1.552,1.552,0,0,1,.911.008Zm21.312,2.543c.19.094.412.213.673.354a2.617,2.617,0,0,1,.745.638,3.669,3.669,0,0,1,.6,1.094,5.057,5.057,0,0,1,.246,1.732,14.247,14.247,0,0,1-1.846,6.637,19.139,19.139,0,0,1-4.08,5.015,16.928,16.928,0,0,1-4.936,3.039,8.544,8.544,0,0,1-4.334.709q0,6.849.1,11.431t.143,7.518c.024,1.952.024,3.425,0,4.409a8.574,8.574,0,0,1-.214,2.047c-.119.378-.333.551-.642.527a10.115,10.115,0,0,1-1.173-.173q-.143.213-.214-.354c-.048-.331-.079-.921-.1-1.763s-.032-2.165-.032-3.952c0-.142-.008-.953-.032-2.433s-.048-3.338-.071-5.574-.071-4.692-.143-7.377-.151-5.29-.246-7.833-.2-4.9-.317-7.062-.269-3.834-.46-5.015q0-.142-.071-.709l-.174-1.409s-.1-.614-.285-1.834a8.544,8.544,0,0,0-.388-1.905,2.656,2.656,0,0,1,1.632.244,7.962,7.962,0,0,1,.856.74,27.676,27.676,0,0,1,.816,4.306q.392,2.964.887,8.046a9.312,9.312,0,0,1,.745-1.976,19.539,19.539,0,0,1,1.6-2.716,27.206,27.206,0,0,1,2.274-2.858,15.878,15.878,0,0,1,2.7-2.4,9.244,9.244,0,0,1,2.876-1.378,4.1,4.1,0,0,1,2.86.236Zm-8.953,15.879a13.75,13.75,0,0,0,5.15-3.456,15.035,15.035,0,0,0,2.733-4.2,9.906,9.906,0,0,0,.856-3.708c0-1.079-.214-1.763-.642-2.047a2.473,2.473,0,0,0-2.7-.213,11.357,11.357,0,0,0-4.262,3.708c-.761.968-1.513,2.039-2.274,3.212a27.245,27.245,0,0,0-1.957,3.566,7.747,7.747,0,0,0-.816,3.141,1.53,1.53,0,0,0,.856.5,2.96,2.96,0,0,0,1.173.071,6.763,6.763,0,0,0,1.886-.575Zm29.9-15.879c.19.094.412.213.673.354a2.617,2.617,0,0,1,.745.638,3.669,3.669,0,0,1,.6,1.094,5.057,5.057,0,0,1,.246,1.732,14.248,14.248,0,0,1-1.846,6.637,19.139,19.139,0,0,1-4.08,5.015,16.928,16.928,0,0,1-4.936,3.039,8.544,8.544,0,0,1-4.334.709q0,6.849.1,11.431t.143,7.518c.024,1.952.024,3.425,0,4.409a8.515,8.515,0,0,1-.214,2.047c-.119.378-.333.551-.642.527a10.115,10.115,0,0,1-1.173-.173q-.143.213-.214-.354c-.047-.331-.079-.921-.1-1.763s-.032-2.165-.032-3.952c0-.142-.008-.953-.032-2.433s-.048-3.338-.071-5.574-.071-4.692-.143-7.377-.151-5.29-.246-7.833-.2-4.9-.317-7.062-.269-3.834-.46-5.015q0-.142-.071-.709l-.174-1.409s-.1-.614-.285-1.834a8.546,8.546,0,0,0-.388-1.905,2.656,2.656,0,0,1,1.632.244,7.962,7.962,0,0,1,.856.74,27.684,27.684,0,0,1,.816,4.306q.392,2.964.887,8.046a9.312,9.312,0,0,1,.745-1.976,19.539,19.539,0,0,1,1.6-2.716,26.418,26.418,0,0,1,2.274-2.858,15.878,15.878,0,0,1,2.7-2.4,9.244,9.244,0,0,1,2.876-1.378,4.1,4.1,0,0,1,2.86.236Zm-8.945,15.879a13.751,13.751,0,0,0,5.15-3.456,15.035,15.035,0,0,0,2.733-4.2,9.906,9.906,0,0,0,.856-3.708c0-1.086-.214-1.763-.642-2.047a2.473,2.473,0,0,0-2.7-.213,11.355,11.355,0,0,0-4.262,3.708c-.761.968-1.513,2.039-2.274,3.212a27.238,27.238,0,0,0-1.957,3.566,7.747,7.747,0,0,0-.816,3.141,1.53,1.53,0,0,0,.856.5,2.96,2.96,0,0,0,1.173.071,6.841,6.841,0,0,0,1.886-.575Zm28.411-17.288c-.048.283-.151.874-.317,1.764s-.341,1.945-.531,3.141-.357,2.456-.5,3.779-.222,2.566-.246,3.74a14.015,14.015,0,0,0,.214,3c.166.827.436,1.33.816,1.519a3.04,3.04,0,0,0,3.336-.527,27.448,27.448,0,0,0,3.977-3.991c.143,0,.151.189.032.567a6.179,6.179,0,0,1-.57,1.236l-.784,1.338s-.2.291-.6.882a12.078,12.078,0,0,1-1.632,1.59,9.556,9.556,0,0,1-2.274,1.409,4.924,4.924,0,0,1-2.306.457,2.273,2.273,0,0,1-1.814-1.268,6.343,6.343,0,0,1-.428-2.078,22.016,22.016,0,0,1,0-2.5c.048-.85.119-1.622.214-2.33s.166-1.22.214-1.551a38.664,38.664,0,0,1-3.407,5.22,21.188,21.188,0,0,1-3.763,3.881,6.5,6.5,0,0,1-3.407,1.519c-1.038.071-1.846-.527-2.416-1.8a8.623,8.623,0,0,1,0-4.125,15.71,15.71,0,0,1,1.49-4.125,46.476,46.476,0,0,1,3.122-4.661,20.743,20.743,0,0,1,3.478-3.6,12.287,12.287,0,0,1,3.874-2.149,8.613,8.613,0,0,1,4.231-.331Zm-13.358,17.926c.475.094,1.228-.26,2.274-1.055a19.6,19.6,0,0,0,3.264-3.354,27.108,27.108,0,0,0,3.09-5.015,19.736,19.736,0,0,0,1.814-6.038h-.816l-1.244.425a20.015,20.015,0,0,0-4.619,4.125,23.215,23.215,0,0,0-2.987,4.59A12.939,12.939,0,0,0,994.172,172c-.135,1.173.032,1.952.5,2.33Zm22.516-11.785c0,.142.071.8.214,1.976s.309,2.614.5,4.306.412,3.519.673,5.472.5,3.81.713,5.574.412,3.314.6,4.661.309,2.2.357,2.574q-.428-.071-.713-.142a1.263,1.263,0,0,1-.57-.354,7.2,7.2,0,0,1-.673-.811c-.261-.354-.626-.858-1.1-1.519q-.927-6.495-1.458-11.329c-.357-3.22-.65-5.849-.887-7.873a25.64,25.64,0,0,1-1.846,2.259q-.57.567-.713.567-.214,0-.071-.638l.143-.709.143-.638q.143-.638.214-.5a16.475,16.475,0,0,0,.887-1.409,10.292,10.292,0,0,0,.6-1.267,8.914,8.914,0,0,0,.428-1.338c-.047-.52-.079-.968-.1-1.338s-.032-.764-.032-1.165-.008-.811-.032-1.236-.032-.968-.032-1.622V149.1s.024-1.614.071-4.834.206-9.841.856-11.856a9.555,9.555,0,0,1,1.529-3.141,3.813,3.813,0,0,1,2.163-1.267,3.054,3.054,0,0,1,2.234.567,4.541,4.541,0,0,1,1.672,2.291,10.649,10.649,0,0,1,.642,4.023,37.589,37.589,0,0,1-.428,5.4q-.428,2.929-1.173,6.109t-1.6,6.172c-.57,2-1.133,3.873-1.7,5.613s-1.078,3.188-1.505,4.369Zm-.57-4.023a99.4,99.4,0,0,0,2.916-10.132q1.141-4.972,1.672-8.928a32.2,32.2,0,0,0,.357-6.385c-.119-1.622-.459-2.456-1.03-2.5a1.605,1.605,0,0,0-2.131.921,13.251,13.251,0,0,0-1.244,3.952,43.248,43.248,0,0,0-.6,5.826q-.143,3.283-.1,6.526t.1,6.141c.04,1.921.063,3.448.063,4.582Z" transform="translate(-822.6 -127.967)" fill="#fff"/>
</svg>
