<svg id="BUTTON" xmlns="http://www.w3.org/2000/svg" width="149" height="44" viewBox="0 0 149 44">
  <g id="Rectangle_15909" data-name="Rectangle 15909" fill="none" stroke="#4bc56b" stroke-linejoin="round" stroke-width="1">
    <rect width="149" height="44" rx="22" stroke="none"/>
    <rect x="0.5" y="0.5" width="148" height="43" rx="21.5" fill="none"/>
  </g>
  <text id="GOOGLE_PLAY" data-name="GOOGLE PLAY" transform="translate(87.747 33)" fill="#fff" font-size="16" font-family="Raleway-Bold, Raleway" font-weight="700"><tspan x="-54.744" y="0">GOOGLE PLAY</tspan></text>
  <text id="GET_IT_ON" data-name="GET IT ON" transform="translate(65.747 16)" fill="#fff" font-size="10" font-family="Raleway-Regular, Raleway"><tspan x="-23.85" y="0">GET IT ON</tspan></text>
  <g id="Group_102766" data-name="Group 102766" transform="translate(9.253 10)">
    <path id="Path_35" data-name="Path 35" d="M187.463,28.522,175.855,40.13A2.752,2.752,0,0,1,175,38.105V19.9a2.789,2.789,0,0,1,.885-2.055Z" transform="translate(-175 -17)" fill="#2196f3"/>
    <path id="Path_36" data-name="Path 36" d="M197.5,29a2.846,2.846,0,0,1-1.515,2.5l-3.3,1.83-4.094-3.779-1.125-1.035,4.334-4.334,4.184,2.31A2.846,2.846,0,0,1,197.5,29Z" transform="translate(-175 -17)" fill="#ffc107"/>
    <path id="Path_37" data-name="Path 37" d="M187.463,28.522,175.885,17.844a2.986,2.986,0,0,1,.54-.4,3.018,3.018,0,0,1,3.059-.045L191.8,24.188Z" transform="translate(-175 -17)" fill="#4caf50"/>
    <path id="Path_38" data-name="Path 38" d="M192.682,33.336l-13.2,7.274a2.988,2.988,0,0,1-1.5.39,2.922,2.922,0,0,1-1.559-.435,2.732,2.732,0,0,1-.57-.435l11.608-11.608,1.125,1.035Z" transform="translate(-175 -17)" fill="#f44336"/>
  </g>
</svg>
