<svg width="30" height="32" viewBox="0 0 30 32" fill="none" xmlns="http://www.w3.org/2000/svg">
<path d="M16.6172 15.3621L1.13981 30.8395C0.399933 30.1396 0 29.1798 0 28.14V3.86405C0 2.80423 0.41993 1.84439 1.1798 1.12451L16.6172 15.3621Z" fill="#2196F3"/>
<path d="M29.995 16.0019C29.995 17.4017 29.2351 18.6415 27.9753 19.3414L23.576 21.781L18.117 16.7418L16.6172 15.362L22.3962 9.58301L27.9753 12.6625C29.2351 13.3624 29.995 14.6022 29.995 16.0019Z" fill="#FFC107"/>
<path d="M16.6172 15.3623L1.17979 1.12473C1.37976 0.924762 1.63972 0.744792 1.89967 0.584819C3.15946 -0.175054 4.67921 -0.19505 5.97899 0.524829L22.3962 9.58331L16.6172 15.3623Z" fill="#4CAF50"/>
<path d="M23.576 21.7812L5.97899 31.4796C5.3591 31.8395 4.65921 31.9995 3.97933 31.9995C3.25945 31.9995 2.53957 31.8195 1.89967 31.4196C1.61972 31.2596 1.35976 31.0597 1.1398 30.8397L16.6172 15.3623L18.117 16.7421L23.576 21.7812Z" fill="#F44336"/>
</svg>
