<svg xmlns="http://www.w3.org/2000/svg" xmlns:xlink="http://www.w3.org/1999/xlink" width="50.563" height="45.681" viewBox="0 0 50.563 45.681">
  <defs>
    <linearGradient id="linear-gradient" x1="0.5" x2="0.5" y2="1" gradientUnits="objectBoundingBox">
      <stop offset="0" stop-color="#4bc56b"/>
      <stop offset="1" stop-color="#0198b0"/>
    </linearGradient>
  </defs>
  <g id="icon2" transform="translate(0)">
    <path id="Path_24485" data-name="Path 24485" d="M197.524,26.179a2.807,2.807,0,0,0-2.2-1.052h-30.6l-.274-1.965a2.837,2.837,0,0,0-2.8-2.441h-2.4a1.259,1.259,0,0,0,0,2.517h2.4a.316.316,0,0,1,.311.271l3.387,24.35a2.838,2.838,0,0,0,2.8,2.441h1.362a3.765,3.765,0,1,0,7.1,0h6.706a3.764,3.764,0,1,0,7.1,0h2.724a1.259,1.259,0,0,0,0-2.517H168.147a.314.314,0,0,1-.31-.271l-.313-2.246h24.711A2.841,2.841,0,0,0,195,43.027l3.092-14.475A2.826,2.826,0,0,0,197.524,26.179ZM174.312,51.559a1.255,1.255,0,1,1-1.255-1.259A1.259,1.259,0,0,1,174.312,51.559Zm13.8,0a1.255,1.255,0,1,1-1.255-1.259A1.259,1.259,0,0,1,188.114,51.559Zm7.521-23.534L192.543,42.5a.318.318,0,0,1-.308.249H167.174l-2.1-15.1h30.253a.314.314,0,0,1,.307.381Z" transform="translate(-158 -9.655)" fill="url(#linear-gradient)"/>
    <path id="Path_24486" data-name="Path 24486" d="M196.147,15.661l.8,2.284a.365.365,0,0,0,.187.214l1.988.914a.409.409,0,0,1,0,.715l-1.988.914a.365.365,0,0,0-.187.215l-.8,2.284a.321.321,0,0,1-.622,0l-.8-2.284a.361.361,0,0,0-.187-.215l-1.987-.914a.408.408,0,0,1,0-.715l1.987-.914a.36.36,0,0,0,.187-.214l.8-2.284A.321.321,0,0,1,196.147,15.661Z" transform="translate(-148.765 -11.081)" fill="#d0aa47"/>
    <path id="Path_24487" data-name="Path 24487" d="M170.033,12.18l.591,1.694a.266.266,0,0,0,.138.159l1.474.678a.3.3,0,0,1,0,.53l-1.474.678a.265.265,0,0,0-.138.159l-.591,1.694a.238.238,0,0,1-.462,0l-.59-1.694a.27.27,0,0,0-.138-.159l-1.474-.678a.3.3,0,0,1,0-.53l1.474-.678a.269.269,0,0,0,.138-.159l.59-1.694A.238.238,0,0,1,170.033,12.18Z" transform="translate(-155.523 -12)" fill="#d0aa47"/>
    <path id="Path_24488" data-name="Path 24488" d="M191.392,13.506a1.17,1.17,0,1,1-1.169-1.194A1.181,1.181,0,0,1,191.392,13.506Z" transform="translate(-149.65 -11.916)" fill="#d0aa47"/>
    <path id="Path_24489" data-name="Path 24489" d="M168.726,20.3a1.6,1.6,0,1,1-1.6-1.6A1.6,1.6,0,0,1,168.726,20.3Z" transform="translate(-155.974 -10.196)" fill="#d0aa47"/>
    <path id="Path_24490" data-name="Path 24490" d="M184.837,41.223c-6.388,0-11.566-6.041-11.566-13.493s5.178-13.492,11.566-13.492S196.4,20.279,196.4,27.731,191.225,41.223,184.837,41.223Z" transform="translate(-153.893 -11.398)" fill="#ffd949"/>
    <path id="Path_24491" data-name="Path 24491" d="M173.871,27.731c0-6.892,4.431-12.573,10.149-13.388a10.054,10.054,0,0,0-1.416-.1c-6.386,0-11.565,6.041-11.565,13.492s5.178,13.493,11.565,13.493a10.035,10.035,0,0,0,1.416-.1C178.3,40.3,173.871,34.623,173.871,27.731Z" transform="translate(-154.494 -11.398)" fill="#f4bf1a"/>
    <path id="Path_24492" data-name="Path 24492" d="M184.41,38.026h-.041a8.257,8.257,0,0,1-.988-.06.482.482,0,0,1,.112-.957,7.29,7.29,0,0,0,.877.053.494.494,0,0,1,.492.482A.459.459,0,0,1,184.41,38.026Zm2.746-.519a.471.471,0,0,1-.442-.312.484.484,0,0,1,.274-.621,7.559,7.559,0,0,0,.806-.365.467.467,0,0,1,.636.209.486.486,0,0,1-.2.649,8.739,8.739,0,0,1-.9.409A.457.457,0,0,1,187.155,37.507Zm-6.389-.368a.464.464,0,0,1-.214-.053,9.108,9.108,0,0,1-.854-.505.489.489,0,0,1-.136-.667.467.467,0,0,1,.653-.139,7.94,7.94,0,0,0,.764.452.487.487,0,0,1,.207.648A.469.469,0,0,1,180.767,37.139Zm9.493-1.715a.465.465,0,0,1-.332-.14.488.488,0,0,1,0-.681c.2-.211.4-.438.593-.676a.467.467,0,0,1,.665-.07.49.49,0,0,1,.068.678c-.208.261-.429.512-.656.746A.467.467,0,0,1,190.259,35.424Zm-12.377-.678a.471.471,0,0,1-.365-.176c-.2-.255-.4-.525-.584-.8a.489.489,0,0,1,.127-.669.466.466,0,0,1,.656.13c.166.253.345.5.532.73a.489.489,0,0,1-.066.678A.465.465,0,0,1,177.882,34.746Zm14.452-2.475a.461.461,0,0,1-.188-.04.486.486,0,0,1-.245-.635c.118-.277.227-.564.321-.852a.472.472,0,0,1,.6-.3.486.486,0,0,1,.3.611c-.1.315-.222.628-.351.93A.473.473,0,0,1,192.334,32.27Zm-16.251-.852a.474.474,0,0,1-.447-.327c-.1-.312-.2-.634-.275-.955a.481.481,0,0,1,.344-.584.471.471,0,0,1,.572.351c.072.3.157.591.253.877a.485.485,0,0,1-.294.611A.45.45,0,0,1,176.083,31.419Zm17.143-2.842h-.037a.479.479,0,0,1-.434-.518c.022-.292.033-.59.033-.886a.491.491,0,0,1,.472-.5.464.464,0,0,1,.472.466v.031c0,.321-.013.643-.037.96A.476.476,0,0,1,193.226,28.577Zm-17.747-.918a.473.473,0,0,1-.472-.477v-.011c0-.329.013-.659.038-.981a.472.472,0,1,1,.942.076c-.023.3-.036.6-.036.905A.481.481,0,0,1,175.479,27.659Zm17.436-2.873a.473.473,0,0,1-.457-.364c-.074-.3-.159-.591-.255-.878a.484.484,0,0,1,.293-.612.469.469,0,0,1,.6.3c.105.311.2.632.277.954a.481.481,0,0,1-.341.585A.439.439,0,0,1,192.915,24.786Zm-16.838-.876a.463.463,0,0,1-.151-.026.484.484,0,0,1-.3-.611c.1-.313.222-.626.353-.929a.467.467,0,0,1,.62-.249.484.484,0,0,1,.244.635c-.119.278-.227.565-.322.852A.476.476,0,0,1,176.077,23.91Zm15.328-2.6a.469.469,0,0,1-.392-.212c-.166-.252-.346-.5-.533-.729a.489.489,0,0,1,.063-.678.466.466,0,0,1,.665.065c.206.255.4.524.586.8a.487.487,0,0,1-.126.669A.463.463,0,0,1,191.405,21.311Zm-13.537-.733a.467.467,0,0,1-.3-.109.489.489,0,0,1-.066-.678c.208-.26.429-.511.656-.744a.466.466,0,0,1,.667,0,.488.488,0,0,1,0,.681c-.206.212-.406.439-.6.675A.466.466,0,0,1,177.868,20.579Zm10.9-1.942a.458.458,0,0,1-.256-.078,8.189,8.189,0,0,0-.765-.45.487.487,0,0,1-.209-.647.468.468,0,0,1,.634-.213,8.792,8.792,0,0,1,.855.5.487.487,0,0,1,.137.667A.467.467,0,0,1,188.764,18.636Zm-8.016-.458a.472.472,0,0,1-.421-.263.487.487,0,0,1,.207-.648,8.6,8.6,0,0,1,.9-.407.468.468,0,0,1,.607.282.484.484,0,0,1-.277.62,7.679,7.679,0,0,0-.807.363A.455.455,0,0,1,180.749,18.179Zm4.535-.843a.434.434,0,0,1-.056,0,7.3,7.3,0,0,0-.859-.051.485.485,0,0,1-.481-.482.469.469,0,0,1,.462-.482h.019a8.226,8.226,0,0,1,.968.057.482.482,0,0,1-.053.96Z" transform="translate(-153.427 -10.839)" fill="#cf880c"/>
    <path id="Path_24493" data-name="Path 24493" d="M177.386,15.378h2.839a11.33,11.33,0,0,0-1.387.964H176A11.415,11.415,0,0,1,177.386,15.378Zm-.047,2.408H174.5q-.4.46-.766.964h2.835Q176.935,18.246,177.339,17.786Zm-4.76,2.892h2.832c-.155.314-.3.635-.434.964h-2.835C172.277,21.312,172.425,20.992,172.579,20.678Zm1.892,2.41h-2.828c-.093.317-.178.637-.25.964h2.836C174.3,23.726,174.38,23.4,174.471,23.088ZM171.149,25.5h2.83c-.039.317-.065.639-.085.964h-2.832C171.081,26.136,171.11,25.814,171.149,25.5Zm-.11,2.409h2.831c.01.324.029.646.06.964h-2.835C171.067,28.552,171.049,28.231,171.039,27.906Zm3.091,2.409H171.3q.091.489.213.964h2.831C174.262,30.962,174.192,30.641,174.13,30.315Zm-2.174,2.409h2.835c.119.328.251.65.393.964h-2.833C172.21,33.373,172.077,33.053,171.956,32.724Zm4.284,2.892h-2.833q.329.5.7.964h2.835C176.693,36.272,176.46,35.951,176.24,35.617Zm.4,3.372a11.556,11.556,0,0,1-1.192-.964h2.831a11.656,11.656,0,0,0,1.2.964Z" transform="translate(-154.494 -11.092)" fill="#d0aa47" fill-rule="evenodd"/>
    <path id="Path_24494" data-name="Path 24494" d="M181.846,23.986a.418.418,0,0,1-.4-.438,1.108,1.108,0,1,0-2.2,0,.4.4,0,1,1-.792,0,1.9,1.9,0,1,1,3.788,0A.419.419,0,0,1,181.846,23.986Z" transform="translate(-152.5 -9.458)" fill="#cf880c"/>
    <path id="Path_24495" data-name="Path 24495" d="M187.1,23.986a.418.418,0,0,1-.4-.438,1.108,1.108,0,1,0-2.2,0,.4.4,0,1,1-.792,0,1.9,1.9,0,1,1,3.788,0A.419.419,0,0,1,187.1,23.986Z" transform="translate(-151.088 -9.458)" fill="#cf880c"/>
    <path id="Path_24496" data-name="Path 24496" d="M189.041,24.823H178.5a.419.419,0,0,0-.4.438c0,3.453,2.542,6.263,5.666,6.263s5.664-2.809,5.664-6.263A.419.419,0,0,0,189.041,24.823ZM180.765,29.5a3.65,3.65,0,0,1,6.015,0,4.5,4.5,0,0,1-6.015,0Zm6.6-.6a4.41,4.41,0,0,0-7.188,0,5.653,5.653,0,0,1-1.263-3.2h9.713A5.644,5.644,0,0,1,187.366,28.894Z" transform="translate(-152.593 -8.552)" fill="#cf880c"/>
  </g>
</svg>
