<svg id="icon_on1" xmlns="http://www.w3.org/2000/svg" xmlns:xlink="http://www.w3.org/1999/xlink" width="48.916" height="45.68" viewBox="0 0 48.916 45.68">
  <defs>
    <linearGradient id="linear-gradient" x1="0.5" x2="0.5" y2="1" gradientUnits="objectBoundingBox">
      <stop offset="0" stop-color="#4bc56b"/>
      <stop offset="1" stop-color="#0198b0"/>
    </linearGradient>
  </defs>
  <path id="Path_24454" data-name="Path 24454" d="M79.436,34.521H78.1V24.894a.638.638,0,0,0-.669-.6H46.679A4.469,4.469,0,0,0,42,28.5V50.163a4.469,4.469,0,0,0,4.679,4.212H77.43a.638.638,0,0,0,.669-.6v-7.22h1.337a2.551,2.551,0,0,0,2.674-2.406v-7.22A2.551,2.551,0,0,0,79.436,34.521Zm0,1.2a1.21,1.21,0,1,1,0,2.406H78.1V35.724ZM76.762,25.5v6.016h-.847L73.8,25.5Zm-30.082,0H72.052l1.329,5.972-25.832.275h-.87a3.909,3.909,0,0,1-1.7-.368,6.931,6.931,0,0,1-1.644-1.316c0-.657,0-1.223,0-1.555A3.192,3.192,0,0,1,46.679,25.5ZM76.762,53.172H46.679a3.193,3.193,0,0,1-3.342-3.008V31.452a.227.227,0,0,1,.019.016c.052.047.108.09.162.135s.112.1.172.14.117.08.176.12.122.085.186.125.126.07.189.105.13.074.2.108.137.06.206.091.134.06.2.089.152.051.228.076.134.048.2.067.171.041.257.06c.067.014.128.033.193.045.1.019.2.029.3.042.056.007.111.017.167.023.159.014.318.021.478.021h.87l.01.023.072-.023H76.762V38.13H69.408a4.464,4.464,0,0,0-4.679,4.212,4.464,4.464,0,0,0,4.679,4.212h7.353Zm4.011-9.024a1.275,1.275,0,0,1-1.337,1.2H69.408a3.025,3.025,0,1,1,0-6.016H79.436a2.939,2.939,0,0,0,.48-.044c.038-.006.076-.013.113-.021a2.9,2.9,0,0,0,.442-.123l.023-.01a2.749,2.749,0,0,0,.279-.125Z" transform="translate(-42 -8.695)" fill="url(#linear-gradient)"/>
  <path id="Path_24455" data-name="Path 24455" d="M44.947,32.2l-.313,1.153a5.319,5.319,0,0,0,1.1.119h1.719V32.278H45.736A3.851,3.851,0,0,1,44.947,32.2Zm7.856.083H50.13v1.188H52.8Zm5.626.319H55.755v1.188H58.43Zm13.37,0h2.291v1.188H71.8Zm-2.674,0H66.452v1.188h2.674Zm-5.348,0H61.1v1.188h2.674ZM45.225,47.963l-.313,1.153a5.309,5.309,0,0,0,1.1.119h1.72V48.047h-1.72A3.842,3.842,0,0,1,45.225,47.963Zm28.866.083H71.8v1.188h2.291Zm-18.335,0H58.43v1.188H55.755Zm13.37,0H66.452v1.188h2.674Zm-18.718,0h2.674v1.188H50.408Zm13.37,0H61.1v1.188h2.674Z" transform="translate(-41.292 -6.57)" fill-rule="evenodd" fill="url(#linear-gradient)"/>
  <path id="Path_24456" data-name="Path 24456" d="M63.978,37.195a1.783,1.783,0,1,0,1.783,1.783A1.783,1.783,0,0,0,63.978,37.195Zm0,2.377a.594.594,0,1,1,.594-.594A.594.594,0,0,1,63.978,39.572Z" transform="translate(-36.569 -5.225)" fill="#fff"/>
  <path id="Path_24457" data-name="Path 24457" d="M78.89,15.571l.776,2.228a.356.356,0,0,0,.182.209l1.94.892a.4.4,0,0,1,0,.7l-1.94.892a.355.355,0,0,0-.182.209l-.776,2.228a.313.313,0,0,1-.607,0L77.507,20.7a.355.355,0,0,0-.182-.209l-1.94-.892a.4.4,0,0,1,0-.7l1.94-.892a.356.356,0,0,0,.182-.209l.776-2.228A.313.313,0,0,1,78.89,15.571Z" transform="translate(-33.078 -11.103)" fill="#d0aa47"/>
  <path id="Path_24458" data-name="Path 24458" d="M53.413,12.175l.576,1.653a.264.264,0,0,0,.135.155l1.439.662a.3.3,0,0,1,0,.517l-1.439.662a.263.263,0,0,0-.135.155l-.576,1.653a.232.232,0,0,1-.451,0l-.576-1.653a.264.264,0,0,0-.135-.155l-1.439-.662a.3.3,0,0,1,0-.517l1.439-.662a.263.263,0,0,0,.135-.155l.576-1.653A.232.232,0,0,1,53.413,12.175Z" transform="translate(-39.671 -12)" fill="#d0aa47"/>
  <path id="Path_24460" data-name="Path 24460" d="M52.138,20.1a1.557,1.557,0,1,1-1.557-1.557A1.557,1.557,0,0,1,52.138,20.1Z" transform="translate(-40.111 -10.24)" fill="#d0aa47"/>
  <path id="Path_24461" data-name="Path 24461" d="M67.856,40.51c-6.232,0-11.283-5.893-11.283-13.163s5.052-13.163,11.283-13.163,11.283,5.893,11.283,13.163S74.087,40.51,67.856,40.51Z" transform="translate(-38.081 -11.413)" fill="#ffd949"/>
  <path id="Path_24462" data-name="Path 24462" d="M57.158,27.347c0-6.724,4.322-12.266,9.9-13.062a9.817,9.817,0,0,0-1.382-.1c-6.232,0-11.283,5.893-11.283,13.163S59.446,40.51,65.678,40.51a9.8,9.8,0,0,0,1.382-.1C61.48,39.613,57.158,34.071,57.158,27.347Z" transform="translate(-38.667 -11.413)" fill="#f4bf1a"/>
  <path id="Path_24463" data-name="Path 24463" d="M67.44,37.391H67.4a8.037,8.037,0,0,1-.965-.058.47.47,0,0,1,.109-.934,7.09,7.09,0,0,0,.856.052.482.482,0,0,1,.48.47A.449.449,0,0,1,67.44,37.391Zm2.678-.506a.461.461,0,0,1-.431-.3.472.472,0,0,1,.268-.606,7.486,7.486,0,0,0,.786-.356.455.455,0,0,1,.62.2.475.475,0,0,1-.2.633,8.45,8.45,0,0,1-.882.4A.444.444,0,0,1,70.118,36.885Zm-6.233-.359a.45.45,0,0,1-.208-.051,8.739,8.739,0,0,1-.833-.493.476.476,0,0,1-.133-.651.456.456,0,0,1,.638-.136,7.762,7.762,0,0,0,.745.441.475.475,0,0,1,.2.632A.459.459,0,0,1,63.884,36.525Zm9.262-1.673a.455.455,0,0,1-.324-.136.477.477,0,0,1,0-.665,8.758,8.758,0,0,0,.579-.659.455.455,0,0,1,.648-.068.477.477,0,0,1,.067.661c-.2.255-.418.5-.64.728A.456.456,0,0,1,73.146,34.853Zm-12.074-.662a.457.457,0,0,1-.356-.172c-.2-.249-.392-.513-.57-.783a.477.477,0,0,1,.124-.653.454.454,0,0,1,.639.127c.163.246.337.486.519.712a.477.477,0,0,1-.064.662A.454.454,0,0,1,61.071,34.191Zm14.1-2.415a.454.454,0,0,1-.184-.039.474.474,0,0,1-.239-.619c.116-.27.221-.55.314-.832a.459.459,0,0,1,.584-.3.473.473,0,0,1,.29.6c-.1.307-.216.613-.342.907A.462.462,0,0,1,75.17,31.776Zm-15.854-.831a.463.463,0,0,1-.436-.319c-.1-.3-.192-.618-.269-.932a.47.47,0,0,1,.335-.569.459.459,0,0,1,.558.342c.07.288.153.576.247.856a.472.472,0,0,1-.287.6A.442.442,0,0,1,59.316,30.945ZM76.04,28.173H76a.468.468,0,0,1-.424-.505c.022-.285.033-.576.033-.864a.479.479,0,0,1,.461-.485.452.452,0,0,1,.46.455V26.8c0,.313-.012.628-.036.937A.465.465,0,0,1,76.04,28.173Zm-17.313-.9a.461.461,0,0,1-.461-.465V26.8c0-.321.012-.643.037-.958a.461.461,0,1,1,.918.074c-.023.291-.034.588-.034.883A.47.47,0,0,1,58.727,27.277Zm17.01-2.8a.462.462,0,0,1-.446-.355c-.071-.289-.155-.577-.249-.856a.473.473,0,0,1,.287-.6.457.457,0,0,1,.585.292c.1.3.193.617.27.93a.471.471,0,0,1-.334.571A.418.418,0,0,1,75.737,24.474ZM59.31,23.62a.456.456,0,0,1-.148-.025.472.472,0,0,1-.288-.6c.1-.306.217-.611.344-.906a.457.457,0,0,1,.607-.243.474.474,0,0,1,.238.619c-.117.271-.222.551-.316.832A.462.462,0,0,1,59.31,23.62Zm14.954-2.535a.457.457,0,0,1-.382-.207c-.163-.245-.338-.485-.521-.711a.477.477,0,0,1,.063-.662.454.454,0,0,1,.648.064c.2.249.393.511.572.782a.476.476,0,0,1-.123.653A.452.452,0,0,1,74.263,21.084Zm-13.205-.715a.453.453,0,0,1-.291-.106A.476.476,0,0,1,60.7,19.6c.2-.254.419-.5.641-.726a.455.455,0,0,1,.651,0,.477.477,0,0,1,0,.665c-.2.206-.4.428-.581.659A.454.454,0,0,1,61.058,20.369Zm10.63-1.895a.449.449,0,0,1-.251-.076,7.789,7.789,0,0,0-.747-.439.475.475,0,0,1-.2-.631.456.456,0,0,1,.618-.208,8.618,8.618,0,0,1,.834.49.476.476,0,0,1,.134.651A.457.457,0,0,1,71.688,18.475Zm-7.82-.447a.46.46,0,0,1-.411-.257.475.475,0,0,1,.2-.632,8.4,8.4,0,0,1,.882-.4.458.458,0,0,1,.593.275.473.473,0,0,1-.27.605,7.457,7.457,0,0,0-.787.354A.449.449,0,0,1,63.868,18.028Zm4.424-.822a.428.428,0,0,1-.054,0,7.116,7.116,0,0,0-.838-.049.474.474,0,0,1-.47-.47.457.457,0,0,1,.451-.47H67.4a8.019,8.019,0,0,1,.944.056.471.471,0,0,1-.053.937Z" transform="translate(-37.626 -10.867)" fill="#cf880c"/>
  <path id="Path_24464" data-name="Path 24464" d="M60.587,15.3h2.769a11.082,11.082,0,0,0-1.354.94H59.235A11.074,11.074,0,0,1,60.587,15.3Zm-.047,2.35H57.774q-.393.448-.747.94h2.766Q60.147,18.094,60.541,17.645ZM55.9,20.466h2.763q-.228.459-.424.94H55.472C55.6,21.085,55.746,20.772,55.9,20.466Zm1.846,2.351h-2.76c-.09.309-.174.622-.244.94h2.766C57.577,23.439,57.654,23.125,57.744,22.817ZM54.5,25.167h2.761c-.038.31-.064.624-.083.94H54.417C54.436,25.791,54.464,25.477,54.5,25.167Zm-.107,2.351h2.762q.014.475.057.94H54.45C54.421,28.148,54.4,27.835,54.395,27.518Zm3.016,2.35H54.647q.09.477.208.94h2.763Q57.5,30.345,57.411,29.868ZM55.29,32.219h2.765q.176.48.384.94H55.675C55.537,32.852,55.407,32.539,55.29,32.219Zm4.18,2.822H56.7q.321.489.678.94h2.766Q59.791,35.53,59.469,35.041Zm.386,3.29a11.461,11.461,0,0,1-1.162-.94h2.762a11.355,11.355,0,0,0,1.17.94Z" transform="translate(-38.667 -11.114)" fill="#d0aa47" fill-rule="evenodd"/>
  <path id="Path_24465" data-name="Path 24465" d="M64.937,23.693a.408.408,0,0,1-.386-.427,1.08,1.08,0,1,0-2.15,0,.388.388,0,1,1-.773,0,1.857,1.857,0,1,1,3.7,0A.408.408,0,0,1,64.937,23.693Z" transform="translate(-36.722 -9.52)" fill="#cf880c"/>
  <path id="Path_24466" data-name="Path 24466" d="M70.06,23.693a.408.408,0,0,1-.386-.427,1.08,1.08,0,1,0-2.15,0,.388.388,0,1,1-.773,0,1.857,1.857,0,1,1,3.7,0A.408.408,0,0,1,70.06,23.693Z" transform="translate(-35.344 -9.52)" fill="#cf880c"/>
  <path id="Path_24467" data-name="Path 24467" d="M71.957,24.51H61.677a.408.408,0,0,0-.386.427c0,3.369,2.479,6.11,5.526,6.11s5.526-2.741,5.526-6.11A.408.408,0,0,0,71.957,24.51Zm-8.074,4.559a3.561,3.561,0,0,1,5.868,0,4.392,4.392,0,0,1-5.868,0Zm6.441-.588a4.3,4.3,0,0,0-7.014,0,5.517,5.517,0,0,1-1.232-3.117h9.477A5.516,5.516,0,0,1,70.324,28.482Z" transform="translate(-36.813 -8.636)" fill="#cf880c"/>
  <path id="Path_24468" data-name="Path 24468" d="M74.82,35.014,52.537,36.128v-6S72.592,30,73.706,30s1.671.557,1.671,1.114v2.833Z" transform="translate(-39.167 -7.16)" fill="#4bc56b"/>
  <path id="Path_24469" data-name="Path 24469" d="M73.925,30.923H52.537v5.459H73.929C73.929,34.543,73.925,32.761,73.925,30.923Z" transform="translate(-39.167 -6.912)" fill="#fff"/>
  <path id="Path_24470" data-name="Path 24470" d="M71.75,32.2H69.459v1.188H71.75Zm-15.662,0H53.415v1.188h2.674Zm8.023,0h2.674v1.188H64.111Zm-2.674,0H58.763v1.188h2.674Z" transform="translate(-38.931 -6.57)" fill-rule="evenodd" fill="url(#linear-gradient)"/>
</svg>
