<svg xmlns="http://www.w3.org/2000/svg" xmlns:xlink="http://www.w3.org/1999/xlink" width="154" height="129" viewBox="0 0 154 129">
  <defs>
    <filter id="Rectangle_93000" x="0" y="0" width="154" height="129" filterUnits="userSpaceOnUse">
      <feOffset input="SourceAlpha"/>
      <feGaussianBlur stdDeviation="2" result="blur"/>
      <feFlood flood-opacity="0.102"/>
      <feComposite operator="in" in2="blur"/>
      <feComposite in="SourceGraphic"/>
    </filter>
    <linearGradient id="linear-gradient" x1="0.5" x2="0.5" y2="1" gradientUnits="objectBoundingBox">
      <stop offset="0" stop-color="#4bc56b"/>
      <stop offset="1" stop-color="#0198b0"/>
    </linearGradient>
  </defs>
  <g id="left_icon2" transform="translate(6 6)">
    <g id="Group_96445" data-name="Group 96445" transform="translate(0 0)">
      <g transform="matrix(1, 0, 0, 1, -6, -6)" filter="url(#Rectangle_93000)">
        <rect id="Rectangle_93000-2" data-name="Rectangle 93000" width="142" height="117" rx="8" transform="translate(6 6)" fill="#fff"/>
      </g>
    </g>
    <path id="Path_24484" data-name="Path 24484" d="M139.951,70.5a2.956,2.956,0,0,1-.32,1.4,2.921,2.921,0,0,1-.888,1.013,4,4,0,0,1-1.3.622,5.548,5.548,0,0,1-1.563.213H129.79V61.135h6.751a2.491,2.491,0,0,1,1.19.284,2.913,2.913,0,0,1,.906.746,3.123,3.123,0,0,1,.568,1.03,3.265,3.265,0,0,1,.213,1.155,3.492,3.492,0,0,1-.462,1.741,2.831,2.831,0,0,1-1.35,1.19,3.181,3.181,0,0,1,1.705,1.155A3.242,3.242,0,0,1,139.951,70.5Zm-2.469-.462a2.075,2.075,0,0,0-.426-1.19,1.349,1.349,0,0,0-.462-.355,1.226,1.226,0,0,0-.586-.142h-3.766V71.67h3.642a1.539,1.539,0,0,0,.622-.124,1.565,1.565,0,0,0,.515-.338,1.789,1.789,0,0,0,.338-.533A1.671,1.671,0,0,0,137.482,70.035Zm-5.241-6.8v3.18h3.269a1.426,1.426,0,0,0,1.048-.426A1.55,1.55,0,0,0,137,64.813a1.6,1.6,0,0,0-.409-1.155,1.272,1.272,0,0,0-.977-.426ZM144.3,73.926A2.643,2.643,0,0,1,142.112,73a4.281,4.281,0,0,1-.746-2.736V64.44h2.38v5.312q0,2.149,1.546,2.15a2.439,2.439,0,0,0,1.332-.409,3.026,3.026,0,0,0,1.066-1.279V64.44h2.38v6.573a.885.885,0,0,0,.124.533.618.618,0,0,0,.444.178v2.025a4.934,4.934,0,0,1-.6.089q-.23.018-.426.018a1.8,1.8,0,0,1-1.048-.284,1.2,1.2,0,0,1-.462-.817l-.053-.746a3.956,3.956,0,0,1-1.6,1.439A4.81,4.81,0,0,1,144.3,73.926Zm8.158,1.634a3.672,3.672,0,0,0,.586.124,2.67,2.67,0,0,0,.48.053,1.02,1.02,0,0,0,.426-.089.9.9,0,0,0,.355-.32,2.784,2.784,0,0,0,.32-.6c.107-.261.218-.586.338-.977l-3.677-9.309h2.452l2.523,7.248L158.5,64.44h2.238L156.825,75.6a3.342,3.342,0,0,1-1.155,1.6,3.25,3.25,0,0,1-2.025.622,3.358,3.358,0,0,1-.586-.053,3.146,3.146,0,0,1-.6-.142Zm23.834-14.425V73.748h-2.434V68.366h-5.72v5.383h-2.452V61.135h2.452v5.1h5.72v-5.1Zm4.677,12.791a3.661,3.661,0,0,1-1.261-.213,3.236,3.236,0,0,1-1.013-.622,3.108,3.108,0,0,1-.675-.942,2.9,2.9,0,0,1-.231-1.172,2.584,2.584,0,0,1,.284-1.208,2.88,2.88,0,0,1,.817-.959,4.019,4.019,0,0,1,1.261-.6,5.261,5.261,0,0,1,1.6-.231,6.746,6.746,0,0,1,1.208.107,4.955,4.955,0,0,1,1.066.3V67.85a1.849,1.849,0,0,0-.533-1.421,2.147,2.147,0,0,0-1.546-.5,4.115,4.115,0,0,0-1.457.266,6.743,6.743,0,0,0-1.457.782l-.728-1.51a6.871,6.871,0,0,1,3.873-1.19,4.479,4.479,0,0,1,3.109.995,3.57,3.57,0,0,1,1.119,2.842v2.9a.876.876,0,0,0,.124.533.614.614,0,0,0,.444.178v2.025a5.313,5.313,0,0,1-1.048.124,1.624,1.624,0,0,1-1.048-.3,1.31,1.31,0,0,1-.444-.8l-.053-.515a4.131,4.131,0,0,1-1.51,1.244A4.338,4.338,0,0,1,180.966,73.926Zm.675-1.741a3.034,3.034,0,0,0,1.137-.213,2.079,2.079,0,0,0,.853-.568.856.856,0,0,0,.391-.675V69.662a5.274,5.274,0,0,0-.924-.249,4.588,4.588,0,0,0-.959-.107,2.5,2.5,0,0,0-1.51.426,1.232,1.232,0,0,0-.586,1.048,1.3,1.3,0,0,0,.462,1.013A1.7,1.7,0,0,0,181.641,72.185Zm12.386,1.741a3.719,3.719,0,0,1-1.919-.48,3.529,3.529,0,0,1-1.279-1.332v5.418h-2.38V64.44h2.078v1.6a3.71,3.71,0,0,1,1.332-1.279,3.649,3.649,0,0,1,1.883-.48,3.913,3.913,0,0,1,1.741.391,4.057,4.057,0,0,1,1.368,1.03,4.472,4.472,0,0,1,.906,1.528,5.074,5.074,0,0,1,.338,1.848,5.891,5.891,0,0,1-.3,1.9,4.785,4.785,0,0,1-.853,1.546,3.844,3.844,0,0,1-1.279,1.03A3.605,3.605,0,0,1,194.027,73.926Zm-.8-2.025a2.089,2.089,0,0,0,.977-.231,2.37,2.37,0,0,0,.782-.622,2.933,2.933,0,0,0,.5-.906,3.258,3.258,0,0,0,.178-1.066,2.956,2.956,0,0,0-.2-1.084,2.636,2.636,0,0,0-.551-.888,2.477,2.477,0,0,0-1.83-.8,2.084,2.084,0,0,0-.693.124,2.241,2.241,0,0,0-.657.32,3.081,3.081,0,0,0-.551.5,2.141,2.141,0,0,0-.355.622v2.185a3.222,3.222,0,0,0,.977,1.332A2.255,2.255,0,0,0,193.228,71.9Zm11.881,2.025a3.719,3.719,0,0,1-1.919-.48,3.529,3.529,0,0,1-1.279-1.332v5.418h-2.38V64.44h2.078v1.6a3.709,3.709,0,0,1,1.332-1.279,3.649,3.649,0,0,1,1.883-.48,3.913,3.913,0,0,1,1.741.391,4.057,4.057,0,0,1,1.368,1.03,4.473,4.473,0,0,1,.906,1.528,5.074,5.074,0,0,1,.337,1.848,5.89,5.89,0,0,1-.3,1.9,4.785,4.785,0,0,1-.853,1.546,3.844,3.844,0,0,1-1.279,1.03A3.605,3.605,0,0,1,205.109,73.926Zm-.8-2.025a2.089,2.089,0,0,0,.977-.231,2.37,2.37,0,0,0,.782-.622,2.935,2.935,0,0,0,.5-.906,3.259,3.259,0,0,0,.178-1.066,2.955,2.955,0,0,0-.2-1.084A2.637,2.637,0,0,0,206,67.1a2.477,2.477,0,0,0-1.83-.8,2.084,2.084,0,0,0-.693.124,2.241,2.241,0,0,0-.657.32,3.082,3.082,0,0,0-.551.5,2.142,2.142,0,0,0-.355.622v2.185a3.222,3.222,0,0,0,.977,1.332A2.255,2.255,0,0,0,204.309,71.9Zm6.3,1.848V64.44h2.381v9.309Zm0-10.606V60.78h2.381v2.363Zm13,10.606h-2.38V68.525a2.715,2.715,0,0,0-.391-1.634,1.283,1.283,0,0,0-1.084-.515,2.041,2.041,0,0,0-.728.142,2.706,2.706,0,0,0-.711.409,3.162,3.162,0,0,0-.586.6,2.44,2.44,0,0,0-.391.782v5.436h-2.38V64.44h2.15v1.723a3.53,3.53,0,0,1,1.492-1.386,4.789,4.789,0,0,1,2.2-.5,2.8,2.8,0,0,1,1.421.32,2.3,2.3,0,0,1,.853.835,3.352,3.352,0,0,1,.409,1.172,7.082,7.082,0,0,1,.124,1.332Zm6.209.178a5.273,5.273,0,0,1-2.025-.373,4.671,4.671,0,0,1-2.54-2.576,5.026,5.026,0,0,1-.337-1.83,5.123,5.123,0,0,1,.337-1.865,4.474,4.474,0,0,1,.977-1.546,4.621,4.621,0,0,1,1.546-1.066,5.244,5.244,0,0,1,2.061-.391,4.978,4.978,0,0,1,2.025.391,4.547,4.547,0,0,1,1.528,1.048,4.283,4.283,0,0,1,.959,1.528,4.951,4.951,0,0,1,.338,1.812c0,.154-.005.3-.018.444a1.475,1.475,0,0,1-.036.355h-7.195a2.763,2.763,0,0,0,.266.977,2.393,2.393,0,0,0,1.315,1.19,2.513,2.513,0,0,0,.888.16,2.746,2.746,0,0,0,1.332-.338,1.866,1.866,0,0,0,.87-.924l2.043.568a4.183,4.183,0,0,1-1.652,1.759A5.1,5.1,0,0,1,229.822,73.926Zm2.416-5.614a2.42,2.42,0,0,0-.782-1.67,2.435,2.435,0,0,0-2.558-.462,2.248,2.248,0,0,0-.728.462,2.573,2.573,0,0,0-.533.728,2.711,2.711,0,0,0-.231.942Zm7.242,5.614a7.2,7.2,0,0,1-2.292-.373,5.59,5.59,0,0,1-1.919-1.066l.888-1.492a8.078,8.078,0,0,0,1.652.924,4.643,4.643,0,0,0,1.617.3,2.028,2.028,0,0,0,1.119-.266.858.858,0,0,0,.409-.764.763.763,0,0,0-.48-.728,10.331,10.331,0,0,0-1.563-.533q-.906-.249-1.546-.48a4.18,4.18,0,0,1-1.03-.515,1.9,1.9,0,0,1-.568-.675,2.223,2.223,0,0,1-.178-.924,2.978,2.978,0,0,1,.266-1.279,2.808,2.808,0,0,1,.782-.959,3.512,3.512,0,0,1,1.155-.622,4.818,4.818,0,0,1,1.457-.213,6.139,6.139,0,0,1,1.954.3,4.757,4.757,0,0,1,1.688.977l-.959,1.439a5.5,5.5,0,0,0-1.386-.782,3.686,3.686,0,0,0-1.315-.249,1.917,1.917,0,0,0-1.013.249.867.867,0,0,0-.409.8.845.845,0,0,0,.089.409.948.948,0,0,0,.32.284,3.561,3.561,0,0,0,.551.249q.356.107.87.231.959.249,1.634.5a4.275,4.275,0,0,1,1.119.568,1.885,1.885,0,0,1,.64.746,2.13,2.13,0,0,1,.213.995,2.615,2.615,0,0,1-1.013,2.167A4.4,4.4,0,0,1,239.479,73.926Zm8.653,0a7.2,7.2,0,0,1-2.292-.373,5.589,5.589,0,0,1-1.919-1.066l.888-1.492a8.078,8.078,0,0,0,1.652.924,4.643,4.643,0,0,0,1.617.3,2.028,2.028,0,0,0,1.119-.266.858.858,0,0,0,.409-.764.763.763,0,0,0-.48-.728,10.33,10.33,0,0,0-1.563-.533q-.906-.249-1.546-.48a4.18,4.18,0,0,1-1.03-.515,1.9,1.9,0,0,1-.568-.675,2.223,2.223,0,0,1-.178-.924,2.978,2.978,0,0,1,.266-1.279,2.807,2.807,0,0,1,.782-.959,3.511,3.511,0,0,1,1.155-.622,4.818,4.818,0,0,1,1.457-.213,6.14,6.14,0,0,1,1.954.3,4.757,4.757,0,0,1,1.688.977l-.959,1.439A5.5,5.5,0,0,0,249.2,66.2a3.686,3.686,0,0,0-1.315-.249,1.917,1.917,0,0,0-1.013.249.867.867,0,0,0-.409.8.844.844,0,0,0,.089.409.947.947,0,0,0,.32.284,3.559,3.559,0,0,0,.551.249q.356.107.87.231.959.249,1.634.5a4.278,4.278,0,0,1,1.119.568,1.886,1.886,0,0,1,.64.746,2.13,2.13,0,0,1,.213.995,2.615,2.615,0,0,1-1.013,2.167A4.4,4.4,0,0,1,248.132,73.926Zm-76.285,9.661h-4.033V94.051H165.38V83.587h-4.033v-2.15h10.5Zm3.427,10.641a5.108,5.108,0,0,1-2.043-.391,4.755,4.755,0,0,1-1.546-1.048,4.83,4.83,0,0,1-.959-1.546,5.177,5.177,0,0,1,0-3.677,4.561,4.561,0,0,1,2.5-2.594,5.108,5.108,0,0,1,2.043-.391,4.986,4.986,0,0,1,2.025.391,4.435,4.435,0,0,1,1.528,1.066,4.512,4.512,0,0,1,.977,1.528,5.177,5.177,0,0,1,0,3.677,4.877,4.877,0,0,1-.959,1.546,4.56,4.56,0,0,1-1.528,1.048A5.112,5.112,0,0,1,175.274,94.228Zm-2.434-4.814a3.447,3.447,0,0,0,.178,1.137,3,3,0,0,0,.515.87,2.5,2.5,0,0,0,.782.586,2.452,2.452,0,0,0,1.919,0,2.319,2.319,0,0,0,.764-.586,2.56,2.56,0,0,0,.515-.888,3.2,3.2,0,0,0,.2-1.137,3.149,3.149,0,0,0-.2-1.119,2.56,2.56,0,0,0-.515-.888,2.123,2.123,0,0,0-.764-.568,2.265,2.265,0,0,0-1.919,0,2.5,2.5,0,0,0-.782.586,2.949,2.949,0,0,0-.515.888A3.39,3.39,0,0,0,172.84,89.414Zm15.09,4.637-2.7-4.033-1.279,1.261v2.771h-2.38V81.083h2.38v7.87l3.731-4.192h2.54L186.758,88.7l3.713,5.347Zm7.2.178a5.273,5.273,0,0,1-2.025-.373,4.671,4.671,0,0,1-2.54-2.576,5,5,0,0,1-.338-1.83,5.1,5.1,0,0,1,.338-1.865,4.454,4.454,0,0,1,.977-1.546,4.62,4.62,0,0,1,1.546-1.066,5.236,5.236,0,0,1,2.061-.391,4.986,4.986,0,0,1,2.025.391,4.56,4.56,0,0,1,1.528,1.048,4.285,4.285,0,0,1,.959,1.528A4.979,4.979,0,0,1,200,89.361c0,.154-.006.3-.018.444a1.539,1.539,0,0,1-.036.355h-7.195a2.763,2.763,0,0,0,.266.977,2.393,2.393,0,0,0,1.315,1.19,2.508,2.508,0,0,0,.888.16,2.753,2.753,0,0,0,1.332-.338,1.871,1.871,0,0,0,.87-.924l2.043.568a4.2,4.2,0,0,1-1.652,1.759A5.1,5.1,0,0,1,195.13,94.228Zm2.416-5.614a2.425,2.425,0,0,0-.782-1.67,2.435,2.435,0,0,0-2.558-.462,2.235,2.235,0,0,0-.728.462,2.574,2.574,0,0,0-.533.728,2.656,2.656,0,0,0-.231.942Zm12.376,5.436h-2.38V88.828a2.724,2.724,0,0,0-.391-1.634,1.285,1.285,0,0,0-1.084-.515,2.036,2.036,0,0,0-.728.142,2.685,2.685,0,0,0-.711.409,3.162,3.162,0,0,0-.586.6,2.415,2.415,0,0,0-.391.782v5.436H201.27V84.742h2.15v1.723a3.516,3.516,0,0,1,1.492-1.386,4.785,4.785,0,0,1,2.2-.5,2.809,2.809,0,0,1,1.421.32,2.316,2.316,0,0,1,.853.835,3.377,3.377,0,0,1,.409,1.172,7.188,7.188,0,0,1,.124,1.332Zm5.409.178a7.2,7.2,0,0,1-2.292-.373,5.589,5.589,0,0,1-1.919-1.066l.888-1.492a8.077,8.077,0,0,0,1.652.924,4.637,4.637,0,0,0,1.617.3,2.034,2.034,0,0,0,1.119-.266.86.86,0,0,0,.409-.764.763.763,0,0,0-.48-.728,10.381,10.381,0,0,0-1.563-.533q-.906-.249-1.546-.48a4.158,4.158,0,0,1-1.03-.515,1.874,1.874,0,0,1-.568-.675,2.2,2.2,0,0,1-.178-.924,2.978,2.978,0,0,1,.266-1.279,2.779,2.779,0,0,1,.782-.959,3.486,3.486,0,0,1,1.155-.622,4.807,4.807,0,0,1,1.457-.213,6.145,6.145,0,0,1,1.954.3,4.779,4.779,0,0,1,1.688.977l-.959,1.439A5.543,5.543,0,0,0,216.4,86.5a3.7,3.7,0,0,0-1.315-.249,1.911,1.911,0,0,0-1.013.249.864.864,0,0,0-.409.8.83.83,0,0,0,.089.409.948.948,0,0,0,.32.284,3.5,3.5,0,0,0,.551.249q.354.107.87.231.959.249,1.634.5a4.277,4.277,0,0,1,1.119.568,1.907,1.907,0,0,1,.64.746,2.13,2.13,0,0,1,.213.995,2.615,2.615,0,0,1-1.013,2.167A4.4,4.4,0,0,1,215.331,94.228Z" transform="translate(-119.321 9.198)" fill="#2a3d4b"/>
    <g id="buy_happiness_icon" transform="translate(46.265 8.081)">
      <path id="Path_24485" data-name="Path 24485" d="M197.524,26.179a2.807,2.807,0,0,0-2.2-1.052h-30.6l-.274-1.965a2.837,2.837,0,0,0-2.8-2.441h-2.4a1.259,1.259,0,0,0,0,2.517h2.4a.316.316,0,0,1,.311.271l3.387,24.35a2.838,2.838,0,0,0,2.8,2.441h1.362a3.765,3.765,0,1,0,7.1,0h6.706a3.764,3.764,0,1,0,7.1,0h2.724a1.259,1.259,0,0,0,0-2.517H168.147a.314.314,0,0,1-.31-.271l-.313-2.246h24.711A2.841,2.841,0,0,0,195,43.027l3.092-14.475A2.826,2.826,0,0,0,197.524,26.179ZM174.312,51.559a1.255,1.255,0,1,1-1.255-1.259A1.259,1.259,0,0,1,174.312,51.559Zm13.8,0a1.255,1.255,0,1,1-1.255-1.259A1.259,1.259,0,0,1,188.114,51.559Zm7.521-23.534L192.543,42.5a.318.318,0,0,1-.308.249H167.174l-2.1-15.1h30.253a.314.314,0,0,1,.307.381Z" transform="translate(-158 -9.655)" fill="url(#linear-gradient)"/>
      <path id="Path_24486" data-name="Path 24486" d="M196.147,15.661l.8,2.284a.365.365,0,0,0,.187.214l1.988.914a.409.409,0,0,1,0,.715l-1.988.914a.365.365,0,0,0-.187.215l-.8,2.284a.321.321,0,0,1-.622,0l-.8-2.284a.361.361,0,0,0-.187-.215l-1.987-.914a.408.408,0,0,1,0-.715l1.987-.914a.36.36,0,0,0,.187-.214l.8-2.284A.321.321,0,0,1,196.147,15.661Z" transform="translate(-148.765 -11.081)" fill="#d0aa47"/>
      <path id="Path_24487" data-name="Path 24487" d="M170.033,12.18l.591,1.694a.266.266,0,0,0,.138.159l1.474.678a.3.3,0,0,1,0,.53l-1.474.678a.265.265,0,0,0-.138.159l-.591,1.694a.238.238,0,0,1-.462,0l-.59-1.694a.27.27,0,0,0-.138-.159l-1.474-.678a.3.3,0,0,1,0-.53l1.474-.678a.269.269,0,0,0,.138-.159l.59-1.694A.238.238,0,0,1,170.033,12.18Z" transform="translate(-155.523 -12)" fill="#d0aa47"/>
      <path id="Path_24488" data-name="Path 24488" d="M191.392,13.506a1.17,1.17,0,1,1-1.169-1.194A1.181,1.181,0,0,1,191.392,13.506Z" transform="translate(-149.65 -11.916)" fill="#d0aa47"/>
      <path id="Path_24489" data-name="Path 24489" d="M168.726,20.3a1.6,1.6,0,1,1-1.6-1.6A1.6,1.6,0,0,1,168.726,20.3Z" transform="translate(-155.974 -10.196)" fill="#d0aa47"/>
      <path id="Path_24490" data-name="Path 24490" d="M184.837,41.223c-6.388,0-11.566-6.041-11.566-13.493s5.178-13.492,11.566-13.492S196.4,20.279,196.4,27.731,191.225,41.223,184.837,41.223Z" transform="translate(-153.893 -11.398)" fill="#ffd949"/>
      <path id="Path_24491" data-name="Path 24491" d="M173.871,27.731c0-6.892,4.431-12.573,10.149-13.388a10.054,10.054,0,0,0-1.416-.1c-6.386,0-11.565,6.041-11.565,13.492s5.178,13.493,11.565,13.493a10.035,10.035,0,0,0,1.416-.1C178.3,40.3,173.871,34.623,173.871,27.731Z" transform="translate(-154.494 -11.398)" fill="#f4bf1a"/>
      <path id="Path_24492" data-name="Path 24492" d="M184.41,38.026h-.041a8.257,8.257,0,0,1-.988-.06.482.482,0,0,1,.112-.957,7.29,7.29,0,0,0,.877.053.494.494,0,0,1,.492.482A.459.459,0,0,1,184.41,38.026Zm2.746-.519a.471.471,0,0,1-.442-.312.484.484,0,0,1,.274-.621,7.559,7.559,0,0,0,.806-.365.467.467,0,0,1,.636.209.486.486,0,0,1-.2.649,8.739,8.739,0,0,1-.9.409A.457.457,0,0,1,187.155,37.507Zm-6.389-.368a.464.464,0,0,1-.214-.053,9.108,9.108,0,0,1-.854-.505.489.489,0,0,1-.136-.667.467.467,0,0,1,.653-.139,7.94,7.94,0,0,0,.764.452.487.487,0,0,1,.207.648A.469.469,0,0,1,180.767,37.139Zm9.493-1.715a.465.465,0,0,1-.332-.14.488.488,0,0,1,0-.681c.2-.211.4-.438.593-.676a.467.467,0,0,1,.665-.07.49.49,0,0,1,.068.678c-.208.261-.429.512-.656.746A.467.467,0,0,1,190.259,35.424Zm-12.377-.678a.471.471,0,0,1-.365-.176c-.2-.255-.4-.525-.584-.8a.489.489,0,0,1,.127-.669.466.466,0,0,1,.656.13c.166.253.345.5.532.73a.489.489,0,0,1-.066.678A.465.465,0,0,1,177.882,34.746Zm14.452-2.475a.461.461,0,0,1-.188-.04.486.486,0,0,1-.245-.635c.118-.277.227-.564.321-.852a.472.472,0,0,1,.6-.3.486.486,0,0,1,.3.611c-.1.315-.222.628-.351.93A.473.473,0,0,1,192.334,32.27Zm-16.251-.852a.474.474,0,0,1-.447-.327c-.1-.312-.2-.634-.275-.955a.481.481,0,0,1,.344-.584.471.471,0,0,1,.572.351c.072.3.157.591.253.877a.485.485,0,0,1-.294.611A.45.45,0,0,1,176.083,31.419Zm17.143-2.842h-.037a.479.479,0,0,1-.434-.518c.022-.292.033-.59.033-.886a.491.491,0,0,1,.472-.5.464.464,0,0,1,.472.466v.031c0,.321-.013.643-.037.96A.476.476,0,0,1,193.226,28.577Zm-17.747-.918a.473.473,0,0,1-.472-.477v-.011c0-.329.013-.659.038-.981a.472.472,0,1,1,.942.076c-.023.3-.036.6-.036.905A.481.481,0,0,1,175.479,27.659Zm17.436-2.873a.473.473,0,0,1-.457-.364c-.074-.3-.159-.591-.255-.878a.484.484,0,0,1,.293-.612.469.469,0,0,1,.6.3c.105.311.2.632.277.954a.481.481,0,0,1-.341.585A.439.439,0,0,1,192.915,24.786Zm-16.838-.876a.463.463,0,0,1-.151-.026.484.484,0,0,1-.3-.611c.1-.313.222-.626.353-.929a.467.467,0,0,1,.62-.249.484.484,0,0,1,.244.635c-.119.278-.227.565-.322.852A.476.476,0,0,1,176.077,23.91Zm15.328-2.6a.469.469,0,0,1-.392-.212c-.166-.252-.346-.5-.533-.729a.489.489,0,0,1,.063-.678.466.466,0,0,1,.665.065c.206.255.4.524.586.8a.487.487,0,0,1-.126.669A.463.463,0,0,1,191.405,21.311Zm-13.537-.733a.467.467,0,0,1-.3-.109.489.489,0,0,1-.066-.678c.208-.26.429-.511.656-.744a.466.466,0,0,1,.667,0,.488.488,0,0,1,0,.681c-.206.212-.406.439-.6.675A.466.466,0,0,1,177.868,20.579Zm10.9-1.942a.458.458,0,0,1-.256-.078,8.189,8.189,0,0,0-.765-.45.487.487,0,0,1-.209-.647.468.468,0,0,1,.634-.213,8.792,8.792,0,0,1,.855.5.487.487,0,0,1,.137.667A.467.467,0,0,1,188.764,18.636Zm-8.016-.458a.472.472,0,0,1-.421-.263.487.487,0,0,1,.207-.648,8.6,8.6,0,0,1,.9-.407.468.468,0,0,1,.607.282.484.484,0,0,1-.277.62,7.679,7.679,0,0,0-.807.363A.455.455,0,0,1,180.749,18.179Zm4.535-.843a.434.434,0,0,1-.056,0,7.3,7.3,0,0,0-.859-.051.485.485,0,0,1-.481-.482.469.469,0,0,1,.462-.482h.019a8.226,8.226,0,0,1,.968.057.482.482,0,0,1-.053.96Z" transform="translate(-153.427 -10.839)" fill="#cf880c"/>
      <path id="Path_24493" data-name="Path 24493" d="M177.386,15.378h2.839a11.33,11.33,0,0,0-1.387.964H176A11.415,11.415,0,0,1,177.386,15.378Zm-.047,2.408H174.5q-.4.46-.766.964h2.835Q176.935,18.246,177.339,17.786Zm-4.76,2.892h2.832c-.155.314-.3.635-.434.964h-2.835C172.277,21.312,172.425,20.992,172.579,20.678Zm1.892,2.41h-2.828c-.093.317-.178.637-.25.964h2.836C174.3,23.726,174.38,23.4,174.471,23.088ZM171.149,25.5h2.83c-.039.317-.065.639-.085.964h-2.832C171.081,26.136,171.11,25.814,171.149,25.5Zm-.11,2.409h2.831c.01.324.029.646.06.964h-2.835C171.067,28.552,171.049,28.231,171.039,27.906Zm3.091,2.409H171.3q.091.489.213.964h2.831C174.262,30.962,174.192,30.641,174.13,30.315Zm-2.174,2.409h2.835c.119.328.251.65.393.964h-2.833C172.21,33.373,172.077,33.053,171.956,32.724Zm4.284,2.892h-2.833q.329.5.7.964h2.835C176.693,36.272,176.46,35.951,176.24,35.617Zm.4,3.372a11.556,11.556,0,0,1-1.192-.964h2.831a11.656,11.656,0,0,0,1.2.964Z" transform="translate(-154.494 -11.092)" fill="#d0aa47" fill-rule="evenodd"/>
      <path id="Path_24494" data-name="Path 24494" d="M181.846,23.986a.418.418,0,0,1-.4-.438,1.108,1.108,0,1,0-2.2,0,.4.4,0,1,1-.792,0,1.9,1.9,0,1,1,3.788,0A.419.419,0,0,1,181.846,23.986Z" transform="translate(-152.5 -9.458)" fill="#cf880c"/>
      <path id="Path_24495" data-name="Path 24495" d="M187.1,23.986a.418.418,0,0,1-.4-.438,1.108,1.108,0,1,0-2.2,0,.4.4,0,1,1-.792,0,1.9,1.9,0,1,1,3.788,0A.419.419,0,0,1,187.1,23.986Z" transform="translate(-151.088 -9.458)" fill="#cf880c"/>
      <path id="Path_24496" data-name="Path 24496" d="M189.041,24.823H178.5a.419.419,0,0,0-.4.438c0,3.453,2.542,6.263,5.666,6.263s5.664-2.809,5.664-6.263A.419.419,0,0,0,189.041,24.823ZM180.765,29.5a3.65,3.65,0,0,1,6.015,0,4.5,4.5,0,0,1-6.015,0Zm6.6-.6a4.41,4.41,0,0,0-7.188,0,5.653,5.653,0,0,1-1.263-3.2h9.713A5.644,5.644,0,0,1,187.366,28.894Z" transform="translate(-152.593 -8.552)" fill="#cf880c"/>
    </g>
  </g>
</svg>
