<svg width="132" height="56" viewBox="0 0 132 56" fill="none" xmlns="http://www.w3.org/2000/svg">
<path d="M4.42138 42.3162C4.2575 42.0907 4.09732 41.8628 3.94159 41.6316C4.09609 41.8619 4.25725 42.0897 4.42138 42.3162Z" fill="#282827"/>
<path d="M5.592 43.8055C6.04711 44.3369 6.5269 44.8542 7.03853 45.3483C8.74494 47.0278 10.7799 48.4396 12.9629 49.5072C13.7672 49.8839 14.5091 50.2741 15.3783 50.61C15.5955 50.6934 15.8174 50.7827 16.0506 50.8632C16.2858 50.9377 16.5297 51.0123 16.7846 51.0861C17.0381 51.1653 17.3084 51.2216 17.591 51.2801C17.8738 51.3368 18.1675 51.4017 18.4829 51.4341C16.928 51.1063 15.3983 50.6115 13.9333 49.9557C12.4697 49.2965 11.0711 48.48 9.76894 47.5266C7.16563 45.6196 4.93895 43.171 3.3125 40.372C3.24537 40.2883 3.14344 40.1289 3.02127 39.9257C2.96105 39.8238 2.8949 39.7115 2.82481 39.5931C2.76163 39.4706 2.69474 39.3418 2.62663 39.2103C2.49483 38.9447 2.34305 38.6752 2.2268 38.4141C2.10685 38.1549 1.99406 37.9177 1.89954 37.7358C2.40499 38.9948 2.98844 40.096 3.64174 41.1432C3.94161 41.6211 4.25752 42.088 4.59663 42.5493C4.54924 42.4854 4.49988 42.4232 4.45274 42.359C4.80962 42.8492 5.18674 43.3314 5.58805 43.8006C5.58928 43.8018 5.59052 43.8038 5.592 43.8055Z" fill="#282827"/>
<path d="M4.45177 42.358C4.44156 42.3441 4.43135 42.3303 4.42139 42.3167C4.4316 42.3303 4.44181 42.3441 4.45177 42.358Z" fill="#282827"/>
<path d="M0.329595 31.7371C0.290353 31.422 0.250618 31.1036 0.210388 30.7808C0.27357 31.3645 0.346872 32.0168 0.480887 32.6698C0.453985 32.5158 0.42733 32.3611 0.400182 32.2061C0.371059 32.0513 0.346378 31.8951 0.329595 31.7371Z" fill="#282827"/>
<path d="M21.179 51.3662C22.8207 51.5323 24.5424 51.4827 26.2288 51.2159C27.9163 50.9501 29.5667 50.4787 31.101 49.8711C28.2751 50.9825 25.2759 51.4768 22.3419 51.3941C21.9492 51.388 21.5622 51.3941 21.179 51.3662Z" fill="#282827"/>
<path d="M11.4583 48.0078C11.4371 47.9942 11.4156 47.9806 11.3943 47.967C11.4158 47.9806 11.4368 47.9944 11.4583 48.0078Z" fill="#282827"/>
<path d="M11.3943 47.9668C11.1838 47.8331 10.9777 47.6954 10.7739 47.5554C10.9767 47.6961 11.1845 47.8323 11.3943 47.9668Z" fill="#282827"/>
<path d="M10.7739 47.5556C10.5521 47.4018 10.3304 47.2476 10.1174 47.0874C10.3317 47.2473 10.5516 47.4028 10.7739 47.5556Z" fill="#282827"/>
<path d="M13.8402 49.3198C15.1826 49.945 16.6119 50.4319 18.0663 50.7553C15.6752 50.2098 13.4251 49.2475 11.4583 48.0076C12.2135 48.4881 13.0075 48.9328 13.8402 49.3198Z" fill="#282827"/>
<path d="M43.6852 31.9969C43.7094 31.6069 43.7583 31.1977 43.7706 31.003C43.9172 29.7515 43.9606 28.6828 43.9545 27.6107C43.9273 27.4174 43.8496 27.0553 43.8187 26.6437C43.781 26.231 43.7254 25.827 43.6785 25.4284C43.6072 25.0333 43.5458 24.6421 43.4678 24.2585C44.0293 27.1257 44.0199 30.0039 43.5033 32.7195C43.5638 32.4639 43.6245 32.2212 43.6852 31.9969Z" fill="#282827"/>
<path d="M0.219003 26.1691C0.428294 24.4661 0.873779 22.8061 1.29754 21.7002L1.12601 22.5097C1.23189 22.2725 1.40293 21.7214 1.63616 21.1382C1.69169 20.9916 1.74821 20.842 1.80448 20.6934C1.86742 20.5476 1.92986 20.4025 1.99033 20.2623C2.11373 19.9831 2.21739 19.7186 2.32672 19.5157C2.25194 19.706 2.17987 19.9111 2.093 20.1169C2.00785 20.3235 1.91234 20.5333 1.82127 20.7443C2.0076 20.3242 2.0076 20.3242 2.19493 19.9029C1.87112 20.709 1.51745 21.7219 1.22276 22.7923C0.943131 23.8664 0.721993 24.9953 0.603033 26.0086C0.56848 26.2614 0.556386 26.5082 0.533927 26.7436C0.517391 26.9791 0.488762 27.2037 0.48654 27.4159C0.476174 27.8402 0.46186 28.2116 0.469017 28.5088C0.494932 29.1033 0.530719 29.3998 0.582301 29.2341C0.683738 28.9052 0.681764 27.2133 1.03568 25.096C1.22498 24.0406 1.49672 22.8831 1.86544 21.749C2.23146 20.614 2.71125 19.5135 3.20807 18.5425C3.15945 18.6484 3.11083 18.7545 3.06196 18.8614C3.01729 18.9705 2.97262 19.0798 2.92745 19.1899C2.83638 19.4093 2.74457 19.6309 2.65201 19.854C2.56835 20.0811 2.48419 20.3097 2.39929 20.5402C2.35659 20.6552 2.31364 20.7704 2.2707 20.8862C2.23294 21.0037 2.19468 21.1216 2.15692 21.2401C1.83114 22.1797 1.58754 23.1691 1.37529 24.1665L1.23732 24.9197C1.18673 25.17 1.16526 25.4247 1.12774 25.6767C1.04926 26.1804 1.02063 26.6879 0.976943 27.1894C0.927829 28.1949 0.917957 29.188 1.00903 30.1377C1.00533 29.9121 1.00162 29.7117 1.00483 29.5177C1.01421 29.324 1.02334 29.1364 1.03322 28.9365C1.04506 28.7368 1.04284 28.5251 1.0616 28.2825C1.07887 28.0399 1.09467 27.7664 1.10849 27.4428C1.20499 25.8119 1.49647 24.1973 1.94961 22.6348C2.38152 21.0656 2.89092 19.6838 3.64985 18.4317C3.71624 18.3051 3.78214 18.1797 3.84754 18.0551C3.98131 17.8024 4.09262 17.5531 4.23404 17.2989C4.3952 17.02 4.54946 16.8112 4.67434 16.6199C4.80293 16.4306 4.91202 16.2643 5.0369 16.1028C5.27605 15.7731 5.52483 15.4293 5.94564 14.8486C5.96415 14.8464 5.94021 14.8942 5.89628 14.9653C6.02116 14.7864 6.19096 14.565 6.37977 14.3508C6.56611 14.1348 6.74702 13.9058 6.90028 13.7167C6.93632 13.715 6.97136 13.714 7.05404 13.6548C9.18891 11.3849 11.8162 9.5351 14.7768 8.36894C14.997 8.2833 15.2164 8.19766 15.4351 8.11251C15.6577 8.03847 15.8798 7.96443 16.1014 7.89063L16.4329 7.78006L16.7686 7.68628C16.9922 7.62408 17.215 7.56238 17.4374 7.50043C17.82 7.40837 18.2074 7.31508 18.6026 7.23117C18.8015 7.19637 19.0022 7.16132 19.204 7.12603C19.4062 7.09123 19.6093 7.05199 19.8171 7.03274C20.2303 6.98313 20.5906 6.87848 20.7848 6.85281C21.8631 6.79136 22.9395 6.8037 24.2029 6.90612C24.3008 6.90785 24.4534 6.91674 24.6303 6.92636C24.8073 6.93648 25.0097 6.94142 25.2059 6.95943C25.4359 7.01126 25.6815 7.0626 25.9391 7.1127C27.511 7.35654 29.0309 7.7924 30.4769 8.37215L30.4752 8.36524C30.6553 8.43706 30.8402 8.51061 31.029 8.58588C31.2136 8.67128 31.4024 8.7584 31.5942 8.847C31.9819 9.01582 32.3618 9.23178 32.7542 9.43514C32.9511 9.53559 33.1377 9.65826 33.3312 9.76932C33.5213 9.8863 33.7202 9.98996 33.9038 10.1178C34.276 10.3651 34.6533 10.6018 35.0011 10.8661C35.5939 11.2914 36.1411 11.7317 36.63 12.149C36.6414 12.1594 36.6532 12.169 36.6646 12.1791C36.669 12.1831 36.6715 12.1853 36.6749 12.1885L37.0345 12.5148L37.3786 12.8581L37.7229 13.2016C37.8369 13.3169 37.9425 13.4403 38.0529 13.5593C37.9995 13.4729 38.0015 13.4381 38.0035 13.4038C37.8334 13.2409 37.6323 13.0481 37.4336 12.8583C37.7651 13.1599 38.0543 13.4327 38.2918 13.6553C38.3833 13.7723 38.4833 13.8873 38.5781 14.0129C38.6731 14.1383 38.7706 14.2674 38.8708 14.3994C38.972 14.5302 39.0759 14.6645 39.182 14.8014C39.2829 14.9426 39.3863 15.0867 39.4917 15.2338C40.0411 15.9343 40.5261 16.6836 40.9866 17.4477C41.1999 17.8396 41.4351 18.2204 41.6249 18.6259L41.9242 19.2272L42.1938 19.8434C42.2713 19.975 42.2411 19.8489 42.2508 19.8267C42.5531 20.5577 42.7962 21.3179 43.0164 22.0839C43.434 23.4552 43.717 24.8785 43.8575 26.3317C43.913 26.6718 43.9367 27.0159 43.9858 27.3567C43.9777 27.5509 43.9673 27.7943 43.9555 28.0784C43.9552 28.3506 43.9695 28.6228 43.9579 28.8955C43.9476 29.168 43.937 29.4415 43.9263 29.7164C43.9224 29.9015 43.8957 30.1036 43.8802 30.3233C43.8595 30.5425 43.8486 30.7789 43.817 31.0282C43.7849 31.277 43.7509 31.5406 43.7153 31.816C43.6827 32.0922 43.6198 32.376 43.5714 32.6726C43.3535 33.8548 43.0045 35.1827 42.5072 36.4937C42.4475 36.6976 42.4018 36.8604 42.3611 36.9515C42.2063 37.322 42.0412 37.6806 41.8818 38.0338C41.7034 38.3778 41.5397 38.7219 41.3568 39.0476C40.7544 40.1943 40.0621 41.2383 39.395 42.1029C39.3121 42.2112 39.2348 42.3213 39.1514 42.423C39.0675 42.5241 38.9853 42.6234 38.9051 42.7206C38.7422 42.9129 38.5966 43.1051 38.4421 43.272C38.1333 43.6057 37.8742 43.9151 37.6311 44.1479C37.3527 44.4386 37.3776 44.4522 37.5703 44.312C37.6661 44.2412 37.8065 44.1346 37.9672 44.0005C38.1229 43.8601 38.3034 43.6975 38.4909 43.5282C38.6825 43.3611 38.8658 43.1725 39.0425 42.9948C39.2173 42.8159 39.392 42.6527 39.5268 42.5051C39.7985 42.2112 39.9769 42.0298 39.9389 42.1105C39.5004 42.9361 38.7017 43.9544 37.5343 45.0808C36.9388 45.6304 36.2687 46.2277 35.4762 46.8035C35.0897 47.1049 34.66 47.3805 34.2219 47.6816C33.7693 47.9588 33.3068 48.2624 32.8011 48.5319C31.6944 49.1346 33.6316 48.1679 33.6839 48.1587C33.5346 48.2752 33.3369 48.4208 33.0972 48.5635C32.7325 48.7575 32.3709 48.9576 31.993 49.1245C31.7721 49.2259 31.5552 49.3355 31.3318 49.4303L30.6583 49.7072C30.7775 49.6603 30.8947 49.6144 31.0147 49.567C31.7433 49.2775 32.4242 48.9364 33.039 48.599C32.808 48.7387 32.5553 48.9004 32.2783 49.0462C31.9814 49.1997 31.6742 49.3676 31.3659 49.5174C31.0549 49.662 30.7504 49.8037 30.4712 49.9335C33.6718 48.7708 36.613 46.8467 38.9414 44.3384C40.107 43.0881 41.1466 41.7146 41.9941 40.2289C42.8468 38.7468 43.5339 37.1707 44.0396 35.5398C43.2612 37.9906 42.0476 40.2419 40.589 42.1455C43.2407 38.5651 44.8217 34.1754 45.0313 29.6483C45.031 29.8978 45.0064 30.1463 44.9898 30.3949C44.9693 30.6434 44.9595 30.8929 44.9303 31.1407C44.8669 31.6356 44.8215 32.1331 44.7262 32.6238C44.5722 33.611 44.3225 34.5812 44.0396 35.5398C44.5979 33.807 44.9313 31.9799 45.0626 30.1424C45.1994 28.3034 45.0853 26.4534 44.8018 24.6606C45.289 27.0354 45.3697 29.726 44.9545 32.3851C45.2463 30.6701 45.3203 28.9022 45.2082 27.1494C45.1831 26.4798 45.1041 25.8149 45.0392 25.1994C44.9461 24.5883 44.8758 24.0241 44.7857 23.5677C45.1423 25.2524 45.283 26.6893 45.3516 28.0438C45.2857 25.0878 44.6734 22.0928 43.471 19.2795C44.1272 20.8075 44.666 22.4512 44.995 24.1411C45.3257 25.8292 45.4632 27.5564 45.385 29.2179C45.3813 29.0234 45.3894 28.8291 45.378 28.6339C45.3692 28.4387 45.3605 28.2425 45.3516 28.0438C45.4225 30.7216 45.0101 33.3758 44.1926 35.8717C43.7824 37.1196 43.2758 38.3321 42.6624 39.486C42.0494 40.6395 41.3423 41.7396 40.5498 42.7724C41.4563 41.7136 42.4134 40.217 43.1773 38.573C43.9377 36.9256 44.5021 35.1439 44.8904 33.5878C44.3192 36.3821 43.1857 39.1395 41.541 41.6018C39.9007 44.0662 37.7522 46.2329 35.2664 47.8959C32.7836 49.564 29.9665 50.7186 27.0757 51.289C25.6304 51.5755 24.1685 51.7243 22.7178 51.7354C21.2673 51.7433 19.8297 51.615 18.433 51.3615L19.1747 51.5024C19.422 51.5493 19.6727 51.5753 19.9215 51.6123C20.4191 51.6922 20.9223 51.7224 21.4238 51.7685C22.4291 51.825 23.4397 51.844 24.4472 51.7673C25.4564 51.7137 26.4592 51.5632 27.4572 51.3793C27.9523 51.2668 28.4533 51.1747 28.9423 51.0303C29.1876 50.9617 29.4359 50.9017 29.6795 50.8255L30.4088 50.589C30.0405 50.703 29.6531 50.8541 29.2392 50.9649C29.0684 51.015 28.8946 51.0661 28.7206 51.1174C29.8189 50.8225 30.8765 50.4567 31.9069 50.0078C32.3766 49.8027 32.8413 49.5808 33.3016 49.3402C32.4447 49.7938 31.5616 50.1971 30.6573 50.5426C28.9282 51.189 27.1292 51.633 25.3115 51.8709C25.0375 51.9144 24.7878 51.9279 24.5639 51.9514C24.3398 51.9736 24.1409 51.9931 23.9647 52.0106C23.612 52.0385 23.3516 52.0511 23.1695 52.0711C22.8049 52.1074 22.7531 52.1412 22.8982 52.1691C23.0431 52.197 23.3847 52.2192 23.8048 52.231C24.2236 52.2285 24.7204 52.2061 25.1723 52.1649C29.7128 51.6992 33.8816 49.9172 37.2223 47.2495C40.5653 44.5813 43.1257 41.0369 44.5527 37.0152C44.6423 36.7817 44.7112 36.5408 44.7857 36.3019C44.858 36.0623 44.938 35.8251 45.0034 35.5832C45.1246 35.097 45.268 34.6165 45.3608 34.1229L45.5135 33.3862L45.6337 32.6428L45.6932 32.2708L45.7357 31.8964L45.8201 31.1476C45.9923 29.1451 45.9242 27.121 45.6197 25.1347C45.4568 24.0108 45.1705 22.6763 44.8015 21.4877C44.704 21.1922 44.6088 20.904 44.5177 20.6278C44.419 20.3546 44.3141 20.0969 44.2208 19.8545C44.1731 19.7336 44.1272 19.6171 44.0833 19.5053C44.0339 19.3957 43.9871 19.2908 43.9424 19.1916C43.8511 18.9939 43.7696 18.8175 43.7003 18.6674C42.9268 17.098 41.9548 15.6011 40.8171 14.2089C39.6805 12.8161 38.3747 11.5266 36.9025 10.4036C36.7181 10.2639 36.5338 10.1237 36.3487 9.9833C36.1576 9.85126 35.9661 9.71897 35.7743 9.58643L35.4866 9.38751L35.1897 9.20092C34.9912 9.07703 34.7925 8.95313 34.5931 8.82874C33.7799 8.35882 32.9469 7.90593 32.0688 7.5303C31.1998 7.1359 30.2903 6.81579 29.3645 6.5295C28.8968 6.40116 28.4314 6.25801 27.9518 6.15954C27.7129 6.10795 27.476 6.04527 27.2344 6.00207C26.9927 5.95913 26.7506 5.91643 26.5078 5.87349C24.7703 5.5677 22.9629 5.49489 21.1573 5.63063C19.3526 5.77008 17.5403 6.11264 15.8026 6.70399L15.1522 6.92932C14.9348 7.00262 14.7253 7.09765 14.5113 7.18082C14.2995 7.26942 14.0831 7.34692 13.8753 7.44465L13.2503 7.73416C13.0401 7.82696 12.8369 7.93358 12.6343 8.04143L12.025 8.36154L11.4321 8.71003C11.2347 8.82652 11.0358 8.9403 10.8467 9.06987L10.2731 9.44699C10.0801 9.56965 9.90144 9.71305 9.7151 9.84484C9.53222 9.98157 9.34243 10.1089 9.16571 10.2531L8.63335 10.6818C8.45343 10.8212 8.28363 10.9725 8.11432 11.124L7.60516 11.5757L7.11871 12.0493C6.9568 12.207 6.79317 12.363 6.64237 12.5308C5.40069 13.8384 4.30981 15.2649 3.41761 16.7744C2.5254 18.2839 1.81263 19.8617 1.27854 21.4543C0.198765 24.6431 -0.110977 27.877 0.033158 30.7979C0.00206048 29.5955 -0.00312243 27.871 0.219003 26.1691ZM35.0512 48.4917C35.801 48.0064 36.5241 47.4805 37.2145 46.9148C36.5135 47.4921 35.7933 48.0252 35.0512 48.4917ZM44.977 35.0946C44.9032 35.3169 44.8408 35.5366 44.7593 35.7464C44.6796 35.9566 44.6011 36.1635 44.5231 36.3691L44.4081 36.6771L44.2815 36.9809C44.1978 37.184 44.1156 37.3889 44.0354 37.5981C43.5793 38.7349 43.0339 39.8396 42.4097 40.893C41.7875 41.9481 41.0663 42.9368 40.2958 43.8645C39.9152 44.3332 39.5006 44.7679 39.0929 45.2025C38.8799 45.4108 38.6674 45.6186 38.4559 45.8252C38.2468 46.0345 38.0181 46.2211 37.8014 46.4185C37.6197 46.5765 37.4366 46.731 37.2522 46.883C37.9364 46.32 38.5882 45.7186 39.201 45.0783C38.2658 46.0461 37.3213 46.8566 36.3161 47.5928C36.0604 47.771 35.8133 47.962 35.5478 48.1298C35.283 48.2987 35.0164 48.4685 34.7464 48.6405C34.4682 48.7987 34.1864 48.9586 33.8999 49.1215C33.6118 49.2814 33.3078 49.4236 33.003 49.5793C33.1802 49.473 33.4122 49.3444 33.6656 49.2072C33.9176 49.0672 34.1819 48.9019 34.4401 48.7506C34.7002 48.6022 34.9367 48.4393 35.1331 48.3031C35.3296 48.1669 35.4836 48.0538 35.5638 47.9808C35.4493 48.0585 35.3328 48.1331 35.2168 48.2088C35.341 48.1266 35.4651 48.0437 35.5887 47.9583C35.5836 47.964 35.5727 47.9729 35.5638 47.9808C38.2619 46.1381 40.5604 43.7167 42.2826 40.9562C44.0125 38.1981 45.1382 35.0869 45.6046 31.9229C45.5034 33.1919 45.2709 34.2053 44.977 35.0946ZM43.3347 18.9653C43.2622 18.7955 43.1891 18.6262 43.1069 18.4633C43.1904 18.6282 43.2627 18.7967 43.3347 18.9653ZM41.2497 15.8314C41.9963 16.9583 42.6375 18.1462 43.1681 19.3735C43.2299 19.509 43.2881 19.6465 43.3456 19.7842C44.5705 22.7839 45.1278 26.0017 45.0461 29.1717C45.0668 28.1228 44.9972 27.0744 44.881 26.0348C44.7494 24.8368 44.5063 23.6531 44.184 22.4954C43.5517 20.1737 42.5247 17.9731 41.2211 15.9671C41.3408 16.1325 41.4669 16.3116 41.5975 16.5017C41.7298 16.6907 41.8648 16.8919 41.9899 17.1096L41.8324 16.8359L41.6624 16.5696L41.3223 16.0374C41.0908 15.686 40.8398 15.3474 40.5982 15.0028C40.3361 14.6736 40.0875 14.3335 39.8148 14.0129C39.6085 13.7777 39.4108 13.5346 39.2015 13.3023C39.9399 14.081 40.6332 14.9165 41.2497 15.8314ZM23.9121 5.84955C24.2742 5.8688 24.637 5.90409 24.9998 5.93124C25.2969 5.95617 25.5926 6.0001 25.8853 6.03317C25.9732 6.03687 26.066 6.0428 26.1825 6.05588C26.2987 6.07192 26.4377 6.10178 26.6191 6.14325C27.9689 6.36833 29.2004 6.7067 30.0746 7.05618C31.7524 7.69121 33.3134 8.48124 34.7294 9.39368C36.1458 10.3044 37.4168 11.3402 38.4922 12.4716C38.9878 13.0094 38.8431 12.8922 38.5699 12.631C38.7059 12.7754 38.8424 12.9203 38.9801 13.0664C38.7985 12.8852 38.62 12.7016 38.4356 12.5244L37.8677 12.0086C38.006 12.1295 38.3411 12.419 38.5699 12.631C36.7463 10.7704 34.6146 9.22536 32.3072 8.08882C29.9981 6.95277 27.5115 6.2511 25.0259 5.97098C25.4253 6.0154 25.6212 6.02527 25.8078 6.03021C25.54 5.99887 25.2715 5.95592 24.9998 5.93124C24.6348 5.9073 24.2705 5.87472 23.9082 5.85695C23.5456 5.84831 23.1858 5.83992 22.8321 5.83153C23.1885 5.83128 23.5496 5.84116 23.9121 5.84955Z" fill="white"/>
<path d="M28.6153 51.1478C28.6506 51.1374 28.6851 51.1273 28.7204 51.1169C28.6103 51.1466 28.502 51.1791 28.3912 51.2073C28.4662 51.1885 28.5415 51.1703 28.6153 51.1478Z" fill="#282827"/>
<path d="M39.5936 41.6361C40.6389 40.2572 41.5624 38.6096 42.152 37.1902L42.1449 37.1917C40.649 40.7264 38.2226 43.7715 35.1948 46.0135C35.7817 45.6063 36.3129 45.2119 36.7788 44.8528C37.4447 44.1568 38.559 43.0249 39.5936 41.6361Z" fill="#282827"/>
<path d="M8.72473 45.7566C10.4948 47.3391 12.6294 48.7163 15.0054 49.644C15.932 49.9928 16.8775 50.2983 17.8445 50.5135C18.3242 50.6374 18.8142 50.7139 19.3004 50.805C19.544 50.8482 19.7908 50.8721 20.0356 50.9067C20.2809 50.9385 20.5258 50.9746 20.7728 50.9889C19.6575 50.8652 18.5503 50.6801 17.4725 50.3867C16.3955 50.0942 15.3396 49.7326 14.3211 49.2886C13.3059 48.8367 12.3251 48.3157 11.3855 47.7303C10.4511 47.136 9.56511 46.4723 8.72473 45.7566Z" fill="#282827"/>
<path d="M30.5736 48.5776L30.026 48.7926L29.4667 48.9792C29.0965 49.1125 28.7147 49.2122 28.3339 49.3181C28.7167 49.2218 29.1017 49.132 29.4751 49.0086C29.6634 48.9511 29.8512 48.8935 30.0385 48.8363C30.2227 48.7692 30.406 48.702 30.5889 48.6351C30.5677 48.6243 30.4423 48.6487 30.5736 48.5776Z" fill="#282827"/>
<path d="M24.1088 49.9814C23.8225 50.0059 23.5347 50.0037 23.2465 50.0066C22.9582 50.0101 22.6694 50.0162 22.3804 49.9972C22.5199 50.0103 22.6502 50.0227 22.7694 50.0338C22.8884 50.0414 22.9955 50.0506 23.089 50.0617C23.4299 50.0325 23.7682 50.0244 24.1088 49.9814Z" fill="#282827"/>
<path d="M12.696 47.3269C13.027 47.5212 13.3784 47.6922 13.7272 47.8808C13.8145 47.9286 13.973 47.9832 14.1717 48.0557C13.7469 47.8734 13.3399 47.6473 12.9263 47.4375C12.7214 47.3287 12.5242 47.2067 12.3233 47.0932C12.1229 46.9787 11.9233 46.8644 11.7337 46.7366C11.8102 46.7879 11.8875 46.8395 11.965 46.8911C12.0449 46.939 12.1254 46.9868 12.2061 47.0352C12.3677 47.1315 12.5314 47.2289 12.696 47.3269Z" fill="#282827"/>
<path d="M20.8389 21.899C20.8389 21.5026 21.1589 21.1805 21.5574 21.1805H24.3518C24.7503 21.1805 25.0723 21.5026 25.0723 21.899V22.8529C25.425 22.8967 25.7551 22.9528 26.0701 23.02V21.0949C26.0701 20.5099 25.5962 20.0381 25.0112 20.0381H20.899C20.314 20.0381 19.8401 20.5099 19.8401 21.0949V23.02C20.1551 22.9528 20.4853 22.8967 20.8389 22.8529V21.899Z" fill="#4BC56B"/>
<path d="M31.0719 38.3566C31.0719 29.9804 31.0556 25.6675 27.2421 24.1581V15.7942H26.3666V23.8758C26.2647 23.8524 26.175 23.8178 26.0701 23.7964C25.7552 23.7291 25.425 23.671 25.0723 23.6292C24.4354 23.5518 23.7332 23.5141 22.9546 23.5141C22.176 23.5141 21.4738 23.5518 20.8389 23.6292C20.4842 23.671 20.154 23.7291 19.8402 23.7964C19.7342 23.8178 19.6455 23.8524 19.5456 23.8758V15.7942H18.6682V24.1581C14.8546 25.6664 14.8403 29.9804 14.8403 38.3566C14.8403 40.9064 15.5293 42.4514 16.6778 43.3809C16.6656 43.5103 16.6574 43.656 16.6574 43.8272C16.6574 44.5498 17.0498 45.1348 17.5288 45.1348C17.8875 45.1348 18.4246 44.8127 18.6773 44.349C19.9217 44.6894 21.3841 44.7628 22.9546 44.7628C24.5271 44.7628 25.9885 44.6894 27.2319 44.349C27.4846 44.8127 28.0217 45.1348 28.3804 45.1348C28.8625 45.1348 29.2518 44.5498 29.2518 43.8272C29.2518 43.656 29.2436 43.5103 29.2314 43.3809C30.381 42.4504 31.0719 40.9064 31.0719 38.3566ZM21.0417 25.6491L21.8438 24.8471C21.9396 24.7513 22.1169 24.7217 22.2382 24.7798L22.9485 25.1161C23.0698 25.1722 23.2471 25.2975 23.3429 25.3923L24.8532 26.9026C24.949 26.9984 24.949 27.1533 24.8532 27.2491L23.4438 28.6606C23.348 28.7544 23.1931 28.7544 23.0973 28.6606L21.5869 27.1483C21.4911 27.0545 21.3658 26.8751 21.3087 26.7559L20.9744 26.0435C20.9164 25.9212 20.9459 25.7449 21.0417 25.6491ZM28.7687 39.5958H17.1425C16.8735 39.5958 16.6564 39.3788 16.6564 39.1097C16.6564 38.8427 16.8735 38.6256 17.1425 38.6256H28.7687C29.0357 38.6256 29.2528 38.8427 29.2528 39.1097C29.2528 39.3798 29.0357 39.5958 28.7687 39.5958ZM18.3308 37.7451V34.6144H21.4636V37.7451H18.3308ZM24.9949 37.7451V31.3521H27.5784V37.7451H24.9949ZM28.7687 30.3147H17.1425C16.8735 30.3147 16.6564 30.0976 16.6564 29.8286C16.6564 29.5615 16.8735 29.3445 17.1425 29.3445H28.7687C29.0357 29.3445 29.2528 29.5615 29.2528 29.8286C29.2528 30.0976 29.0357 30.3147 28.7687 30.3147Z" fill="#4BC56B"/>
<path d="M22.0537 26.2037C22.2428 26.2037 22.3961 26.0503 22.3961 25.8612C22.3961 25.6721 22.2428 25.5188 22.0537 25.5188C21.8646 25.5188 21.7112 25.6721 21.7112 25.8612C21.7112 26.0503 21.8646 26.2037 22.0537 26.2037Z" fill="#4BC56B"/>
<path d="M19.6985 14.5939C19.6985 14.1516 20.0572 13.7938 20.4985 13.7938C20.4985 13.7938 21.9395 14.122 22.9352 14.122C23.9309 14.122 25.4117 13.7938 25.4117 13.7938C25.854 13.7938 26.2117 14.1526 26.2117 14.5939V15.3246H27.3205V13.698C27.3205 13.0489 26.7946 12.522 26.1444 12.522H19.7657C19.1165 12.522 18.5897 13.0499 18.5897 13.698V15.3246H19.6985V14.5939Z" fill="#4BC56B"/>
<path d="M54.0816 21.0284C55.5925 20.923 57.077 20.8088 58.5352 20.6858C59.9934 20.5629 61.513 20.4311 63.0942 20.2906C63.4456 20.3257 63.6739 20.5102 63.7794 20.844C63.8848 21.1778 63.7442 21.3798 63.3577 21.4501C62.0576 21.5906 60.5643 21.7839 58.8778 22.0298C57.1912 22.2758 55.5925 22.592 54.0816 22.9785C54.1518 24.0678 54.187 25.1834 54.187 26.3253C54.187 27.4673 54.2133 28.5917 54.266 29.6985C54.3187 30.8053 54.4241 31.877 54.5823 32.9135C54.7404 33.95 54.9951 34.9075 55.3465 35.7859C55.8384 36.3833 56.3303 36.7346 56.8222 36.84C57.3142 36.9455 57.7797 36.9191 58.2189 36.761C58.6581 36.6029 59.0622 36.3569 59.4312 36.0231C59.8001 35.6893 60.1251 35.3643 60.4062 35.0481C60.6522 34.8021 60.8542 34.8021 61.0123 35.0481C61.1704 35.294 61.0211 35.663 60.5643 36.1549C60.3535 36.4008 60.09 36.6644 59.7737 36.9455C59.4575 37.2266 59.0798 37.4637 58.6406 37.657C58.2014 37.8502 57.7095 37.9732 57.1648 38.0259C56.6202 38.0786 56.0317 38.0171 55.3992 37.8414C54.5911 37.6306 53.9937 36.9806 53.6072 35.8913C53.2207 34.8021 52.9308 33.5284 52.7376 32.0702C52.5443 30.612 52.4126 29.0924 52.3423 27.5112C52.272 25.93 52.1842 24.507 52.0788 23.2421C50.5327 23.3826 49.3996 23.5056 48.6793 23.611C47.959 23.7164 47.4407 23.7867 47.1245 23.8218C46.8082 23.857 46.5974 23.8394 46.492 23.7691C46.3866 23.6988 46.1933 23.5407 45.9122 23.2948C45.9474 23.1191 45.9562 22.9522 45.9386 22.7941C45.921 22.6359 45.921 22.5042 45.9386 22.3988C45.9562 22.2934 46.0264 22.188 46.1494 22.0825C46.2724 21.9771 46.5096 21.8893 46.8609 21.819C47.388 21.6785 48.1522 21.5994 49.1536 21.5818C50.155 21.5643 51.1301 21.4852 52.0788 21.3447C52.0436 20.2203 52.0085 19.3419 51.9734 18.7094C51.9382 18.0769 51.9031 17.5235 51.8679 17.0492C51.8328 16.5748 51.8064 16.1093 51.7889 15.6525C51.7713 15.1957 51.7625 14.5984 51.7625 13.8605C51.7625 13.6848 51.8592 13.5531 52.0524 13.4652C52.2457 13.3774 52.4653 13.3247 52.7112 13.3071C52.9572 13.2895 53.1856 13.3247 53.3964 13.4125C53.6072 13.5003 53.7478 13.6321 53.818 13.8078C53.9234 14.124 53.9937 14.5896 54.0289 15.2045C54.064 15.8194 54.0903 16.4694 54.1079 17.1546C54.1255 17.8398 54.1343 18.5337 54.1343 19.2364C54.1343 19.9392 54.1167 20.5365 54.0816 21.0284ZM61.882 20.0797C61.8468 19.7635 62.0137 19.6844 62.3827 19.8426C62.7516 20.0007 63.1293 20.1676 63.5158 20.3433C63.6564 21.1514 63.7618 21.7927 63.8321 22.267C63.9023 22.7414 63.955 23.1894 63.9902 23.611C64.0253 24.0326 64.0604 24.4894 64.0956 24.9813C64.1307 25.4733 64.1834 26.1233 64.2537 26.9314C64.5699 26.1233 64.9564 25.3766 65.4132 24.6915C65.87 24.0063 66.4585 23.4177 67.1788 22.9258C67.8992 22.4339 68.76 22.0738 69.7614 21.8454C70.7628 21.617 71.9663 21.5379 73.3717 21.6082C73.3717 21.8893 73.2751 22.1265 73.0819 22.3197C72.8886 22.513 72.4406 22.6623 71.7379 22.7677C70.7189 22.9434 69.8317 23.286 69.0762 23.7955C68.3208 24.305 67.6708 24.8935 67.1261 25.5611C66.5815 26.2287 66.1423 26.9402 65.8085 27.6957C65.4747 28.4511 65.2024 29.1451 64.9916 29.7775C64.9564 30.0938 64.9125 30.5418 64.8598 31.1215C64.8071 31.7013 64.772 32.3162 64.7544 32.9662C64.7368 33.6162 64.7193 34.2487 64.7017 34.8636C64.6841 35.4785 64.7105 35.9616 64.7808 36.313C64.8159 36.4887 64.7368 36.6204 64.5436 36.7083C64.3503 36.7961 64.1307 36.8576 63.8848 36.8927C63.6388 36.9279 63.4104 36.9103 63.1996 36.84C62.9888 36.7698 62.8834 36.6468 62.8834 36.4711C62.9536 32.852 62.857 29.7336 62.5935 27.1159C62.33 24.4982 62.0928 22.1528 61.882 20.0797ZM74.4785 13.5443C74.8299 13.474 75.0407 13.6848 75.111 14.1767C75.1813 14.6686 75.111 15.0376 74.9002 15.2835C74.5137 15.5998 74.2677 15.8721 74.1623 16.1005C74.0569 16.3289 73.8109 16.4782 73.4244 16.5485C73.2136 16.5133 73.0291 16.5046 72.871 16.5221C72.7129 16.5397 72.5812 16.2498 72.4757 15.6525C72.6163 15.266 72.8359 14.8795 73.1346 14.493C73.4332 14.1065 73.8812 13.7902 74.4785 13.5443ZM74.6367 20.396C74.8123 22.0825 74.9353 23.936 75.0056 25.9564C75.0759 27.9768 75.1989 30.0938 75.3745 32.3074C75.5151 33.4318 75.6556 34.3102 75.7962 34.9426C75.9367 35.5751 76.0421 36.1724 76.1124 36.7346C75.5502 36.84 75.111 36.8313 74.7948 36.7083C74.4785 36.5853 74.1799 36.436 73.8988 36.2603C73.8285 35.6981 73.7495 34.767 73.6616 33.4669C73.5738 32.1668 73.4859 30.7526 73.3981 29.2241C73.3102 27.6957 73.2224 26.2111 73.1346 24.7705C73.0467 23.3299 72.9677 22.188 72.8974 21.3447C73.0379 21.2744 73.1521 21.169 73.24 21.0284C73.3278 20.8879 73.4244 20.7649 73.5298 20.6595C73.6353 20.5541 73.7758 20.4662 73.9515 20.396C74.1272 20.3257 74.3556 20.3257 74.6367 20.396ZM90.4483 22.2934C90.5888 22.3636 90.7557 22.4515 90.949 22.5569C91.1422 22.6623 91.3267 22.8204 91.5024 23.0312C91.6781 23.2421 91.8274 23.5144 91.9504 23.8482C92.0734 24.182 92.1348 24.6124 92.1348 25.1395C92.0646 26.9666 91.6078 28.618 90.7645 30.0938C89.9212 31.5695 88.911 32.8169 87.7339 33.8358C86.5569 34.8548 85.3359 35.6103 84.0709 36.1022C82.806 36.5941 81.7343 36.7698 80.8559 36.6292C80.8559 40.0375 80.8822 42.8836 80.935 45.1675C80.9877 47.4514 81.0228 49.3224 81.0404 50.7806C81.0579 52.2388 81.0579 53.3368 81.0404 54.0747C81.0228 54.8126 80.9701 55.3221 80.8822 55.6032C80.7944 55.8843 80.6363 56.016 80.4079 55.9985C80.1795 55.9809 79.8896 55.937 79.5383 55.8667C79.468 55.9721 79.4153 55.8843 79.3801 55.6032C79.345 55.3572 79.3187 54.918 79.3011 54.2855C79.2835 53.6531 79.2747 52.6692 79.2747 51.334C79.2747 51.2286 79.2659 50.6225 79.2484 49.5157C79.2308 48.4089 79.2132 47.021 79.1957 45.352C79.1781 43.683 79.143 41.8471 79.0903 39.8443C79.0376 37.8414 78.9761 35.8913 78.9058 33.994C78.8355 32.0966 78.7565 30.3397 78.6686 28.7234C78.5808 27.1071 78.4666 25.8598 78.326 24.9813C78.326 24.9111 78.3085 24.7354 78.2733 24.4543L78.1416 23.4002C78.1416 23.4002 78.0713 22.9434 77.9307 22.0298C77.7902 21.1163 77.6936 20.6419 77.6409 20.6068C78.2382 20.5717 78.6423 20.6331 78.8531 20.7913C79.0639 20.9494 79.2747 21.1338 79.4856 21.3447C79.6964 22.0123 79.8984 23.0839 80.0917 24.5597C80.2849 26.0354 80.5045 28.0382 80.7505 30.5681C80.8208 30.2167 81.0052 29.7248 81.3039 29.0924C81.6026 28.4599 81.9978 27.7835 82.4898 27.0632C82.9817 26.3429 83.5439 25.6314 84.1763 24.9286C84.8088 24.2259 85.4764 23.6286 86.1791 23.1366C86.8819 22.6447 87.5934 22.3021 88.3137 22.1089C89.034 21.9156 89.7455 21.9771 90.4483 22.2934ZM83.8074 34.1521C85.4237 33.4845 86.6974 32.6236 87.6285 31.5695C88.5597 30.5154 89.236 29.4701 89.6577 28.4335C90.0793 27.397 90.2902 26.4747 90.2902 25.6665C90.2902 24.8584 90.132 24.3489 89.8158 24.1381C89.1131 23.6813 88.4455 23.6286 87.813 23.9799C87.1805 24.3313 86.5656 24.7529 85.9683 25.2449C85.6521 25.526 85.2129 26.0267 84.6507 26.747C84.0885 27.4673 83.5263 28.2666 82.9641 29.1451C82.4019 30.0235 81.9188 30.9107 81.5147 31.8067C81.1106 32.7027 80.9086 33.4845 80.9086 34.1521C81.0491 34.3278 81.26 34.4507 81.5411 34.521C81.7519 34.5913 82.0418 34.6089 82.4107 34.5737C82.7796 34.5386 83.2452 34.398 83.8074 34.1521ZM105.996 22.2934C106.137 22.3636 106.304 22.4515 106.497 22.5569C106.69 22.6623 106.875 22.8204 107.05 23.0312C107.226 23.2421 107.375 23.5144 107.498 23.8482C107.621 24.182 107.683 24.6124 107.683 25.1395C107.613 26.9666 107.156 28.618 106.313 30.0938C105.469 31.5695 104.459 32.8169 103.282 33.8358C102.105 34.8548 100.884 35.6103 99.619 36.1022C98.3541 36.5941 97.2824 36.7698 96.404 36.6292C96.404 40.0375 96.4303 42.8836 96.483 45.1675C96.5357 47.4514 96.5709 49.3224 96.5884 50.7806C96.606 52.2388 96.606 53.3368 96.5884 54.0747C96.5709 54.8126 96.5182 55.3221 96.4303 55.6032C96.3425 55.8843 96.1844 56.016 95.956 55.9985C95.7276 55.9809 95.4377 55.937 95.0863 55.8667C95.0161 55.9721 94.9634 55.8843 94.9282 55.6032C94.8931 55.3572 94.8667 54.918 94.8492 54.2855C94.8316 53.6531 94.8228 52.6692 94.8228 51.334C94.8228 51.2286 94.814 50.6225 94.7965 49.5157C94.7789 48.4089 94.7613 47.021 94.7438 45.352C94.7262 43.683 94.6911 41.8471 94.6383 39.8443C94.5856 37.8414 94.5242 35.8913 94.4539 33.994C94.3836 32.0966 94.3046 30.3397 94.2167 28.7234C94.1289 27.1071 94.0147 25.8598 93.8741 24.9813C93.8741 24.9111 93.8566 24.7354 93.8214 24.4543L93.6897 23.4002C93.6897 23.4002 93.6194 22.9434 93.4788 22.0298C93.3383 21.1163 93.2417 20.6419 93.189 20.6068C93.7863 20.5717 94.1904 20.6331 94.4012 20.7913C94.612 20.9494 94.8228 21.1338 95.0336 21.3447C95.2445 22.0123 95.4465 23.0839 95.6398 24.5597C95.833 26.0354 96.0526 28.0382 96.2986 30.5681C96.3688 30.2167 96.5533 29.7248 96.852 29.0924C97.1506 28.4599 97.5459 27.7835 98.0378 27.0632C98.5298 26.3429 99.092 25.6314 99.7244 24.9286C100.357 24.2259 101.024 23.6286 101.727 23.1366C102.43 22.6447 103.141 22.3021 103.862 22.1089C104.582 21.9156 105.294 21.9771 105.996 22.2934ZM99.3555 34.1521C100.972 33.4845 102.245 32.6236 103.177 31.5695C104.108 30.5154 104.784 29.4701 105.206 28.4335C105.627 27.397 105.838 26.4747 105.838 25.6665C105.838 24.8584 105.68 24.3489 105.364 24.1381C104.661 23.6813 103.994 23.6286 103.361 23.9799C102.729 24.3313 102.114 24.7529 101.516 25.2449C101.2 25.526 100.761 26.0267 100.199 26.747C99.6366 27.4673 99.0744 28.2666 98.5122 29.1451C97.95 30.0235 97.4669 30.9107 97.0628 31.8067C96.6587 32.7027 96.4567 33.4845 96.4567 34.1521C96.5972 34.3278 96.8081 34.4507 97.0891 34.521C97.3 34.5913 97.5899 34.6089 97.9588 34.5737C98.3277 34.5386 98.7933 34.398 99.3555 34.1521ZM120.438 21.2393C120.402 21.4501 120.323 21.8893 120.2 22.5569C120.077 23.2245 119.946 24.0063 119.805 24.9023C119.665 25.7983 119.542 26.7382 119.436 27.722C119.331 28.7058 119.269 29.637 119.252 30.5154C119.234 31.3938 119.287 32.1405 119.41 32.7554C119.533 33.3703 119.735 33.748 120.016 33.8885C120.824 34.2751 121.65 34.1433 122.493 33.4933C123.336 32.8432 124.32 31.8506 125.445 30.5154C125.55 30.5154 125.559 30.6559 125.471 30.937C125.383 31.2181 125.243 31.5256 125.049 31.8594L124.47 32.8608C124.47 32.8608 124.32 33.0804 124.022 33.5196C123.741 33.871 123.336 34.2663 122.809 34.7055C122.282 35.1447 121.72 35.4961 121.123 35.7596C120.525 36.0231 119.954 36.1373 119.41 36.1022C118.865 36.067 118.417 35.7508 118.066 35.1535C117.89 34.7318 117.785 34.2136 117.75 33.5987C117.715 32.9838 117.715 32.3601 117.75 31.7276C117.785 31.0952 117.837 30.5154 117.908 29.9883C117.978 29.4613 118.031 29.0748 118.066 28.8288C117.328 30.1992 116.485 31.4992 115.536 32.729C114.587 33.9588 113.656 34.9251 112.743 35.6278C111.829 36.3306 110.986 36.7083 110.213 36.761C109.44 36.8137 108.842 36.3657 108.421 35.417C108.175 34.5034 108.175 33.4757 108.421 32.3337C108.667 31.1918 109.036 30.164 109.528 29.2505C110.265 27.9855 111.039 26.826 111.847 25.7719C112.655 24.7178 113.516 23.8218 114.429 23.0839C115.343 22.3461 116.3 21.8102 117.302 21.4764C118.303 21.1426 119.348 21.0636 120.438 21.2393ZM110.529 34.6264C110.88 34.6967 111.443 34.4332 112.216 33.8358C112.989 33.2385 113.797 32.404 114.64 31.3323C115.483 30.2607 116.248 29.0133 116.933 27.5903C117.618 26.1672 118.066 24.6651 118.277 23.0839H117.671C117.671 23.0839 117.363 23.1894 116.748 23.4002C115.413 24.2786 114.271 25.3064 113.322 26.4834C112.374 27.6605 111.636 28.8025 111.109 29.9093C110.582 31.0161 110.265 32.0087 110.16 32.8871C110.055 33.7656 110.178 34.3453 110.529 34.6264ZM127.237 25.8246C127.237 25.93 127.289 26.4219 127.395 27.3004C127.5 28.1788 127.623 29.2505 127.764 30.5154C127.904 31.7803 128.071 33.1419 128.264 34.6001C128.458 36.0583 128.633 37.4462 128.791 38.7638C128.95 40.0814 129.099 41.2409 129.239 42.2423C129.38 43.2437 129.468 43.885 129.503 44.1661C129.292 44.131 129.116 44.0958 128.976 44.0607C128.835 44.0255 128.695 43.9377 128.554 43.7972C128.414 43.6566 128.247 43.4546 128.054 43.191C127.86 42.9275 127.588 42.5498 127.237 42.0579C126.78 38.8253 126.42 36.0055 126.156 33.5987C125.893 31.1918 125.673 29.2329 125.497 27.722C124.865 28.5653 124.408 29.1275 124.127 29.4086C123.846 29.6897 123.67 29.8302 123.6 29.8302C123.495 29.8302 123.477 29.6721 123.547 29.3559L123.653 28.8288C123.653 28.8288 123.688 28.6707 123.758 28.3545C123.828 28.0382 123.881 27.9153 123.916 27.9855C124.162 27.6342 124.382 27.2828 124.575 26.9314C124.768 26.5801 124.918 26.2638 125.023 25.9827C125.164 25.6314 125.269 25.2976 125.339 24.9813C125.304 24.5948 125.278 24.261 125.26 23.9799C125.243 23.6988 125.234 23.409 125.234 23.1103C125.234 22.8116 125.225 22.5042 125.207 22.188C125.19 21.8717 125.181 21.4676 125.181 20.9757V18.8939V15.7842C125.181 15.7842 125.199 14.5808 125.234 12.1739C125.269 9.76705 125.313 8.56361 125.366 8.56361C125.418 8.56361 125.489 7.52707 125.576 5.45399C125.664 3.38091 125.761 2.66939 125.866 3.31943C126.112 2.30045 126.49 1.51866 126.999 0.974035C127.509 0.429413 128.045 0.113181 128.607 0.0253392C129.169 -0.0625031 129.723 0.0780442 130.267 0.446982C130.812 0.815919 131.225 1.38689 131.506 2.15991C131.822 2.93292 131.98 3.93432 131.98 5.16411C131.98 6.39391 131.875 7.73789 131.664 9.19608C131.453 10.6543 131.163 12.1739 130.794 13.7551C130.425 15.3363 130.03 16.8735 129.608 18.3668C129.187 19.8601 128.765 21.2568 128.343 22.5569C127.922 23.857 127.553 24.9462 127.237 25.8246ZM126.815 22.8204C127.693 20.2554 128.414 17.7343 128.976 15.2572C129.538 12.78 129.951 10.5576 130.214 8.58996C130.478 6.62229 130.566 5.03235 130.478 3.82013C130.39 2.6079 130.135 1.98422 129.714 1.94909C129.046 1.70313 128.519 1.93152 128.133 2.63425C127.746 3.33699 127.439 4.32083 127.21 5.58576C126.982 6.85069 126.833 8.30008 126.762 9.93395C126.692 11.5678 126.666 13.1929 126.683 14.8092C126.701 16.4255 126.727 17.954 126.762 19.3946C126.797 20.8352 126.815 21.9771 126.815 22.8204Z" fill="white"/>
</svg>
