<svg width="90" height="38" viewBox="0 0 90 38" fill="none" xmlns="http://www.w3.org/2000/svg">
<path d="M3.00022 28.7146C2.88902 28.5616 2.78033 28.407 2.67465 28.2501C2.77949 28.4063 2.88885 28.5609 3.00022 28.7146Z" fill="#2A3D4B"/>
<path d="M3.79457 29.7252C4.10339 30.0857 4.42897 30.4368 4.77614 30.7721C5.93407 31.9117 7.3149 32.8697 8.79622 33.5942C9.34202 33.8498 9.84545 34.1145 10.4353 34.3425C10.5827 34.3991 10.7332 34.4597 10.8915 34.5143C11.0511 34.5649 11.2166 34.6154 11.3896 34.6655C11.5616 34.7193 11.745 34.7575 11.9367 34.7972C12.1286 34.8357 12.3279 34.8797 12.542 34.9017C11.4869 34.6793 10.4489 34.3435 9.45473 33.8985C8.46161 33.4512 7.51252 32.8971 6.62892 32.2502C4.86239 30.9561 3.35143 29.2946 2.24777 27.3952C2.20221 27.3385 2.13305 27.2303 2.05015 27.0925C2.00928 27.0233 1.9644 26.9471 1.91684 26.8667C1.87396 26.7836 1.82858 26.6962 1.78235 26.6069C1.69292 26.4267 1.58992 26.2439 1.51104 26.0667C1.42965 25.8908 1.35311 25.7299 1.28897 25.6064C1.63196 26.4607 2.02787 27.208 2.47118 27.9186C2.67466 28.2428 2.88903 28.5597 3.11914 28.8727C3.08699 28.8293 3.05349 28.7871 3.0215 28.7436C3.26367 29.0762 3.51958 29.4034 3.79189 29.7218C3.79273 29.7227 3.79356 29.724 3.79457 29.7252Z" fill="#2A3D4B"/>
<path d="M3.02083 28.743C3.01391 28.7336 3.00698 28.7242 3.00021 28.715C3.00714 28.7242 3.01407 28.7336 3.02083 28.743Z" fill="#2A3D4B"/>
<path d="M0.223621 21.5358C0.196993 21.3219 0.170029 21.1059 0.142731 20.8868C0.185604 21.2829 0.235345 21.7256 0.326284 22.1687C0.308029 22.0642 0.289942 21.9592 0.271519 21.854C0.251757 21.749 0.23501 21.643 0.223621 21.5358Z" fill="#2A3D4B"/>
<path d="M14.3714 34.8556C15.4855 34.9683 16.6538 34.9347 17.7981 34.7536C18.9432 34.5733 20.0631 34.2534 21.1043 33.8411C19.1867 34.5952 17.1515 34.9307 15.1606 34.8746C14.8941 34.8704 14.6315 34.8746 14.3714 34.8556Z" fill="#2A3D4B"/>
<path d="M7.77526 32.5766C7.76085 32.5674 7.74628 32.5582 7.73187 32.549C7.74645 32.5582 7.76068 32.5676 7.77526 32.5766Z" fill="#2A3D4B"/>
<path d="M7.73189 32.549C7.58903 32.4582 7.44919 32.3648 7.31085 32.2698C7.44852 32.3653 7.58953 32.4577 7.73189 32.549Z" fill="#2A3D4B"/>
<path d="M7.31087 32.2698C7.16031 32.1654 7.00992 32.0608 6.86539 31.9521C7.01076 32.0606 7.15998 32.1661 7.31087 32.2698Z" fill="#2A3D4B"/>
<path d="M9.39157 33.4671C10.3025 33.8913 11.2723 34.2217 12.2593 34.4411C10.6368 34.071 9.10988 33.418 7.77527 32.5766C8.28774 32.9027 8.82651 33.2045 9.39157 33.4671Z" fill="#2A3D4B"/>
<path d="M29.6435 21.7121C29.6599 21.4475 29.6931 21.1699 29.7015 21.0377C29.8009 20.1885 29.8304 19.4633 29.8262 18.7358C29.8078 18.6046 29.7551 18.359 29.7341 18.0796C29.7085 17.7996 29.6708 17.5254 29.639 17.255C29.5906 16.9868 29.5489 16.7214 29.496 16.4611C29.877 18.4067 29.8706 20.3598 29.5201 22.2025C29.5611 22.029 29.6023 21.8644 29.6435 21.7121Z" fill="#2A3D4B"/>
<path d="M0.148609 17.7576C0.290628 16.602 0.592921 15.4756 0.880476 14.7251L0.764081 15.2744C0.835928 15.1135 0.951988 14.7395 1.11025 14.3438C1.14793 14.2443 1.18629 14.1428 1.22447 14.042C1.26718 13.943 1.30955 13.8445 1.35058 13.7494C1.43432 13.56 1.50466 13.3804 1.57885 13.2428C1.5281 13.3719 1.4792 13.5111 1.42025 13.6507C1.36247 13.7909 1.29766 13.9333 1.23586 14.0765C1.3623 13.7914 1.3623 13.7914 1.48942 13.5055C1.26969 14.0525 1.0297 14.7398 0.829731 15.4662C0.639982 16.195 0.489924 16.9611 0.409201 17.6487C0.385754 17.8202 0.377548 17.9877 0.362308 18.1475C0.351087 18.3072 0.33166 18.4596 0.330152 18.6037C0.323118 18.8915 0.313405 19.1436 0.318262 19.3452C0.335846 19.7487 0.36013 19.9498 0.395133 19.8375C0.463965 19.6142 0.462625 18.4662 0.702785 17.0294C0.831239 16.3133 1.01563 15.5278 1.26584 14.7583C1.5142 13.988 1.83978 13.2413 2.1769 12.5824C2.14391 12.6543 2.11092 12.7263 2.07776 12.7988C2.04744 12.8728 2.01713 12.947 1.98648 13.0217C1.92469 13.1706 1.86238 13.321 1.79958 13.4724C1.74281 13.6265 1.6857 13.7815 1.62809 13.938C1.59911 14.016 1.56997 14.0942 1.54083 14.1728C1.51521 14.2525 1.48925 14.3325 1.46363 14.4129C1.24256 15.0505 1.07726 15.7219 0.933231 16.3987L0.839612 16.9098C0.80528 17.0796 0.790709 17.2525 0.765253 17.4235C0.711996 17.7653 0.692569 18.1096 0.662926 18.4499C0.629598 19.1322 0.622899 19.8061 0.684698 20.4506C0.682185 20.2975 0.679673 20.1615 0.681851 20.0299C0.688215 19.8984 0.694411 19.7711 0.70111 19.6355C0.709149 19.5 0.707642 19.3563 0.72037 19.1917C0.732093 19.027 0.742812 18.8415 0.75219 18.6219C0.817673 17.5152 1.01546 16.4196 1.32295 15.3593C1.61603 14.2945 1.9617 13.3568 2.47668 12.5072C2.52173 12.4213 2.56645 12.3362 2.61083 12.2517C2.7016 12.0802 2.77713 11.911 2.8731 11.7385C2.98246 11.5493 3.08713 11.4076 3.17187 11.2778C3.25913 11.1493 3.33315 11.0365 3.4179 10.9269C3.58018 10.7032 3.74899 10.4699 4.03454 10.0758C4.0471 10.0743 4.03086 10.1068 4.00104 10.155C4.08579 10.0336 4.20101 9.88338 4.32913 9.73802C4.45557 9.59148 4.57833 9.43606 4.68233 9.30777C4.70679 9.3066 4.73057 9.30593 4.78667 9.26574C6.23533 7.72547 8.01811 6.47024 10.0271 5.67892C10.1765 5.6208 10.3254 5.56269 10.4738 5.50491C10.6249 5.45467 10.7756 5.40442 10.926 5.35435L11.1509 5.27932L11.3787 5.21568C11.5304 5.17348 11.6816 5.13161 11.8325 5.08957C12.0921 5.0271 12.3551 4.9638 12.6232 4.90685C12.7582 4.88324 12.8943 4.85946 13.0313 4.83551C13.1685 4.8119 13.3063 4.78527 13.4473 4.7722C13.7277 4.73854 13.9722 4.66753 14.104 4.65012C14.8357 4.60841 15.5661 4.61679 16.4234 4.68629C16.4899 4.68746 16.5933 4.69349 16.7134 4.70002C16.8335 4.70689 16.9708 4.71024 17.104 4.72246C17.2601 4.75763 17.4267 4.79247 17.6016 4.82647C18.6682 4.99193 19.6995 5.28769 20.6808 5.68109L20.6796 5.6764C20.8018 5.72514 20.9273 5.77505 21.0554 5.82613C21.1807 5.88407 21.3088 5.94319 21.4389 6.00332C21.702 6.11787 21.9598 6.26441 22.226 6.40241C22.3597 6.47057 22.4863 6.55381 22.6176 6.62917C22.7466 6.70855 22.8815 6.77889 23.0061 6.86565C23.2587 7.03346 23.5148 7.19407 23.7507 7.37343C24.153 7.66199 24.5243 7.96077 24.8561 8.24397C24.8638 8.251 24.8718 8.25753 24.8795 8.2644C24.8825 8.26708 24.8842 8.26859 24.8866 8.27076L25.1306 8.49217L25.364 8.72513L25.5977 8.95825C25.675 9.03646 25.7467 9.1202 25.8216 9.20092C25.7854 9.14231 25.7867 9.11869 25.7881 9.09541C25.6727 8.98488 25.5362 8.85408 25.4014 8.72529C25.6263 8.92995 25.8226 9.11501 25.9837 9.26607C26.0458 9.34545 26.1137 9.4235 26.178 9.50874C26.2424 9.59382 26.3086 9.68141 26.3766 9.77101C26.4453 9.85977 26.5158 9.95088 26.5878 10.0438C26.6563 10.1396 26.7264 10.2374 26.798 10.3372C27.1708 10.8125 27.4998 11.321 27.8124 11.8395C27.9571 12.1054 28.1167 12.3639 28.2454 12.639L28.4486 13.047L28.6315 13.4652C28.6841 13.5544 28.6636 13.4689 28.6702 13.4538C28.8753 13.9499 29.0403 14.4657 29.1897 14.9855C29.473 15.916 29.6651 16.8818 29.7604 17.8679C29.7981 18.0987 29.8142 18.3322 29.8475 18.5635C29.842 18.6953 29.835 18.8604 29.8269 19.0532C29.8267 19.2379 29.8365 19.4226 29.8286 19.6077C29.8216 19.7926 29.8144 19.9781 29.8072 20.1647C29.8045 20.2903 29.7864 20.4275 29.7758 20.5765C29.7618 20.7252 29.7544 20.8857 29.733 21.0548C29.7112 21.2236 29.6881 21.4025 29.664 21.5894C29.6419 21.7768 29.5992 21.9694 29.5663 22.1707C29.4184 22.9729 29.1816 23.8739 28.8442 24.7636C28.8036 24.9019 28.7727 25.0124 28.745 25.0742C28.64 25.3256 28.528 25.569 28.4198 25.8086C28.2987 26.0421 28.1877 26.2755 28.0636 26.4966C27.6548 27.2747 27.185 27.9831 26.7323 28.5698C26.676 28.6433 26.6236 28.718 26.567 28.787C26.5101 28.8557 26.4543 28.923 26.3999 28.989C26.2893 29.1194 26.1905 29.2499 26.0857 29.3631C25.8762 29.5895 25.7003 29.7996 25.5354 29.9575C25.3464 30.1548 25.3634 30.164 25.4942 30.0689C25.5591 30.0208 25.6544 29.9484 25.7635 29.8575C25.8691 29.7622 25.9916 29.6518 26.1188 29.537C26.2488 29.4236 26.3732 29.2956 26.4932 29.175C26.6117 29.0536 26.7303 28.9429 26.8217 28.8428C27.0061 28.6433 27.1272 28.5202 27.1014 28.575C26.8038 29.1352 26.2619 29.8262 25.4697 30.5905C25.0656 30.9635 24.6109 31.3688 24.0731 31.7595C23.8109 31.964 23.5193 32.1511 23.222 32.3554C22.9149 32.5435 22.601 32.7495 22.2579 32.9323C21.5069 33.3413 22.8214 32.6853 22.8569 32.6791C22.7556 32.7582 22.6215 32.857 22.4588 32.9538C22.2113 33.0854 21.966 33.2212 21.7096 33.3345C21.5597 33.4033 21.4125 33.4776 21.2609 33.542L20.8038 33.7299C20.8847 33.698 20.9643 33.6669 21.0457 33.6347C21.5401 33.4383 22.0021 33.2068 22.4193 32.9779C22.2626 33.0727 22.0911 33.1824 21.9032 33.2814C21.7017 33.3855 21.4932 33.4994 21.284 33.6011C21.073 33.6992 20.8663 33.7953 20.6769 33.8834C22.8487 33.0945 24.8445 31.7888 26.4245 30.0868C27.2155 29.2383 27.9209 28.3063 28.496 27.2981C29.0746 26.2925 29.5409 25.223 29.884 24.1163C29.3558 25.7793 28.5323 27.307 27.5426 28.5988C29.3419 26.1692 30.4148 23.1905 30.5569 20.1185C30.5568 20.2878 30.54 20.4564 30.5288 20.6251C30.5149 20.7937 30.5082 20.9631 30.4884 21.1312C30.4454 21.467 30.4146 21.8046 30.3499 22.1376C30.2454 22.8075 30.076 23.4658 29.884 24.1163C30.2629 22.9404 30.4891 21.7006 30.5782 20.4538C30.671 19.2059 30.5936 17.9505 30.4012 16.734C30.7318 18.3454 30.7866 20.1712 30.5049 21.9756C30.7028 20.8118 30.7531 19.6122 30.677 18.4228C30.6599 17.9684 30.6063 17.5172 30.5623 17.0996C30.4992 16.6849 30.4514 16.302 30.3903 15.9924C30.6323 17.1356 30.7278 18.1106 30.7743 19.0297C30.7296 17.0239 30.3141 14.9916 29.4982 13.0825C29.9435 14.1193 30.3091 15.2347 30.5323 16.3814C30.7567 17.527 30.85 18.699 30.7969 19.8264C30.7944 19.6944 30.7999 19.5626 30.7922 19.4302C30.7862 19.2977 30.7804 19.1645 30.7743 19.0297C30.8224 20.8468 30.5425 22.6479 29.9879 24.3415C29.7095 25.1883 29.3657 26.0111 28.9495 26.794C28.5335 27.5768 28.0537 28.3233 27.5159 29.0241C28.1311 28.3057 28.7805 27.2901 29.2989 26.1746C29.8149 25.0567 30.1979 23.8476 30.4613 22.7917C30.0738 24.6879 29.3046 26.5589 28.1885 28.2298C27.0755 29.902 25.6176 31.3723 23.9308 32.5008C22.246 33.6327 20.3344 34.4162 18.3728 34.8032C17.392 34.9977 16.4001 35.0986 15.4157 35.1062C14.4314 35.1115 13.4559 35.0245 12.5081 34.8525L13.0114 34.9481C13.1792 34.9799 13.3494 34.9975 13.5182 35.0226C13.8558 35.0769 14.1973 35.0973 14.5376 35.1286C15.2197 35.167 15.9055 35.1799 16.5892 35.1278C17.274 35.0914 17.9544 34.9893 18.6317 34.8645C18.9676 34.7881 19.3076 34.7257 19.6394 34.6277C19.8059 34.5811 19.9743 34.5404 20.1396 34.4887L20.6345 34.3283C20.3847 34.4056 20.1217 34.5081 19.8409 34.5833C19.725 34.6173 19.6071 34.652 19.489 34.6868C20.2343 34.4867 20.9519 34.2385 21.6511 33.9338C21.9698 33.7947 22.2852 33.6441 22.5975 33.4808C22.016 33.7886 21.4168 34.0623 20.8032 34.2968C19.6298 34.7354 18.4091 35.0367 17.1757 35.1981C16.9898 35.2276 16.8203 35.2368 16.6684 35.2527C16.5163 35.2678 16.3813 35.281 16.2617 35.2929C16.0224 35.3118 15.8457 35.3204 15.7221 35.3339C15.4748 35.3586 15.4396 35.3815 15.5381 35.4004C15.6364 35.4194 15.8682 35.4344 16.1532 35.4425C16.4374 35.4408 16.7746 35.4256 17.0812 35.3976C20.1622 35.0816 22.9911 33.8724 25.258 32.0621C27.5265 30.2516 29.2639 27.8465 30.2322 25.1174C30.293 24.959 30.3397 24.7956 30.3903 24.6334C30.4394 24.4708 30.4936 24.3099 30.538 24.1458C30.6202 23.8158 30.7176 23.4898 30.7805 23.1548L30.8842 22.6549L30.9657 22.1505L31.0061 21.8981L31.0349 21.644L31.0922 21.1359C31.2091 19.777 31.1629 18.4035 30.9562 17.0557C30.8457 16.293 30.6514 15.3875 30.401 14.5809C30.3349 14.3804 30.2702 14.1848 30.2084 13.9974C30.1414 13.812 30.0703 13.6372 30.007 13.4727C29.9746 13.3907 29.9435 13.3116 29.9137 13.2357C29.8802 13.1614 29.8484 13.0902 29.818 13.0229C29.7561 12.8887 29.7008 12.769 29.6537 12.6672C29.1289 11.6022 28.4694 10.5864 27.6973 9.64172C26.9261 8.69665 26.04 7.8216 25.041 7.05958C24.9159 6.96479 24.7908 6.86967 24.6652 6.77437C24.5355 6.68477 24.4056 6.59501 24.2754 6.50507L24.0802 6.37009L23.8787 6.24348C23.744 6.1594 23.6092 6.07533 23.4739 5.99092C22.9221 5.67205 22.3568 5.36473 21.761 5.10983C21.1713 4.84221 20.5541 4.62499 19.9259 4.43072C19.6086 4.34364 19.2927 4.2465 18.9673 4.17968C18.8052 4.14467 18.6444 4.10214 18.4805 4.07283C18.3165 4.04369 18.1522 4.01471 17.9874 3.98557C16.8084 3.77807 15.582 3.72867 14.3567 3.82078C13.1321 3.9154 11.9024 4.14786 10.7232 4.54913L10.2819 4.70203C10.1343 4.75177 9.99214 4.81625 9.84694 4.87269C9.70325 4.93281 9.55637 4.9854 9.41536 5.05172L8.99131 5.24817C8.84862 5.31114 8.71079 5.38349 8.57329 5.45668L8.15979 5.67389L7.75752 5.91037C7.62354 5.98942 7.48855 6.06662 7.36027 6.15455L6.97105 6.41045C6.84009 6.49368 6.71883 6.59099 6.59239 6.68042C6.46829 6.7732 6.3395 6.85962 6.21959 6.95742L5.85835 7.24833C5.73626 7.34295 5.62103 7.44561 5.50615 7.54844L5.16064 7.85492L4.83055 8.17631C4.72069 8.28333 4.60965 8.38917 4.50732 8.50305C3.66475 9.39034 2.92451 10.3583 2.31909 11.3826C1.71367 12.4069 1.23 13.4776 0.867581 14.5583C0.134876 16.7221 -0.0753055 18.9165 0.0225001 20.8986C0.00139818 20.0826 -0.00211879 18.9125 0.148609 17.7576ZM23.7847 32.905C24.2935 32.5758 24.7842 32.2189 25.2527 31.835C24.777 32.2268 24.2883 32.5885 23.7847 32.905ZM30.5201 23.8142C30.47 23.965 30.4277 24.1141 30.3724 24.2565C30.3183 24.3991 30.265 24.5395 30.2121 24.679L30.1341 24.888L30.0482 25.0942C29.9914 25.232 29.9356 25.371 29.8812 25.513C29.5717 26.2844 29.2016 27.034 28.778 27.7488C28.3558 28.4648 27.8665 29.1357 27.3436 29.7652C27.0853 30.0833 26.804 30.3782 26.5273 30.6731C26.3828 30.8145 26.2386 30.9555 26.0951 31.0956C25.9532 31.2377 25.798 31.3643 25.6509 31.4983C25.5277 31.6054 25.4034 31.7103 25.2783 31.8134C25.7425 31.4314 26.1848 31.0233 26.6007 30.5889C25.9661 31.2455 25.3252 31.7955 24.6431 32.2951C24.4695 32.416 24.3019 32.5456 24.1217 32.6595C23.942 32.7741 23.7611 32.8893 23.5779 33.006C23.3892 33.1134 23.1979 33.2219 23.0035 33.3324C22.808 33.441 22.6017 33.5374 22.3949 33.6431C22.5151 33.5709 22.6725 33.4837 22.8445 33.3906C23.0155 33.2956 23.1949 33.1834 23.3701 33.0807C23.5466 32.9801 23.707 32.8695 23.8403 32.7771C23.9737 32.6847 24.0782 32.6079 24.1326 32.5584C24.0549 32.6111 23.9758 32.6617 23.8971 32.7131C23.9814 32.6574 24.0656 32.6011 24.1495 32.5431C24.146 32.547 24.1386 32.553 24.1326 32.5584C25.9634 31.308 27.5231 29.6649 28.6918 27.7917C29.8656 25.9202 30.6295 23.809 30.946 21.6619C30.8773 22.5231 30.7196 23.2107 30.5201 23.8142ZM29.4057 12.8693C29.3565 12.7541 29.3069 12.6392 29.2511 12.5287C29.3077 12.6405 29.3568 12.7549 29.4057 12.8693ZM27.9909 10.7427C28.4975 11.5074 28.9326 12.3135 29.2927 13.1463C29.3345 13.2383 29.3741 13.3315 29.4131 13.425C30.2443 15.4605 30.6224 17.644 30.567 19.7951C30.5811 19.0833 30.5338 18.3719 30.455 17.6665C30.3657 16.8535 30.2007 16.0503 29.982 15.2647C29.5529 13.6893 28.8561 12.1961 27.9715 10.8348C28.0527 10.947 28.1383 11.0686 28.2269 11.1976C28.3166 11.3259 28.4082 11.4623 28.4931 11.6101L28.3863 11.4243L28.2709 11.2436L28.0401 10.8825C27.883 10.6441 27.7127 10.4143 27.5487 10.1805C27.3709 9.95707 27.2022 9.72629 27.0172 9.50874C26.8772 9.34914 26.743 9.18418 26.601 9.02658C27.1021 9.55497 27.5725 10.1219 27.9909 10.7427ZM16.2261 3.96933C16.4718 3.98239 16.718 4.00634 16.9641 4.02476C17.1658 4.04168 17.3664 4.07149 17.565 4.09393C17.6247 4.09644 17.6876 4.10046 17.7667 4.10934C17.8456 4.12022 17.9399 4.14049 18.0629 4.16862C18.9789 4.32136 19.8146 4.55097 20.4078 4.78811C21.5463 5.21903 22.6055 5.75512 23.5664 6.37427C24.5275 6.99226 25.39 7.69515 26.1197 8.46286C26.456 8.82779 26.3578 8.74824 26.1724 8.57105C26.2647 8.66902 26.3573 8.76733 26.4508 8.86647C26.3275 8.74355 26.2064 8.61895 26.0813 8.4987L25.696 8.14868C25.7898 8.23074 26.0172 8.42719 26.1724 8.57105C24.935 7.30845 23.4885 6.26006 21.9228 5.48883C20.3559 4.71794 18.6685 4.24181 16.9819 4.05173C17.2529 4.08187 17.3858 4.08857 17.5125 4.09192C17.3307 4.07065 17.1485 4.04151 16.9641 4.02476C16.7164 4.00852 16.4693 3.98641 16.2234 3.97435C15.9774 3.96849 15.7332 3.9628 15.4932 3.9571C15.735 3.95693 15.9801 3.96363 16.2261 3.96933Z" fill="#2A3D4B"/>
<path d="M19.4175 34.7075C19.4415 34.7004 19.4649 34.6936 19.4889 34.6865C19.4142 34.7066 19.3406 34.7287 19.2654 34.7478C19.3164 34.7351 19.3674 34.7227 19.4175 34.7075Z" fill="#2A3D4B"/>
<path d="M26.8671 28.2532C27.5764 27.3175 28.2031 26.1994 28.6032 25.2363L28.5983 25.2373C27.5832 27.6359 25.9368 29.7022 23.8822 31.2235C24.2805 30.9472 24.6409 30.6796 24.9571 30.4359C25.4089 29.9636 26.1651 29.1956 26.8671 28.2532Z" fill="#2A3D4B"/>
<path d="M5.92032 31.0491C7.12145 32.1229 8.56995 33.0574 10.1822 33.687C10.8109 33.9236 11.4525 34.131 12.1087 34.277C12.4343 34.3611 12.7667 34.413 13.0966 34.4748C13.2619 34.5041 13.4294 34.5203 13.5955 34.5438C13.762 34.5654 13.9282 34.5898 14.0958 34.5996C13.339 34.5156 12.5877 34.39 11.8563 34.1909C11.1255 33.9925 10.409 33.7471 9.71782 33.4458C9.029 33.1392 8.36345 32.7856 7.72587 32.3884C7.09181 31.9851 6.49057 31.5348 5.92032 31.0491Z" fill="#2A3D4B"/>
<path d="M20.7464 32.9634L20.3747 33.1093L19.9952 33.2359C19.744 33.3264 19.4849 33.394 19.2265 33.4659C19.4863 33.4006 19.7475 33.3396 20.0009 33.2559C20.1287 33.2168 20.2562 33.1778 20.3833 33.139C20.5082 33.0934 20.6327 33.0478 20.7568 33.0025C20.7424 32.9951 20.6573 33.0117 20.7464 32.9634Z" fill="#2A3D4B"/>
<path d="M16.3596 33.9161C16.1653 33.9327 15.97 33.9312 15.7744 33.9332C15.5788 33.9355 15.3829 33.9397 15.1867 33.9268C15.2814 33.9357 15.3698 33.944 15.4507 33.9516C15.5314 33.9568 15.6041 33.963 15.6676 33.9705C15.8988 33.9507 16.1285 33.9452 16.3596 33.9161Z" fill="#2A3D4B"/>
<path d="M8.61514 32.1147C8.83973 32.2465 9.07821 32.3626 9.31486 32.4905C9.37414 32.523 9.48166 32.56 9.61648 32.6093C9.32825 32.4855 9.05209 32.3321 8.7714 32.1897C8.63239 32.1159 8.49858 32.0332 8.36226 31.9561C8.22627 31.8784 8.09078 31.8009 7.96216 31.7141C8.01408 31.7489 8.0665 31.7839 8.11908 31.8189C8.17334 31.8514 8.22794 31.8839 8.28271 31.9168C8.3924 31.9821 8.50344 32.0482 8.61514 32.1147Z" fill="#2A3D4B"/>
<path d="M14.1407 14.8601C14.1407 14.591 14.3578 14.3725 14.6282 14.3725H16.5244C16.7948 14.3725 17.0134 14.591 17.0134 14.8601V15.5073C17.2526 15.5371 17.4767 15.5751 17.6904 15.6208V14.3144C17.6904 13.9175 17.3688 13.5973 16.9719 13.5973H14.1815C13.7845 13.5973 13.463 13.9175 13.463 14.3144V15.6208C13.6766 15.5751 13.9007 15.5371 14.1407 15.5073V14.8601Z" fill="#4BC56B"/>
<path d="M21.0845 26.0277C21.0845 20.3438 21.0735 17.4172 18.4857 16.393V10.7175H17.8916V16.2014C17.8225 16.1855 17.7616 16.162 17.6904 16.1475C17.4767 16.1019 17.2526 16.0624 17.0134 16.0341C16.5812 15.9815 16.1047 15.9559 15.5763 15.9559C15.048 15.9559 14.5715 15.9815 14.1407 16.0341C13.9 16.0624 13.676 16.1019 13.463 16.1475C13.391 16.162 13.3309 16.1855 13.2631 16.2014V10.7175H12.6677V16.393C10.0799 17.4165 10.0702 20.3438 10.0702 26.0277C10.0702 27.7579 10.5377 28.8063 11.3171 29.437C11.3088 29.5248 11.3033 29.6237 11.3033 29.7399C11.3033 30.2302 11.5695 30.6272 11.8945 30.6272C12.138 30.6272 12.5024 30.4086 12.6739 30.094C13.5183 30.3249 14.5107 30.3747 15.5763 30.3747C16.6434 30.3747 17.6351 30.3249 18.4788 30.094C18.6503 30.4086 19.0147 30.6272 19.2581 30.6272C19.5852 30.6272 19.8494 30.2302 19.8494 29.7399C19.8494 29.6237 19.8439 29.5248 19.8356 29.437C20.6157 28.8056 21.0845 27.7579 21.0845 26.0277ZM14.2783 17.4047L14.8225 16.8605C14.8876 16.7955 15.0079 16.7754 15.0902 16.8149L15.5722 17.0431C15.6545 17.0811 15.7748 17.1662 15.8398 17.2305L16.8647 18.2553C16.9297 18.3204 16.9297 18.4255 16.8647 18.4905L15.9083 19.4483C15.8433 19.5119 15.7382 19.5119 15.6731 19.4483L14.6483 18.422C14.5833 18.3584 14.4982 18.2367 14.4595 18.1558L14.2327 17.6724C14.1932 17.5894 14.2133 17.4697 14.2783 17.4047ZM19.5216 26.8686H11.6324C11.4499 26.8686 11.3026 26.7213 11.3026 26.5387C11.3026 26.3575 11.4499 26.2102 11.6324 26.2102H19.5216C19.7028 26.2102 19.8501 26.3575 19.8501 26.5387C19.8501 26.722 19.7028 26.8686 19.5216 26.8686ZM12.4388 25.6127V23.4883H14.5646V25.6127H12.4388ZM16.9608 25.6127V21.2746H18.7139V25.6127H16.9608ZM19.5216 20.5707H11.6324C11.4499 20.5707 11.3026 20.4234 11.3026 20.2408C11.3026 20.0596 11.4499 19.9123 11.6324 19.9123H19.5216C19.7028 19.9123 19.8501 20.0596 19.8501 20.2408C19.8501 20.4234 19.7028 20.5707 19.5216 20.5707Z" fill="#4BC56B"/>
<path d="M14.965 17.781C15.0933 17.781 15.1974 17.677 15.1974 17.5486C15.1974 17.4203 15.0933 17.3163 14.965 17.3163C14.8367 17.3163 14.7326 17.4203 14.7326 17.5486C14.7326 17.677 14.8367 17.781 14.965 17.781Z" fill="#4BC56B"/>
<path d="M13.3668 9.90299C13.3668 9.60286 13.6102 9.36012 13.9097 9.36012C13.9097 9.36012 14.8875 9.5828 15.5631 9.5828C16.2388 9.5828 17.2436 9.36012 17.2436 9.36012C17.5437 9.36012 17.7865 9.60355 17.7865 9.90299V10.3988H18.5389V9.29512C18.5389 8.8546 18.182 8.49707 17.7408 8.49707H13.4124C12.9719 8.49707 12.6144 8.85529 12.6144 9.29512V10.3988H13.3668V9.90299Z" fill="#4BC56B"/>
<path d="M36.6982 14.2693C37.7234 14.1978 38.7308 14.1203 39.7203 14.0368C40.7097 13.9534 41.7409 13.864 42.8139 13.7686C43.0523 13.7924 43.2073 13.9176 43.2788 14.1441C43.3503 14.3706 43.255 14.5077 42.9927 14.5554C42.1105 14.6508 41.0972 14.7819 39.9527 14.9488C38.8083 15.1157 37.7234 15.3303 36.6982 15.5926C36.7459 16.3317 36.7697 17.0887 36.7697 17.8636C36.7697 18.6385 36.7876 19.4015 36.8233 20.1525C36.8591 20.9036 36.9306 21.6308 37.0379 22.3342C37.1452 23.0375 37.3181 23.6872 37.5565 24.2833C37.8903 24.6886 38.2241 24.9271 38.5579 24.9986C38.8917 25.0701 39.2076 25.0522 39.5057 24.945C39.8037 24.8377 40.0779 24.6708 40.3283 24.4443C40.5786 24.2177 40.7991 23.9972 40.9899 23.7826C41.1568 23.6157 41.2939 23.6157 41.4012 23.7826C41.5085 23.9495 41.4071 24.1999 41.0972 24.5337C40.9541 24.7006 40.7753 24.8794 40.5607 25.0701C40.3461 25.2609 40.0898 25.4218 39.7918 25.553C39.4938 25.6841 39.1599 25.7675 38.7904 25.8033C38.4208 25.8391 38.0215 25.7973 37.5923 25.6781C37.0439 25.5351 36.6386 25.094 36.3763 24.3548C36.114 23.6157 35.9173 22.7514 35.7862 21.7619C35.655 20.7724 35.5656 19.7412 35.5179 18.6683C35.4703 17.5954 35.4107 16.6297 35.3391 15.7714C34.29 15.8668 33.5211 15.9502 33.0323 16.0217C32.5435 16.0933 32.1919 16.141 31.9773 16.1648C31.7627 16.1886 31.6196 16.1767 31.5481 16.129C31.4766 16.0814 31.3454 15.9741 31.1547 15.8072C31.1785 15.6879 31.1845 15.5747 31.1726 15.4674C31.1607 15.3601 31.1607 15.2707 31.1726 15.1992C31.1845 15.1276 31.2322 15.0561 31.3156 14.9846C31.3991 14.9131 31.56 14.8534 31.7985 14.8058C32.1561 14.7104 32.6747 14.6567 33.3542 14.6448C34.0337 14.6329 34.6954 14.5793 35.3391 14.4839C35.3153 13.7209 35.2914 13.1248 35.2676 12.6957C35.2438 12.2665 35.2199 11.891 35.1961 11.5691C35.1722 11.2472 35.1543 10.9313 35.1424 10.6213C35.1305 10.3114 35.1245 9.90604 35.1245 9.40534C35.1245 9.28613 35.1901 9.19671 35.3212 9.13711C35.4524 9.0775 35.6014 9.04173 35.7683 9.02981C35.9352 9.01789 36.0902 9.04173 36.2332 9.10134C36.3763 9.16095 36.4717 9.25036 36.5193 9.36958C36.5909 9.58416 36.6386 9.90008 36.6624 10.3173C36.6862 10.7346 36.7041 11.1757 36.7161 11.6406C36.728 12.1055 36.7339 12.5764 36.7339 13.0533C36.7339 13.5302 36.722 13.9355 36.6982 14.2693ZM41.9913 13.6255C41.9675 13.4109 42.0807 13.3573 42.3311 13.4646C42.5814 13.5719 42.8377 13.6851 43.1 13.8044C43.1954 14.3527 43.2669 14.7879 43.3146 15.1098C43.3623 15.4316 43.398 15.7356 43.4219 16.0217C43.4457 16.3079 43.4696 16.6178 43.4934 16.9516C43.5172 17.2854 43.553 17.7265 43.6007 18.2749C43.8153 17.7265 44.0775 17.2199 44.3875 16.7549C44.6975 16.29 45.0968 15.8906 45.5856 15.5568C46.0744 15.223 46.6585 14.9786 47.3381 14.8236C48.0176 14.6687 48.8342 14.615 49.7879 14.6627C49.7879 14.8534 49.7224 15.0144 49.5912 15.1455C49.4601 15.2767 49.1561 15.378 48.6792 15.4495C47.9878 15.5687 47.3858 15.8012 46.8731 16.1469C46.3605 16.4926 45.9194 16.892 45.5498 17.345C45.1803 17.798 44.8822 18.2809 44.6557 18.7935C44.4292 19.3061 44.2444 19.777 44.1014 20.2062C44.0775 20.4208 44.0477 20.7248 44.012 21.1182C43.9762 21.5116 43.9524 21.9288 43.9405 22.3699C43.9285 22.811 43.9166 23.2402 43.9047 23.6574C43.8928 24.0747 43.9106 24.4025 43.9583 24.641C43.9822 24.7602 43.9285 24.8496 43.7974 24.9092C43.6663 24.9688 43.5172 25.0105 43.3503 25.0344C43.1834 25.0582 43.0285 25.0463 42.8854 24.9986C42.7423 24.9509 42.6708 24.8675 42.6708 24.7483C42.7185 22.2924 42.6529 20.1764 42.4741 18.4001C42.2953 16.6238 42.1344 15.0323 41.9913 13.6255ZM50.539 9.19075C50.7774 9.14307 50.9205 9.28613 50.9681 9.61993C51.0158 9.95373 50.9681 10.2041 50.8251 10.371C50.5628 10.5856 50.3959 10.7703 50.3244 10.9253C50.2529 11.0803 50.086 11.1816 49.8237 11.2293C49.6806 11.2055 49.5555 11.1995 49.4482 11.2114C49.3409 11.2234 49.2515 11.0267 49.1799 10.6213C49.2753 10.3591 49.4243 10.0968 49.627 9.83451C49.8297 9.57224 50.1336 9.35765 50.539 9.19075ZM50.6463 13.8401C50.7655 14.9846 50.8489 16.2423 50.8966 17.6133C50.9443 18.9842 51.0278 20.4208 51.147 21.9229C51.2423 22.6858 51.3377 23.2819 51.4331 23.7111C51.5285 24.1403 51.6 24.5456 51.6477 24.9271C51.2662 24.9986 50.9681 24.9926 50.7536 24.9092C50.539 24.8257 50.3363 24.7244 50.1456 24.6052C50.0979 24.2237 50.0442 23.5919 49.9846 22.7097C49.925 21.8275 49.8654 20.8678 49.8058 19.8307C49.7462 18.7935 49.6866 17.7861 49.627 16.8086C49.5674 15.831 49.5137 15.0561 49.466 14.4839C49.5614 14.4362 49.6389 14.3647 49.6985 14.2693C49.7581 14.1739 49.8237 14.0905 49.8952 14.0189C49.9667 13.9474 50.0621 13.8878 50.1813 13.8401C50.3005 13.7924 50.4555 13.7924 50.6463 13.8401ZM61.3756 15.1276C61.4709 15.1753 61.5842 15.2349 61.7153 15.3065C61.8465 15.378 61.9716 15.4853 62.0909 15.6283C62.2101 15.7714 62.3114 15.9562 62.3949 16.1827C62.4783 16.4092 62.52 16.7013 62.52 17.0589C62.4724 18.2987 62.1624 19.4194 61.5902 20.4208C61.0179 21.4222 60.3325 22.2686 59.5337 22.96C58.735 23.6515 57.9064 24.1641 57.0481 24.4979C56.1897 24.8317 55.4625 24.9509 54.8665 24.8555C54.8665 27.1683 54.8843 29.0996 54.9201 30.6494C54.9559 32.1992 54.9797 33.4688 54.9916 34.4583C55.0036 35.4478 55.0036 36.1928 54.9916 36.6936C54.9797 37.1943 54.944 37.54 54.8843 37.7307C54.8247 37.9215 54.7174 38.0109 54.5625 37.9989C54.4075 37.987 54.2108 37.9572 53.9724 37.9095C53.9247 37.9811 53.8889 37.9215 53.8651 37.7307C53.8412 37.5638 53.8233 37.2658 53.8114 36.8366C53.7995 36.4074 53.7935 35.7398 53.7935 34.8338C53.7935 34.7623 53.7876 34.351 53.7757 33.5999C53.7637 32.8489 53.7518 31.9071 53.7399 30.7745C53.728 29.642 53.7041 28.3962 53.6684 27.0372C53.6326 25.6781 53.5909 24.3548 53.5432 23.0673C53.4955 21.7798 53.4419 20.5877 53.3822 19.4909C53.3226 18.3941 53.2451 17.5477 53.1498 16.9516C53.1498 16.9039 53.1379 16.7847 53.114 16.594L53.0246 15.8787C53.0246 15.8787 52.9769 15.5687 52.8815 14.9488C52.7862 14.3289 52.7206 14.007 52.6848 13.9832C53.0902 13.9593 53.3644 14.0011 53.5074 14.1084C53.6505 14.2156 53.7935 14.3408 53.9366 14.4839C54.0796 14.9369 54.2167 15.6641 54.3479 16.6655C54.479 17.6669 54.628 19.026 54.7949 20.7426C54.8426 20.5042 54.9678 20.1704 55.1705 19.7412C55.3731 19.3121 55.6414 18.8531 55.9752 18.3643C56.309 17.8755 56.6904 17.3927 57.1196 16.9159C57.5488 16.439 58.0018 16.0337 58.4787 15.6999C58.9555 15.3661 59.4383 15.1336 59.9271 15.0025C60.4159 14.8713 60.8987 14.9131 61.3756 15.1276ZM56.8693 23.1746C57.966 22.7216 58.8303 22.1375 59.4622 21.4222C60.094 20.7069 60.553 19.9976 60.8391 19.2942C61.1252 18.5908 61.2683 17.9649 61.2683 17.4166C61.2683 16.8682 61.161 16.5224 60.9464 16.3794C60.4695 16.0694 60.0165 16.0337 59.5874 16.2721C59.1582 16.5105 58.7409 16.7966 58.3356 17.1304C58.121 17.3212 57.823 17.6609 57.4415 18.1497C57.06 18.6385 56.6785 19.1809 56.297 19.777C55.9156 20.3731 55.5877 20.9751 55.3135 21.5831C55.0393 22.1911 54.9022 22.7216 54.9022 23.1746C54.9976 23.2938 55.1407 23.3773 55.3314 23.425C55.4745 23.4727 55.6712 23.4846 55.9215 23.4607C56.1719 23.4369 56.4878 23.3415 56.8693 23.1746ZM71.9261 15.1276C72.0214 15.1753 72.1347 15.2349 72.2658 15.3065C72.397 15.378 72.5221 15.4853 72.6414 15.6283C72.7606 15.7714 72.8619 15.9562 72.9454 16.1827C73.0288 16.4092 73.0705 16.7013 73.0705 17.0589C73.0228 18.2987 72.7129 19.4194 72.1407 20.4208C71.5684 21.4222 70.8829 22.2686 70.0842 22.96C69.2855 23.6515 68.4569 24.1641 67.5986 24.4979C66.7402 24.8317 66.013 24.9509 65.417 24.8555C65.417 27.1683 65.4348 29.0996 65.4706 30.6494C65.5064 32.1992 65.5302 33.4688 65.5421 34.4583C65.554 35.4478 65.554 36.1928 65.5421 36.6936C65.5302 37.1943 65.4944 37.54 65.4348 37.7307C65.3752 37.9215 65.2679 38.0109 65.113 37.9989C64.958 37.987 64.7613 37.9572 64.5228 37.9095C64.4752 37.9811 64.4394 37.9215 64.4156 37.7307C64.3917 37.5638 64.3738 37.2658 64.3619 36.8366C64.35 36.4074 64.344 35.7398 64.344 34.8338C64.344 34.7623 64.3381 34.351 64.3261 33.5999C64.3142 32.8489 64.3023 31.9071 64.2904 30.7745C64.2785 29.642 64.2546 28.3962 64.2188 27.0372C64.1831 25.6781 64.1414 24.3548 64.0937 23.0673C64.046 21.7798 63.9923 20.5877 63.9327 19.4909C63.8731 18.3941 63.7956 17.5477 63.7003 16.9516C63.7003 16.9039 63.6883 16.7847 63.6645 16.594L63.5751 15.8787C63.5751 15.8787 63.5274 15.5687 63.432 14.9488C63.3367 14.3289 63.2711 14.007 63.2353 13.9832C63.6407 13.9593 63.9148 14.0011 64.0579 14.1084C64.201 14.2156 64.344 14.3408 64.4871 14.4839C64.6301 14.9369 64.7672 15.6641 64.8984 16.6655C65.0295 17.6669 65.1785 19.026 65.3454 20.7426C65.3931 20.5042 65.5183 20.1704 65.7209 19.7412C65.9236 19.3121 66.1918 18.8531 66.5256 18.3643C66.8594 17.8755 67.2409 17.3927 67.6701 16.9159C68.0993 16.439 68.5523 16.0337 69.0292 15.6999C69.506 15.3661 69.9888 15.1336 70.4776 15.0025C70.9664 14.8713 71.4492 14.9131 71.9261 15.1276ZM67.4198 23.1746C68.5165 22.7216 69.3808 22.1375 70.0127 21.4222C70.6445 20.7069 71.1035 19.9976 71.3896 19.2942C71.6757 18.5908 71.8188 17.9649 71.8188 17.4166C71.8188 16.8682 71.7115 16.5224 71.4969 16.3794C71.02 16.0694 70.567 16.0337 70.1378 16.2721C69.7087 16.5105 69.2914 16.7966 68.8861 17.1304C68.6715 17.3212 68.3735 17.6609 67.992 18.1497C67.6105 18.6385 67.229 19.1809 66.8475 19.777C66.466 20.3731 66.1382 20.9751 65.864 21.5831C65.5898 22.1911 65.4527 22.7216 65.4527 23.1746C65.5481 23.2938 65.6911 23.3773 65.8819 23.425C66.0249 23.4727 66.2216 23.4846 66.472 23.4607C66.7224 23.4369 67.0383 23.3415 67.4198 23.1746ZM81.7255 14.4124C81.7017 14.5554 81.648 14.8534 81.5646 15.3065C81.4811 15.7595 81.3917 16.29 81.2963 16.898C81.201 17.506 81.1175 18.1438 81.046 18.8114C80.9744 19.479 80.9327 20.1108 80.9208 20.7069C80.9089 21.303 80.9446 21.8096 81.0281 22.2269C81.1115 22.6441 81.2486 22.9004 81.4394 22.9958C81.9878 23.2581 82.5481 23.1687 83.1203 22.7276C83.6925 22.2865 84.3601 21.6129 85.1231 20.7069C85.1946 20.7069 85.2006 20.8022 85.141 20.993C85.0814 21.1837 84.986 21.3924 84.8549 21.6189L84.4615 22.2984C84.4615 22.2984 84.3601 22.4474 84.1575 22.7454C83.9667 22.9839 83.6925 23.2521 83.3349 23.5501C82.9773 23.8482 82.5958 24.0866 82.1904 24.2654C81.7851 24.4443 81.3977 24.5217 81.0281 24.4979C80.6585 24.4741 80.3545 24.2595 80.1161 23.8541C79.9969 23.568 79.9254 23.2163 79.9015 22.7991C79.8777 22.3818 79.8777 21.9586 79.9015 21.5295C79.9254 21.1003 79.9611 20.7069 80.0088 20.3492C80.0565 19.9916 80.0923 19.7293 80.1161 19.5624C79.6154 20.4923 79.0432 21.3745 78.3994 22.209C77.7557 23.0435 77.1238 23.6992 76.5039 24.176C75.884 24.6529 75.3118 24.9092 74.7872 24.945C74.2627 24.9807 73.8573 24.6767 73.5712 24.033C73.4043 23.413 73.4043 22.7156 73.5712 21.9408C73.7381 21.1659 73.9885 20.4685 74.3223 19.8485C74.823 18.9902 75.3475 18.2034 75.8959 17.4881C76.4443 16.7728 77.0284 16.1648 77.6484 15.6641C78.2683 15.1634 78.918 14.7998 79.5975 14.5733C80.277 14.3468 80.9864 14.2931 81.7255 14.4124ZM75.0018 23.4965C75.2402 23.5442 75.6217 23.3654 76.1463 22.96C76.6708 22.5547 77.2192 21.9884 77.7914 21.2612C78.3636 20.534 78.8822 19.6876 79.3472 18.722C79.8121 17.7563 80.1161 16.737 80.2592 15.6641H79.8479C79.8479 15.6641 79.6392 15.7356 79.222 15.8787C78.316 16.4748 77.5411 17.1722 76.8973 17.9709C76.2536 18.7696 75.7528 19.5445 75.3952 20.2956C75.0376 21.0466 74.823 21.7202 74.7514 22.3163C74.6799 22.9123 74.7634 23.3058 75.0018 23.4965ZM86.3391 17.5238C86.3391 17.5954 86.3749 17.9292 86.4464 18.5253C86.5179 19.1213 86.6014 19.8485 86.6967 20.7069C86.7921 21.5652 86.9054 22.4891 87.0365 23.4786C87.1676 24.4681 87.2869 25.4099 87.3942 26.304C87.5014 27.1981 87.6028 27.9849 87.6982 28.6645C87.7935 29.344 87.8531 29.7791 87.877 29.9698C87.7339 29.946 87.6147 29.9222 87.5193 29.8983C87.424 29.8745 87.3286 29.8149 87.2332 29.7195C87.1378 29.6241 87.0246 29.487 86.8934 29.3082C86.7623 29.1294 86.5775 28.8731 86.3391 28.5393C86.0291 26.3457 85.7848 24.4323 85.6059 22.7991C85.4271 21.1659 85.2781 19.8366 85.1589 18.8114C84.7297 19.3836 84.4197 19.7651 84.229 19.9558C84.0383 20.1466 83.919 20.2419 83.8714 20.2419C83.7998 20.2419 83.7879 20.1347 83.8356 19.9201L83.9071 19.5624C83.9071 19.5624 83.931 19.4551 83.9787 19.2405C84.0263 19.026 84.0621 18.9425 84.0859 18.9902C84.2528 18.7518 84.4019 18.5133 84.533 18.2749C84.6641 18.0365 84.7655 17.8219 84.837 17.6311C84.9324 17.3927 85.0039 17.1662 85.0516 16.9516C85.0277 16.6893 85.0099 16.4628 84.9979 16.2721C84.986 16.0814 84.9801 15.8847 84.9801 15.682C84.9801 15.4793 84.9741 15.2707 84.9622 15.0561C84.9503 14.8415 84.9443 14.5673 84.9443 14.2335V12.8208V10.7107C84.9443 10.7107 84.9562 9.89412 84.9801 8.26088C85.0039 6.62764 85.0337 5.81102 85.0695 5.81102C85.1052 5.81102 85.1529 5.10766 85.2125 3.70092C85.2721 2.29419 85.3377 1.81137 85.4092 2.25247C85.5761 1.56102 85.8324 1.03052 86.1782 0.660952C86.5239 0.291387 86.8875 0.0768017 87.269 0.0171944C87.6505 -0.0424128 88.026 0.0529585 88.3955 0.303309C88.7651 0.55366 89.0453 0.941107 89.236 1.46565C89.4506 1.9902 89.5579 2.66972 89.5579 3.50422C89.5579 4.33872 89.4864 5.25071 89.3433 6.24019C89.2002 7.22967 89.0035 8.26088 88.7532 9.33381C88.5028 10.4067 88.2346 11.4499 87.9485 12.4632C87.6624 13.4765 87.3763 14.4243 87.0902 15.3065C86.804 16.1886 86.5537 16.9278 86.3391 17.5238ZM86.053 15.4853C86.6491 13.7448 87.1378 12.034 87.5193 10.3531C87.9008 8.67217 88.181 7.16411 88.3598 5.8289C88.5386 4.4937 88.5982 3.41481 88.5386 2.59223C88.479 1.76965 88.3061 1.34644 88.02 1.32259C87.567 1.15569 87.2094 1.31067 86.9471 1.78753C86.6848 2.26439 86.4762 2.93199 86.3212 3.79034C86.1662 4.64868 86.0649 5.6322 86.0172 6.74089C85.9695 7.84959 85.9517 8.95232 85.9636 10.0491C85.9755 11.1459 85.9934 12.183 86.0172 13.1606C86.0411 14.1382 86.053 14.9131 86.053 15.4853Z" fill="#2A3D4B"/>
</svg>
