<svg width="543" height="504" viewBox="0 0 543 504" fill="none" xmlns="http://www.w3.org/2000/svg">
<path d="M189.313 292.15C184.83 281.722 182.849 270.563 176.698 260.968C174.405 257.318 172.007 253.981 168.358 251.27C163.979 247.828 159.079 248.454 154.283 246.368C145.421 242.614 140.417 232.394 131.972 227.388C123.528 222.382 113.415 220.818 103.823 222.799C94.9617 224.677 88.8106 225.719 80.2616 221.965C73.6935 219.149 60.0359 214.456 64.6232 226.971C67.3339 234.271 76.4041 237.921 80.8871 244.7C85.6829 252 86.8297 262.637 93.2936 268.79C99.4447 274.63 107.681 268.164 114.249 273.587C121.026 279.219 123.111 286.936 131.555 291.525C140.626 296.53 151.468 298.095 161.685 298.616C168.879 299.033 182.849 299.763 191.086 296.53C190.564 295.07 189.939 293.61 189.313 292.15Z" fill="#3B8B58"/>
<path d="M112.789 248.871C134.683 272.127 160.851 288.083 189.834 293.506C189.626 293.089 189.522 292.672 189.313 292.151C184.83 281.722 182.849 270.563 176.698 260.969C174.405 257.319 172.007 253.981 168.358 251.27C163.979 247.828 159.079 248.454 154.283 246.368C145.421 242.614 140.417 232.394 131.972 227.388C123.528 222.382 113.415 220.818 103.823 222.8C100.174 223.53 96.9425 224.155 93.9191 224.364C99.9659 233.228 106.013 241.676 112.789 248.871Z" fill="#307147"/>
<path d="M415.861 102.869C408.772 101.409 423.055 89.5205 425.036 87.539C430.248 82.429 440.257 73.6688 439.006 65.3259C437.755 57.0872 428.997 63.1358 423.993 61.7801C424.931 55.94 433.063 50.3085 436.608 46.0327C439.319 42.6955 442.029 39.1498 442.968 34.7697C444.844 25.5925 438.902 23.8196 431.917 27.9911C430.874 26.531 431.187 24.341 431.395 22.5681C431.917 17.7709 435.774 1.29354 427.538 0.0420906C423.263 -0.68792 419.614 8.28078 418.259 11.2008C416.695 14.4337 414.819 23.0896 411.795 25.071C408.563 27.261 408.563 21.7338 405.019 22.151C401.161 22.5681 400.327 30.4939 399.806 33.414C398.972 38.7326 399.597 44.1556 400.119 49.4742C400.431 52.4985 401.682 56.4615 399.91 59.1729C397.929 57.6086 395.948 55.1057 393.759 53.75C388.442 50.4128 387.399 56.2529 386.252 60.7372C384.48 68.4545 385.627 76.7975 385.731 84.619C385.731 87.4347 386.878 94.7348 384.897 96.612C380.31 93.0663 372.908 85.8704 370.51 95.9863C368.946 102.556 369.572 110.482 370.927 117.052C371.761 121.328 375.514 136.45 379.476 147.087C380.101 146.67 380.831 146.148 381.457 145.731C387.087 141.664 393.133 138.64 398.972 134.677C406.895 129.254 415.757 122.162 420.657 113.819C421.908 111.734 425.348 105.059 423.889 102.765C422.012 99.3235 418.051 103.286 415.861 102.869Z" fill="#3B8B58"/>
<path d="M423.993 102.452C422.012 99.3234 418.051 103.286 415.861 102.869C415.548 102.765 415.34 102.765 415.027 102.661C403.142 112.255 391.987 122.892 383.125 135.407C381.352 137.91 379.684 140.413 378.225 142.916C378.642 144.271 379.163 145.523 379.58 146.774C380.206 146.357 380.935 145.836 381.561 145.418C387.191 141.351 393.238 138.327 399.076 134.364C406.999 128.941 415.861 121.849 420.761 113.507C421.908 111.421 425.348 104.746 423.993 102.452Z" fill="#307147"/>
<path d="M173.561 186.215C176.793 174.535 180.859 162.542 182.84 150.653C184.403 141.059 180.546 130.734 175.854 122.496C171.893 115.821 163.656 111.233 159.903 104.454C155.107 95.6939 157.818 83.8052 154.899 74.315C151.771 63.9906 145.516 57.1076 137.28 50.5375C129.982 44.8017 124.665 42.716 120.182 34.2687C116.116 26.6558 111.841 17.3742 103.188 13.9327C83.1709 5.90262 97.9753 47.3046 98.8093 55.0219C99.6434 63.782 96.2029 69.205 92.2412 76.6093C86.5071 87.3509 86.4029 97.7796 94.8476 107.583C102.146 116.238 109.548 118.637 107.775 131.256C106.42 140.329 105.065 150.445 107.775 159.622C111.007 170.259 116.95 180.167 126.437 185.694C130.503 188.092 135.09 190.282 139.573 192.16C143.222 193.724 157.401 196.122 168.869 197.791C170.642 194.141 172.31 190.595 173.561 186.215Z" fill="#59A960"/>
<path d="M139.27 192.348C142.919 193.912 157.098 196.311 168.566 197.979C170.026 195.163 171.277 192.452 172.319 189.323C164.813 175.245 154.283 162.209 139.27 150.424C129.262 142.498 118.732 135.72 107.472 130.505C107.472 130.818 107.368 131.131 107.368 131.444C106.013 140.517 104.657 150.633 107.368 159.81C110.6 170.447 116.543 180.355 126.03 185.882C130.2 188.28 134.787 190.471 139.27 192.348Z" fill="#3B8B58"/>
<path d="M450.578 151.05C456.521 130.61 459.232 107.666 457.668 86.3918C457.042 77.736 457.355 69.0801 458.606 60.5286C455.791 63.4486 452.455 66.0558 450.787 67.933C444.949 74.2945 438.589 80.3431 432.855 86.8089C417.112 104.642 401.37 123.727 392.404 145.94C386.461 160.54 383.125 175.557 383.959 191.096C384.272 198.396 385.627 205.383 387.608 212.475C388.233 214.769 389.067 218.002 390.006 221.235C420.24 207.678 441.3 183.066 450.578 151.05Z" fill="#59A960"/>
<path d="M395.114 139.474C394.072 141.56 393.133 143.75 392.299 145.836C386.357 160.436 383.021 175.453 383.855 190.992C384.167 198.292 385.523 205.279 387.504 212.371C388.129 214.665 388.963 217.898 389.901 221.131C399.18 216.96 407.625 211.849 415.027 205.801C414.089 181.606 406.999 158.976 395.114 139.474Z" fill="#3B8B58"/>
<path d="M447.034 161.479C427.746 165.963 411.065 174.828 395.323 186.403C391.257 189.428 387.504 192.556 384.063 195.789C384.689 201.421 385.731 206.948 387.295 212.371C387.921 214.665 388.755 217.898 389.693 221.131C416.904 209.138 436.504 188.385 447.034 161.479Z" fill="#3B8B58"/>
<path d="M132.181 159.08C115.083 145.627 96.8382 135.511 75.6743 130.714C69.5232 129.358 57.5338 129.567 47.0039 127.794C68.1679 150.529 78.0722 186.508 95.5872 211.224C117.898 242.718 147.819 264.41 183.579 270.459C179.722 226.762 170.234 189.115 132.181 159.08Z" fill="#73C078"/>
<path d="M395.323 195.893C411.587 183.796 428.997 174.723 449.119 170.447C454.957 169.196 466.425 169.404 476.434 167.84C456.417 188.176 446.929 220.505 430.248 242.718C408.98 270.98 380.518 290.482 346.322 295.8C350.076 256.588 359.042 222.799 395.323 195.893Z" fill="#73C078"/>
<path d="M346.322 295.801C366.235 292.672 384.167 284.746 399.91 273.066C409.502 254.399 415.027 233.124 415.027 210.598C415.027 201.734 414.193 192.974 412.525 184.526C406.582 187.864 400.953 191.722 395.323 195.789C359.042 222.8 350.076 256.589 346.322 295.801Z" fill="#59A960"/>
<path d="M204.743 274.943C196.298 270.876 187.541 263.784 181.598 258.778C160.643 241.05 143.858 218.941 127.594 197.458C125.613 194.85 123.632 192.139 121.547 189.532C112.998 178.269 105.7 170.03 97.9851 162.834C97.151 162.104 96.317 161.27 95.4829 160.436C88.7063 153.97 80.3658 145.94 72.4424 142.498L72.8594 141.56C80.8871 145.105 89.4361 153.135 96.2127 159.601C97.0468 160.436 97.8808 161.166 98.7149 162C106.43 169.3 113.728 177.539 122.381 188.802C124.362 191.409 126.447 194.12 128.428 196.727C144.692 218.106 161.373 240.111 182.328 257.84C188.166 262.741 196.924 269.833 205.264 273.796L204.743 274.943Z" fill="#59A960"/>
<path d="M166.481 188.906C165.334 179.52 163.353 171.699 160.017 164.503C154.387 151.884 147.924 141.977 139.792 133.425C132.702 125.917 126.864 118.825 126.76 107.354C126.76 104.851 126.864 102.244 126.864 99.8449C127.072 92.0234 127.177 84.5147 125.613 76.9017C122.798 63.6573 115.917 52.8114 108.723 41.3398L109.14 41.0269L109.557 40.8184L109.14 41.0269L109.557 40.8184C116.855 52.3942 123.632 63.3444 126.655 76.7974C128.324 84.5147 128.115 92.3362 128.011 99.9492C127.906 102.452 127.906 104.955 127.906 107.458C127.906 118.512 133.641 125.5 140.626 132.8C148.862 141.455 155.326 151.363 161.06 164.086C164.396 171.386 166.377 179.312 167.524 188.802L166.481 188.906Z" fill="#3B8B58"/>
<path d="M374.68 177.122L373.742 176.913C374.576 172.846 375.097 168.674 375.514 164.816C376.14 159.289 376.765 153.553 378.538 148.026C379.476 145.001 380.31 142.29 381.352 139.474C382.604 136.137 383.646 132.695 384.793 129.358C386.461 124.248 388.233 118.825 390.318 113.715C392.195 109.022 394.593 104.225 396.887 99.532C399.284 94.6305 401.891 89.5204 403.767 84.5146C405.54 79.926 406.895 75.1288 408.25 70.5401C410.023 64.3872 411.795 58.13 414.61 52.1856C417.842 45.3026 419.302 38.7326 420.865 31.7453C421.491 28.8253 422.221 25.8009 422.951 22.7766L423.889 22.9852C423.055 26.0095 422.429 29.0338 421.804 31.8496C420.24 38.8368 418.78 45.5112 415.444 52.4985C412.629 58.3385 410.857 64.5958 409.085 70.7487C407.729 75.4416 406.374 80.2388 404.602 84.8275C402.621 89.8333 400.119 94.9433 397.616 99.9491C395.323 104.538 392.925 109.335 391.048 114.028C388.963 119.242 387.191 124.561 385.523 129.671C384.376 133.008 383.333 136.45 382.082 139.891C381.04 142.811 380.206 145.418 379.267 148.443C377.599 153.97 376.974 159.393 376.348 165.129C376.035 168.883 375.514 173.054 374.68 177.122Z" fill="#307147"/>
<path d="M375.41 233.854L374.784 233.124C377.704 230.725 379.476 227.075 381.144 223.634C382.291 221.131 383.542 218.628 385.21 216.438C386.044 215.291 386.878 214.352 387.712 213.414C389.484 211.224 391.257 209.242 392.821 206.218C396.157 199.752 398.138 192.973 399.701 186.612C400.223 184.526 400.744 182.336 401.265 180.146C403.35 171.699 405.436 163.043 408.772 155.43L410.127 152.301C414.714 141.768 419.406 130.923 426.495 121.954C433.897 112.464 438.068 105.059 442.655 95.3606L443.489 95.7777C438.797 105.581 434.731 113.089 427.225 122.58C420.24 131.444 415.548 142.29 410.961 152.719L409.606 155.847C406.27 163.356 404.184 172.012 402.204 180.355C401.682 182.545 401.161 184.735 400.64 186.82C398.972 193.286 396.991 200.169 393.655 206.635C392.091 209.764 390.318 211.849 388.442 214.039C387.608 214.978 386.774 216.021 385.94 217.064C384.376 219.149 383.125 221.652 381.978 224.051C380.31 227.597 378.538 231.351 375.41 233.854Z" fill="#3B8B58"/>
<path d="M331.31 315.615L330.788 314.781C332.665 313.634 333.499 312.278 334.437 310.714C334.854 309.984 335.376 309.254 336.001 308.419C341.11 301.745 346.01 294.966 350.806 288.396C357.999 278.489 365.401 268.269 373.533 258.466C377.912 253.147 383.333 248.871 388.546 244.7C393.655 240.633 398.972 236.357 403.246 231.143L405.54 228.327C415.236 216.438 424.514 205.175 435.044 194.225L435.774 194.851C425.244 205.696 416.07 216.959 406.374 228.848L404.08 231.664C399.806 236.878 394.384 241.258 389.276 245.326C384.063 249.497 378.746 253.773 374.472 258.987C366.34 268.79 358.937 279.01 351.744 288.813C346.948 295.383 342.048 302.162 336.939 308.837C336.314 309.567 335.897 310.297 335.48 311.027C334.229 312.799 333.291 314.364 331.31 315.615Z" fill="#59A960"/>
<path d="M216.003 306.438C214.647 305.082 213.292 303.831 212.041 302.579C201.615 292.463 194.005 285.059 178.575 282.139C176.698 281.826 174.822 281.513 172.841 281.2C168.671 280.574 164.292 279.949 160.539 278.593C155.43 276.82 151.677 273.17 147.924 269.624C144.483 266.287 141.251 263.159 136.977 261.386C133.849 260.03 131.034 259.3 128.323 258.57C122.485 257.006 117.481 255.65 111.851 249.288C110.809 248.037 109.662 246.577 108.411 244.908C103.302 238.13 96.9425 229.682 88.2892 233.332L87.8722 232.394C97.2552 228.535 103.823 237.295 109.14 244.283C110.391 245.847 111.434 247.411 112.581 248.558C118.002 254.711 122.902 255.963 128.532 257.527C131.243 258.257 134.162 258.987 137.394 260.447C141.772 262.324 145.317 265.661 148.653 268.894C152.198 272.336 155.951 275.882 160.851 277.654C164.605 279.01 168.879 279.636 173.049 280.262C174.926 280.574 176.907 280.887 178.783 281.2C194.526 284.225 202.241 291.629 212.771 301.953C214.022 303.205 215.377 304.456 216.732 305.812L216.003 306.438Z" fill="#307147"/>
<path d="M407.297 205.575C417.276 127.612 362.183 56.3179 284.243 46.3357C206.303 36.3535 135.031 91.463 125.052 169.426C115.072 247.39 170.165 318.683 248.105 328.666C326.045 338.648 397.318 283.538 407.297 205.575Z" fill="#4D7ABB"/>
<path d="M259.931 66.0932C258.844 68.4833 255.478 67.6141 254.5 69.5697C252.98 72.7202 254.609 75.5448 255.26 78.4781C256.455 85.1051 258.41 87.8211 251.676 91.7321C245.269 95.5345 243.422 92.8185 243.748 101.836C243.857 104.986 246.68 105.095 244.943 108.463C244.4 109.549 239.838 109.984 238.644 111.722C235.06 116.828 240.598 123.563 239.187 129.213C237.558 135.84 232.67 134.862 228.326 138.23C219.855 144.857 222.461 161.153 212.469 165.933C208.559 167.888 199.002 165.716 196.287 162.565C192.051 157.785 195.092 152.244 197.156 147.681C199.871 141.489 200.523 140.185 197.264 134.21C196.07 132.037 194.223 131.386 193.355 128.452C192.486 125.41 194.223 121.934 192.811 118.892C191.725 116.502 188.576 116.285 187.598 114.329C186.186 111.505 187.273 108.354 185.969 105.638C185.318 104.334 183.254 100.641 181.625 100.315C176.738 99.4455 179.67 103.139 177.932 105.638C170.764 116.285 163.27 104.552 152.844 108.354C150.346 109.332 147.848 110.853 145.35 112.374C167.289 77.0658 204.324 52.0787 247.441 46.3208C252.871 52.5133 264.709 55.8811 259.931 66.0932Z" fill="#79C0C4"/>
<path d="M295.228 221.339C289.254 205.586 280.023 218.84 270.357 210.909C267.642 208.628 267.967 204.391 263.949 203.087C259.605 201.675 253.957 205.477 248.853 204.934C236.037 203.631 230.389 209.823 226.697 222.968C224.851 229.704 223.982 232.746 229.521 237.417C231.693 239.264 235.168 239.699 237.014 241.872C239.295 244.37 238.752 247.847 240.49 250.237C243.314 254.039 249.07 254.583 252.437 258.819C253.957 260.666 253.849 263.817 255.695 265.881C257.758 268.054 261.017 267.728 263.406 270.118C269.705 276.31 270.683 285.11 270.465 293.041C270.031 303.688 276.982 307.164 287.408 306.186C289.797 297.93 293.381 301.949 299.355 298.907C304.351 296.409 307.066 289.239 308.152 284.132C309.455 277.831 308.695 277.071 313.365 271.422C317.058 267.076 320.316 262.73 320.75 256.864C321.402 247.738 317.709 249.042 312.605 245.131C309.021 242.415 306.414 238.287 303.047 235.462C300.224 233.072 299.572 233.832 297.726 230.356C296.531 227.749 296.314 224.163 295.228 221.339Z" fill="#79C0C4"/>
<path d="M408.396 187.444C408.396 208.194 403.943 227.858 396.015 245.566C394.06 245.566 392.322 245.566 391.128 245.566C385.046 245.783 378.964 243.502 375.597 238.287C373.751 235.462 375.162 232.203 371.904 229.596C369.732 227.858 366.365 228.835 363.867 227.966C355.07 225.033 359.306 221.991 358.003 215.473C356.916 209.932 349.423 206.781 343.992 208.628C338.996 210.367 337.91 217.211 332.154 216.994C325.529 216.668 324.66 208.954 323.357 204.391C320.968 196.569 321.728 195.592 314.343 198.308C313.582 198.633 308.152 201.132 307.935 201.458C306.088 203.74 308.043 207.325 306.414 209.606C302.939 214.712 297.074 207.433 295.554 202.87C294.576 200.154 295.554 196.895 294.685 194.071C293.924 191.681 291.101 190.703 290.449 188.204C287.734 178.861 294.902 180.708 298.92 176.254C305.871 168.54 296.205 168.758 290.992 171.8C288.168 173.429 287.625 175.602 284.367 176.362C281.652 177.014 278.502 175.276 275.461 175.602C272.529 175.928 271.443 177.992 268.076 177.883C263.732 177.775 264.818 176.036 261.668 174.733C254.609 172.017 251.459 175.928 244.617 174.841C243.096 168.866 249.83 164.521 254.283 162.565C257.215 161.261 260.148 161.479 262.754 159.958C265.578 158.328 265.904 155.612 269.597 154.417C275.57 152.462 281.76 152.136 287.299 149.094C291.644 146.704 295.554 139.751 286.648 138.664C288.277 128.344 275.57 136.057 271.769 135.84C260.365 135.297 269.379 127.04 274.701 123.781C277.633 121.934 280.892 120.522 283.715 119.001C287.408 117.045 288.386 115.742 291.427 113.46C301.527 105.964 297.508 116.393 306.197 116.719C305.002 127.583 312.062 124.215 317.384 119.544C318.687 118.349 319.447 115.307 321.185 114.547C323.031 113.786 324.117 115.85 324.877 115.742C327.81 115.09 331.177 114.547 334.218 114.329C333.783 110.744 330.959 104.552 333.023 101.292C333.892 99.8802 338.019 100.423 339.539 99.0111C342.255 96.2951 341.82 95.7519 342.472 92.384C343.666 86.5175 341.494 85.1052 346.164 80.7596C347.793 79.2387 350.834 77.0659 353.767 75.5449C387.001 101.401 408.396 141.924 408.396 187.444Z" fill="#79C0C4"/>
<path d="M213.447 274.355C214.207 286.088 207.473 279.678 200.088 282.72C200.197 285.762 199.98 289.13 199.111 292.063C191.182 295.974 192.051 302.493 192.92 309.446C183.363 303.688 174.457 296.735 166.529 288.913C166.42 287.501 166.203 286.088 166.094 284.785C165.986 283.589 168.158 283.264 167.506 281.308C167.289 280.656 165.008 279.57 164.465 278.375C163.162 275.116 161.967 274.681 161.641 270.879C161.315 265.012 166.203 260.123 166.854 254.691C167.18 251.867 165.117 249.585 165.334 246.543C165.443 243.936 167.072 241.981 167.397 239.265C162.727 237.526 159.143 236.549 155.885 233.398C152.301 236.766 144.047 231.768 140.246 231.117C134.49 230.03 129.711 229.378 128.408 221.665C128.299 221.556 128.082 221.556 127.973 221.448C125.367 210.584 123.955 199.285 123.955 187.552C123.955 172.451 126.344 157.894 130.688 144.205C136.77 144.965 134.924 143.988 138.074 140.403C140.246 137.904 152.518 122.151 154.473 134.427C159.469 134.21 169.135 134.971 166.854 142.684C165.443 147.356 156.645 146.921 153.387 152.244C149.695 158.328 152.844 160.501 157.297 164.738C163.922 171.148 163.813 171.256 166.746 163.434C167.94 160.175 164.574 159.632 169.135 158.111C172.176 157.024 174.24 158.545 176.303 160.501C179.127 163.108 177.932 165.824 181.734 168.214C184.123 169.844 187.164 169.083 189.77 169.844C194.223 171.148 204.867 177.449 200.631 183.75C197.156 188.964 187.381 181.468 184.557 184.619C184.34 184.728 184.123 184.728 184.014 184.728C184.449 190.811 192.594 191.137 191.943 197.004C186.729 197.221 178.693 195.266 175.217 199.285C172.393 202.653 175 214.06 172.719 216.124C169.027 219.384 161.315 215.038 157.949 213.517C155.451 212.431 153.822 210.258 150.781 210.366C150.238 210.366 144.047 213.626 143.938 213.843C141.983 218.84 149.477 224.707 153.93 225.685C158.818 226.771 162.402 222.317 168.375 225.25C173.914 227.966 173.045 232.746 180.322 233.941C184.557 234.702 194.006 232.746 197.264 235.571C200.631 238.504 198.35 241.872 200.74 245.24C202.695 247.847 206.496 247.956 209.103 248.716C215.402 250.563 221.266 252.084 221.484 260.449C210.406 262.188 212.904 265.555 213.447 274.355Z" fill="#79C0C4"/>
<path opacity="0.5" d="M368.863 89.0161C375.054 104.986 378.421 122.368 378.421 140.511C378.421 219.058 314.777 282.829 236.146 282.829C195.744 282.829 159.252 265.99 133.404 238.939C154.039 292.063 205.627 329.761 266.013 329.761C344.535 329.761 408.288 266.099 408.288 187.444C408.396 149.311 393.408 114.655 368.863 89.0161Z" fill="#00BBFF"/>
<path d="M435.656 136.057C430.117 105.746 408.505 119.435 408.505 119.435C378.312 90.9714 373.099 127.8 373.099 127.8C359.197 122.585 355.396 136.165 355.396 136.165C336.173 131.494 330.308 141.597 328.679 150.723H456.943C453.359 128.669 435.656 136.057 435.656 136.057Z" fill="white"/>
<path d="M154.473 157.785C150.998 138.773 137.422 147.356 137.422 147.356C118.416 129.43 115.158 152.57 115.158 152.57C106.469 149.311 103.971 157.785 103.971 157.785C91.9157 154.852 88.2231 161.153 87.137 167.019H167.723C165.551 153.114 154.473 157.785 154.473 157.785Z" fill="white"/>
<path d="M201.609 76.5228C197.156 52.2962 179.887 63.1601 179.887 63.1601C155.668 40.3458 151.541 69.7871 151.541 69.7871C140.463 65.6588 137.313 76.4141 137.313 76.4141C122 72.829 117.221 80.8684 116.026 88.2558H218.66C215.728 70.5476 201.609 76.5228 201.609 76.5228Z" fill="white"/>
<path opacity="0.3" d="M214.207 145.835C194.658 170.822 168.701 183.207 156.211 173.429C143.721 163.652 149.369 135.514 168.918 110.418C188.467 85.4311 214.424 73.0462 226.914 82.8237C239.404 92.6013 233.756 120.739 214.207 145.835Z" fill="white"/>
<path d="M22.2769 395.309C22.2769 395.309 9.21087 417.01 11.0598 438.711C12.7856 460.412 3.29416 482.977 3.29416 482.977L85.6351 490.745C85.6351 490.745 91.6751 443.89 87.3608 425.641C83.0465 407.393 79.5951 397.035 79.5951 397.035L22.2769 395.309Z" fill="#0361ED"/>
<path d="M190.78 389.39C190.78 389.39 179.193 423.915 180.056 440.437C180.919 456.96 182.644 481.25 182.644 481.25L259.808 479.524C259.808 479.524 259.808 450.055 259.808 439.574C259.808 429.094 244.154 389.514 244.154 389.514H190.78V389.39Z" fill="#A2A2A2"/>
<path d="M215.433 296.544C199.655 297.407 187.329 304.312 182.768 311.957C178.207 319.725 190.903 389.267 190.903 389.267C190.903 389.267 202.86 392.473 217.282 391.363C231.704 390.253 244.4 389.267 244.4 389.267C244.4 389.267 250.07 344.632 251.426 331.932C252.659 319.478 252.043 294.448 215.433 296.544Z" fill="#FF4341"/>
<path d="M205.202 280.392L201.874 299.134C201.874 299.134 200.888 304.312 214.94 302.833C228.992 301.476 228.992 297.9 228.992 297.9L224.061 274.72L205.202 280.392Z" fill="#F9B993"/>
<path d="M210.133 229.838C189.794 229.098 179.933 253.019 182.768 266.458C185.603 279.775 211.612 287.543 211.612 287.543C211.612 287.543 231.95 279.775 237.621 269.911C243.167 260.047 248.098 231.194 210.133 229.838Z" fill="#3D2D0A"/>
<path d="M205.942 212.945C204.709 210.356 193.985 196.053 181.289 210.849C168.592 225.645 206.558 236.126 206.558 236.126C206.558 236.126 210.133 222.07 205.942 212.945Z" fill="#3D2D0A"/>
<path d="M219.994 480.018L218.022 445.863L213.954 438.095" stroke="#384684" stroke-miterlimit="10"/>
<path d="M259.069 390.007C259.069 390.007 241.688 429.094 247.852 449.809C253.892 470.647 248.714 482.73 248.714 482.73L330.192 480.141C330.192 480.141 328.467 466.208 329.33 443.767C330.439 415.407 313.675 389.144 313.675 389.144L259.069 390.007Z" fill="#4BC56B"/>
<path d="M259.069 410.599C259.069 410.599 256.234 425.025 257.343 441.794C258.452 458.563 256.727 489.265 256.727 489.265L323.166 487.539C323.166 487.539 319.715 464.358 320.331 454.001C321.441 432.547 313.922 406.037 313.922 406.037L305.786 407.146L306.402 481.127L268.807 483.963V410.475H281.503V502.459L291.364 500.732L293.706 408.749" stroke="#383775" stroke-width="2" stroke-miterlimit="10"/>
<path d="M45.4508 297.408C29.6729 298.271 17.3464 305.176 12.7856 312.82C8.22478 320.588 2.43134 395.186 2.43134 395.186C2.43134 395.186 28.81 405.79 43.232 404.68C57.654 403.571 84.8955 401.228 84.8955 401.228C84.8955 401.228 80.0882 345.495 81.4441 332.795C82.6767 320.342 82.0604 295.311 45.4508 297.408Z" fill="#4BC56B"/>
<path d="M280.763 295.928C264.985 296.791 252.659 303.696 248.098 311.341C243.537 319.109 248.591 410.845 248.591 410.845C248.591 410.845 277.558 416.271 291.98 415.161C306.402 414.051 324.892 407.393 324.892 407.393C324.892 407.393 315.154 344.016 316.51 331.316C318.113 318.739 317.373 293.709 280.763 295.928Z" fill="#A0F0B5"/>
<path d="M351.887 419.599C351.887 419.599 344.121 456.96 344.984 475.085C345.847 493.334 447.294 477.675 447.294 477.675C447.294 477.675 439.528 426.504 436.94 419.599C434.228 412.571 351.887 419.599 351.887 419.599Z" fill="#383775"/>
<path d="M357.927 440.068L382.21 442.657L381.594 466.454L350.161 465.838L357.927 440.068Z" stroke="#384684" stroke-miterlimit="10"/>
<path d="M409.452 442.164L411.178 466.948L438.912 467.564L436.57 438.588L409.452 442.164Z" stroke="#384684" stroke-miterlimit="10"/>
<path d="M190.287 392.35C190.287 392.35 208.53 399.872 246.126 391.734" stroke="#384684" stroke-miterlimit="10"/>
<path d="M386.278 266.335C370.5 267.198 335.616 279.898 331.055 287.666C326.495 295.434 348.066 426.751 348.066 426.751C348.066 426.751 361.132 437.478 403.042 434.272C436.447 431.683 439.405 427.367 439.405 427.367C439.405 427.367 453.95 338.713 456.662 314.916C456.909 313.19 455.799 301.23 455.06 297.407C452.718 284.83 422.764 264.239 386.278 266.335Z" fill="white"/>
<path d="M337.712 374.471C341.04 381.253 457.279 378.047 457.648 372.991L453.334 439.821L342.273 434.642L337.712 374.471Z" fill="#DDA026"/>
<path d="M365.323 269.911C365.323 269.911 364.83 275.706 383.813 273.857C402.672 271.884 413.766 266.705 413.766 266.705L397.249 260.91L365.323 269.911Z" fill="#DDA026"/>
<path d="M86.4979 422.189C86.4979 422.189 74.418 455.973 78.7323 469.043C83.0465 482.113 174.139 476.811 174.139 476.811L164.648 430.82L86.4979 422.189Z" fill="white"/>
<mask id="mask0" mask-type="alpha" maskUnits="userSpaceOnUse" x="71" y="268" width="113" height="172">
<path d="M136.79 268.431C152.568 269.295 175.865 278.912 180.056 286.803C193.122 311.094 167.976 435.999 167.976 435.999C167.976 435.999 142.83 442.287 109.918 437.725C84.7722 434.272 71.7061 424.408 71.7061 424.408C71.7061 424.408 76.8833 316.396 78.609 304.066C80.458 291.859 100.304 266.335 136.79 268.431Z" fill="#9F33D1"/>
</mask>
<g mask="url(#mask0)">
<path d="M136.79 268.431C152.568 269.295 175.865 278.912 180.056 286.803C193.122 311.094 167.976 435.999 167.976 435.999C167.976 435.999 142.83 442.287 109.918 437.725C84.7722 434.272 71.7061 424.408 71.7061 424.408C71.7061 424.408 76.8833 316.396 78.609 304.066C80.458 291.859 100.304 266.335 136.79 268.431Z" fill="#6D6D6D"/>
<path d="M184.986 374.471C143.816 373.485 104.495 368.676 67.1453 359.675L68.9943 344.755C108.069 354.25 147.267 359.305 186.835 359.552L184.986 374.471Z" fill="#219653"/>
<path d="M181.658 401.844C140.488 400.857 101.166 396.049 63.8171 387.048L65.6661 372.128C104.741 381.622 143.939 386.678 183.507 386.924L181.658 401.844Z" fill="#4BC56B"/>
<path d="M174.262 427.244C133.092 426.258 93.7705 421.449 56.4213 412.448L58.2703 397.528C97.3452 407.023 136.543 412.078 176.111 412.325L174.262 427.244Z" fill="#A0F0B5"/>
</g>
<path d="M180.179 286.803C180.179 286.803 205.572 326.753 226.404 326.753C247.235 326.753 285.694 316.396 285.694 316.396L296.664 333.165C296.664 333.165 243.414 360.661 217.405 363.25C191.396 365.84 151.458 336.371 151.458 336.371L180.179 286.803Z" fill="#6D6D6D"/>
<path d="M331.055 287.667C331.055 287.667 315.771 314.67 298.267 333.658C298.267 333.658 283.229 347.715 278.175 350.057C271.395 353.263 262.643 352.893 254.754 352.03C240.949 356.839 227.39 362.018 217.405 363.004C216.049 363.127 214.57 363.127 213.091 363.127C219.501 368.059 261.781 399.131 292.843 388.158C314.045 380.636 356.325 337.234 356.325 337.234L331.055 287.667Z" fill="white"/>
<path d="M158.854 300.86L151.089 295.312L144.679 303.696L155.28 312.327L158.854 300.86Z" fill="#F9B993"/>
<path d="M152.198 296.298C152.198 296.298 150.103 290.256 148.254 287.544C146.158 284.461 141.104 278.789 141.104 278.789C141.104 278.789 137.899 280.269 140.981 283.475C142.83 285.324 142.46 286.804 142.46 286.804C142.46 286.804 137.16 282.735 135.434 281.255C133.708 279.776 128.408 274.843 126.929 275.707C125.08 276.94 135.434 286.68 135.434 286.68C135.434 286.68 126.806 281.995 122.615 280.145C118.424 278.296 118.424 279.529 118.67 280.885C119.04 282.242 132.599 290.626 132.599 290.626C132.599 290.626 118.3 283.845 117.684 286.187C117.191 287.913 130.873 294.325 130.873 294.325C130.873 294.325 126.436 294.448 122.368 293.585C118.3 292.722 118.177 294.572 119.779 295.681C121.382 296.915 130.75 298.394 130.75 298.394C130.75 298.394 140.734 304.683 145.172 305.299C149.61 305.792 152.198 296.298 152.198 296.298Z" fill="#F9B993"/>
<path d="M389.729 283.844L394.783 275.706L403.905 280.885L397.618 292.969L389.729 283.844Z" fill="#F9B993"/>
<path d="M394.167 277.063C394.167 277.063 393.797 270.651 394.413 267.445C395.153 263.746 397.618 256.594 397.618 256.594C397.618 256.594 401.193 256.718 399.591 260.787C398.604 263.253 399.591 264.486 399.591 264.486C403.042 258.691 405.138 257.458 406 261.527C408.096 260.047 411.054 261.403 410.068 263.993C413.52 263.869 413.396 265.226 413.026 266.705C415.738 267.075 415.738 268.431 414.752 270.281C414.752 270.281 408.096 279.899 404.151 282.241C400.207 284.707 394.167 277.063 394.167 277.063Z" fill="#F9B993"/>
<mask id="mask1" mask-type="alpha" maskUnits="userSpaceOnUse" x="298" y="278" width="106" height="53">
<path d="M308.621 302.956L359.899 307.888L392.934 278.419L403.042 285.817C403.042 285.817 385.169 329.713 366.186 330.453C347.203 331.192 298.02 326.877 298.02 326.877L308.621 302.956Z" fill="#A0F0B5"/>
</mask>
<g mask="url(#mask1)">
<path d="M308.621 302.956L359.899 307.888L392.934 278.419L403.042 285.817C403.042 285.817 385.169 329.713 366.186 330.453C347.203 331.192 298.02 326.877 298.02 326.877L308.621 302.956Z" fill="#A0F0B5"/>
<path d="M386.908 281.872L402.686 292.599L399.358 296.914L382.1 284.584L386.908 281.872Z" fill="#383775"/>
</g>
<mask id="mask2" mask-type="alpha" maskUnits="userSpaceOnUse" x="148" y="289" width="118" height="50">
<path d="M265.725 289.516C265.725 289.516 257.096 289.516 243.907 295.805C230.718 302.093 221.966 307.888 208.037 314.053C192.875 320.712 156.019 298.641 156.019 298.641L148.87 307.888C148.87 307.888 172.167 340.07 202.367 337.974C232.567 335.878 255.124 318.985 255.124 318.985L265.725 289.516Z" fill="#A0F0B5"/>
</mask>
<g mask="url(#mask2)">
<path d="M265.725 289.516C265.725 289.516 257.096 289.516 243.907 295.805C230.718 302.093 221.966 307.888 208.037 314.053C192.875 320.712 156.019 298.641 156.019 298.641L148.87 307.888C148.87 307.888 172.167 340.07 202.367 337.974C232.567 335.878 255.124 318.985 255.124 318.985L265.725 289.516Z" fill="#A0F0B5"/>
<path d="M152.114 314.802L162.345 301.362L166.659 303.951L154.949 318.747L152.114 314.802Z" fill="#383775"/>
</g>
<path d="M268.19 229.838C277.312 219.234 316.88 224.536 315.894 242.908C314.908 261.28 313.922 279.652 319.838 282.858C325.755 285.94 315.154 310.601 282.119 307.765C249.084 304.929 237.374 272.993 253.152 260.047C268.807 246.977 259.069 240.442 268.19 229.838Z" fill="#FF4341"/>
<path d="M385.662 236.743L370.5 249.69L370.007 270.774C370.007 270.774 377.033 272.377 388.25 270.528C399.591 268.678 403.782 267.445 403.782 267.445L399.344 248.333L385.662 236.743Z" fill="#F9B993"/>
<path d="M367.049 195.56C374.938 190.135 406 185.326 409.452 188.162C412.903 191.121 407.11 195.19 407.11 195.19C407.11 195.19 417.587 198.273 415.368 200.985C413.15 203.698 412.287 209.37 412.287 209.37C412.287 209.37 415.738 238.962 399.344 248.456C399.344 248.456 391.702 243.278 382.58 245.251C373.335 247.1 370.5 249.813 370.5 249.813C370.5 249.813 356.818 233.29 357.064 223.426C357.434 213.562 359.53 200.739 367.049 195.56Z" fill="#795913"/>
<path d="M158.731 203.205C158.731 203.205 168.962 246.73 152.075 250.923C135.188 255.115 136.174 234.524 136.174 234.524L158.731 203.205Z" fill="#F9B993"/>
<path d="M101.043 242.292C101.043 242.292 102.646 286.927 85.142 287.79C67.7617 288.653 72.8155 268.555 72.8155 268.555L101.043 242.292Z" fill="#F9B993"/>
<path d="M118.424 247.1L113.863 271.637C113.863 271.637 119.656 274.843 131.859 274.843C144.063 274.843 151.828 272.254 151.828 272.254L146.651 243.894L118.424 247.1Z" fill="#F9B993"/>
<path d="M130.01 184.833C142.707 182.737 148.254 174.969 148.254 174.969C148.254 174.969 159.471 185.573 161.566 193.217C163.662 200.862 163.662 209.37 157.375 219.234C151.089 229.098 146.158 233.291 146.158 233.291L141.228 246.607L118.793 247.347C118.793 247.347 97.715 224.906 100.55 210.11C103.385 195.314 117.437 186.929 130.01 184.833Z" fill="black"/>
<path d="M149.733 239.579C152.456 239.579 154.663 234.39 154.663 227.988C154.663 221.587 152.456 216.398 149.733 216.398C147.01 216.398 144.802 221.587 144.802 227.988C144.802 234.39 147.01 239.579 149.733 239.579Z" fill="#F9B993"/>
<path d="M51.9838 229.221C67.7617 216.398 76.5135 230.578 88.7167 226.755C100.92 223.056 109.795 236.25 103.508 245.621C97.222 254.992 79.2253 265.595 82.8 296.298C86.3747 327.123 54.2026 333.042 31.7684 325.89C9.33416 318.739 8.96437 293.955 19.1953 282.734C29.4263 271.637 41.5063 237.729 51.9838 229.221Z" fill="#723D20"/>
<path d="M522.732 381.376C522.732 381.376 542.085 412.078 542.701 441.178C543.071 458.563 540.113 461.153 540.975 474.099C541.838 487.169 539.25 489.759 539.25 489.759L456.046 483.717L475.152 386.555L522.732 381.376Z" fill="#D7BE8E"/>
<path d="M482.055 294.941C466.647 298.64 455.799 307.518 452.594 315.903C450.992 320.095 453.95 340.686 459.744 358.195C465.537 375.951 474.166 393.46 474.166 393.46C474.166 393.46 489.697 395.309 503.626 391.733C517.678 388.158 527.046 387.418 527.046 387.418C527.046 387.418 524.335 336.248 523.595 323.547C522.732 310.847 517.555 286.434 482.055 294.941Z" fill="#3B8B58"/>
<path d="M466.03 284.831L466.77 303.819C466.77 303.819 466.893 308.998 480.329 304.806C493.765 300.613 493.025 297.038 493.025 297.038L483.411 275.336L466.03 284.831Z" fill="#F9B993"/>
<path d="M451.855 226.139C451.855 226.139 459.374 216.521 473.18 213.562C485.876 210.849 481.315 222.44 481.315 222.44C481.315 222.44 498.079 218.001 500.544 225.399C503.01 232.797 500.175 236.126 500.175 236.126C500.175 236.126 520.39 243.401 512.994 254.745C505.598 266.089 500.914 264.486 500.914 264.486C500.914 264.486 510.282 279.282 498.942 284.461C487.602 289.516 478.727 285.2 478.727 285.2C478.727 285.2 477.001 293.585 468.619 296.174C460.36 298.887 457.895 283.351 457.895 283.351C457.895 283.351 447.294 296.298 438.542 288.406C429.79 280.515 442.363 268.925 442.363 268.925C442.363 268.925 433.612 277.926 429.544 267.198C425.476 256.471 434.351 248.95 434.351 248.95C434.351 248.95 427.325 247.347 428.558 236.496C429.667 225.646 451.855 226.139 451.855 226.139Z" fill="#723D20"/>
<path d="M113.863 271.514C113.863 271.514 83.0465 276.323 63.9405 280.762C44.8344 285.077 3.29417 285.077 0.582339 299.01C-2.12949 312.944 4.03376 325.397 31.7683 326.137C59.5029 326.753 95.9893 318.985 95.9893 318.985L113.863 271.514Z" fill="#6D6D6D"/>
<path d="M171.427 351.044C171.427 351.044 160.21 366.703 152.321 370.155C144.556 373.608 105.727 371.265 105.727 371.265L104.618 384.828C104.618 384.828 155.773 403.94 174.016 385.692C192.259 367.443 189.671 357.085 189.671 357.085L171.427 351.044Z" fill="#F9B993"/>
<path d="M498.572 376.938L509.42 377.061L510.036 389.144L499.435 391.241L498.572 376.938Z" fill="#F9B993"/>
<path d="M507.817 377.184C507.817 377.184 513.857 372.868 517.309 371.635C521.376 370.156 529.882 368.183 529.882 368.183C529.882 368.183 531.977 371.759 526.923 372.622C523.965 373.115 523.225 374.841 523.225 374.841C530.991 374.718 533.456 376.074 529.882 379.28C532.593 380.513 533.086 384.212 529.882 384.829C532.1 388.158 530.744 388.898 529.019 389.391C530.375 392.227 528.895 393.09 526.553 393.336C526.553 393.336 512.994 392.597 508.433 390.254C503.996 387.788 507.817 377.184 507.817 377.184Z" fill="#F9B993"/>
<path d="M521.869 392.72L517.555 370.156C494.381 369.909 471.207 364.73 459.497 356.839V347.591L429.667 365.223C429.667 365.223 436.077 390.624 442.363 395.556C448.65 400.488 521.869 392.72 521.869 392.72Z" fill="white"/>
<path d="M458.265 308.505C447.91 317.999 413.396 341.18 403.042 340.563C384.182 339.453 372.226 331.069 370.13 329.589C368.898 329.959 367.542 330.329 366.186 330.329C360.392 330.576 351.641 330.329 342.519 329.836C347.08 334.891 385.908 376.567 416.108 369.169C448.157 361.401 464.674 341.426 464.674 341.426L458.265 308.505Z" fill="#3B8B58"/>
<path d="M91.9216 383.966C91.9216 383.966 75.5274 382.856 75.1576 381.006C74.6645 378.17 91.5518 379.65 91.5518 379.65C91.5518 379.65 75.4041 377.554 74.418 376.567C73.4319 375.581 73.0621 374.718 77.7461 374.225C82.4302 373.855 92.1681 374.718 92.1681 374.718C92.1681 374.718 76.76 372.375 77.9927 370.402C78.8555 368.799 87.2375 369.416 89.4563 369.909C91.7983 370.402 98.5779 371.389 98.5779 371.389C98.5779 371.389 98.0848 369.786 95.4963 369.046C91.0587 367.813 93.2775 364.73 93.2775 364.73C93.2775 364.73 100.673 367.32 104.248 369.046C107.33 370.649 112.26 374.965 112.26 374.965C112.26 374.965 114.726 384.952 110.288 386.555C102.769 389.268 97.3453 388.404 95.0032 388.404C91.9216 388.528 86.2514 387.541 84.1559 387.048C82.0604 386.555 78.9788 386.062 78.7323 385.199C78.1159 383.472 91.9216 383.966 91.9216 383.966Z" fill="#F9B993"/>
<path d="M314.661 317.382C315.894 316.026 316.633 314.67 313.059 312.944C315.524 310.847 313.182 307.888 310.224 308.258C311.703 303.696 308.868 303.696 302.211 307.765C302.211 307.765 301.965 305.915 304.184 304.066C308.128 300.86 304.43 298.764 304.43 298.764C304.43 298.764 298.02 304.806 295.309 308.135C293.213 310.601 290.624 316.149 290.008 317.506L287.173 319.109L294.322 329.959L295.925 328.48C296.295 328.603 296.664 328.603 297.034 328.603C302.211 328.356 314.291 322.068 314.291 322.068C316.51 320.712 317.25 319.232 314.661 317.382Z" fill="#F9B993"/>
</svg>
